STARTFONT 2.3
FONT -FontForge-Righteous-Book-R-Normal--36-360-72-72-P-194-ISO10646-1
SIZE 36 72 72  2
FONTBOUNDINGBOX 46 44 -6 -9
COMMENT "Generated by fontforge, http://fontforge.sourceforge.net"
COMMENT "Copyright (c) 2011 by Brian J. Bonislawsky DBA Astigmatic (AOETI) (astigma@astigmatic.com), with ReservedFont Name "Righteous""
STARTPROPERTIES 40
FOUNDRY "FontForge"
FAMILY_NAME "Righteous"
WEIGHT_NAME "Book"
SLANT "R"
SETWIDTH_NAME "Normal"
ADD_STYLE_NAME ""
PIXEL_SIZE 36
POINT_SIZE 360
RESOLUTION_X 72
RESOLUTION_Y 72
SPACING "P"
AVERAGE_WIDTH 194
CHARSET_REGISTRY "ISO10646"
CHARSET_ENCODING "1"
FONTNAME_REGISTRY ""
CHARSET_COLLECTIONS "ISO8859-2 ISO8859-9 ISO8859-4 ISO10646-1"
BITS_PER_PIXEL 2
FONT_NAME "Righteous-Regular"
FACE_NAME "Righteous"
COPYRIGHT "Copyright (c) 2011 by Brian J. Bonislawsky DBA Astigmatic (AOETI) (astigma@astigmatic.com), with ReservedFont Name "Righteous""
FONT_VERSION "1.000"
FONT_ASCENT 29
FONT_DESCENT 7
UNDERLINE_POSITION -5
UNDERLINE_THICKNESS 1
X_HEIGHT 18
CAP_HEIGHT 25
RAW_ASCENT 799
RAW_DESCENT 200
NORM_SPACE 10
RELATIVE_WEIGHT 40
RELATIVE_SETWIDTH 50
SUPERSCRIPT_X 0
SUPERSCRIPT_Y 17
SUPERSCRIPT_SIZE 23
SUBSCRIPT_X 0
SUBSCRIPT_Y 5
SUBSCRIPT_SIZE 23
AVG_LOWERCASE_WIDTH 191
AVG_UPPERCASE_WIDTH 229
ENDPROPERTIES
CHARS 372
STARTCHAR space
ENCODING 32
SWIDTH 279 0
DWIDTH 10 0
BBX 1 1 0 0
BITMAP
00
ENDCHAR
STARTCHAR exclam
ENCODING 33
SWIDTH 274 0
DWIDTH 10 0
BBX 6 27 2 -1
BITMAP
5550
FFF0
FFF0
FFF0
FFE0
BFE0
BFE0
BFE0
BFE0
BFD0
BFD0
7FD0
7FD0
7FD0
7FD0
7FC0
7FC0
3FC0
3FC0
2A80
0000
1A40
7FD0
FFE0
FFF0
BFE0
2F80
ENDCHAR
STARTCHAR quotedbl
ENCODING 34
SWIDTH 409 0
DWIDTH 15 0
BBX 12 9 1 17
BITMAP
155155
7FE3FF
3FE3FE
3FE3FE
3FE2FE
2FD2FE
2FD2FD
2FD2FD
1A81A9
ENDCHAR
STARTCHAR numbersign
ENCODING 35
SWIDTH 561 0
DWIDTH 20 0
BBX 18 17 1 4
BITMAP
000AA06A40
000FF0BF40
001FE0FF00
016FE6FF50
07FFFFFFE0
0BFFFFFFD0
0FFFFFFFD0
05FF5BF940
00FF0BF400
01FE0FF000
3FFFFFFF00
7FFFFFFF00
7FFFFFFE00
6BFABFE900
0BF47F8000
0FF0BF4000
1FE0FF4000
ENDCHAR
STARTCHAR dollar
ENCODING 36
SWIDTH 458 0
DWIDTH 16 0
BBX 14 26 1 0
BITMAP
00054000
001FC000
001FC000
001FC000
001FC000
006FD540
07FFFFC0
1FFFFFC0
3FFFFFC0
7F955540
7F400000
7FEAA900
3FFFFF80
1FFFFFD0
06FFFFF0
00055FF0
15555FF0
7FFFFFE0
7FFFFFD0
7FFFFF40
6AAFE400
001FC000
001FC000
001FC000
001FC000
001FC000
ENDCHAR
STARTCHAR percent
ENCODING 37
SWIDTH 685 0
DWIDTH 25 0
BBX 23 27 1 -1
BITMAP
01A500001500
0BFF8000FF00
2FFFD002FD00
7FEFF003F800
7F07F40BF400
BE03F41FE000
BE03F42FC000
BE03F47F8000
BF03F4BF0000
7F9BF1FD0000
3FFFE3FC0000
1FFFC7F40000
06FE0FE00000
00002FD05400
00003F8BFF40
0000BF6FFFD0
0001FE7FFFE0
0002FC7F4BF0
0007F8BE03F4
000FF0BE03F4
001FD0BE03F4
003FC0BE07F4
00BF407F4BF0
00FE003FFFE0
02FD002FFFD0
07F8000BFF40
000000005400
ENDCHAR
STARTCHAR ampersand
ENCODING 38
SWIDTH 485 0
DWIDTH 17 0
BBX 14 26 2 0
BITMAP
00054000
000BD000
000BD000
000BD000
01FFFFD0
0FFFFFD0
3FFFFFD0
7FFAAA90
BF400000
FF000000
BF000000
BFD55000
3FFFF400
2FFFF400
3FFFF400
BFE55400
BF400000
FF000000
BF400000
7FEAAA90
3FFFFFD0
1FFFFFD0
02FFFFD0
000BD000
000BD000
000BD000
ENDCHAR
STARTCHAR quotesingle
ENCODING 39
SWIDTH 238 0
DWIDTH 9 0
BBX 6 9 1 17
BITMAP
1550
7FE0
3FE0
3FE0
3FE0
2FD0
2FD0
2FD0
1A80
ENDCHAR
STARTCHAR parenleft
ENCODING 40
SWIDTH 351 0
DWIDTH 13 0
BBX 11 33 1 -4
BITMAP
001AA8
007FF4
00FFD0
02FFC0
07FF40
0BFF00
0FFD00
1FFC00
2FF800
3FF400
3FF000
7FF000
7FE000
BFE000
BFD000
BFD000
BFD000
BFD000
BFE000
7FE000
7FF000
3FF000
3FF400
2FF800
1FFC00
0FFD00
0BFF00
07FF40
02FF80
01FFD0
00BFE0
003FF4
001AA8
ENDCHAR
STARTCHAR parenright
ENCODING 41
SWIDTH 351 0
DWIDTH 13 0
BBX 12 33 0 -4
BITMAP
2AA400
2FFC00
0FFE00
07FF40
02FF80
01FFD0
00BFE0
007FF0
003FF4
002FF8
001FF8
001FFC
000FFC
000FFD
000FFD
000BFD
000BFD
000FFD
000FFD
000FFC
001FFC
002FF8
002FF4
003FF4
007FF0
00BFE0
01FFD0
02FF80
03FF40
0BFE00
1FFD00
2FF800
6AA000
ENDCHAR
STARTCHAR asterisk
ENCODING 42
SWIDTH 589 0
DWIDTH 21 0
BBX 19 19 1 11
BITMAP
0003FF0000
0003FF0000
0003FF0000
0003FF0000
0F43FF06D0
1FE7FF6FE0
3FFFFFFFF4
BFFFFFFFF8
2FFFFFFFE4
02FFFFFE40
007FFFF400
002FFFE000
007FFFF800
01FFFFFE00
07FFDFFF80
0BFF47FFD0
03FE01FF40
00BC00BD00
0020002000
ENDCHAR
STARTCHAR plus
ENCODING 43
SWIDTH 485 0
DWIDTH 17 0
BBX 15 16 1 5
BITMAP
00155000
002FF000
002FF000
002FF000
002FF000
002FF400
BFFFFFFC
BFFFFFFC
BFFFFFFC
BFFFFFFC
6ABFFAA8
002FF000
002FF000
002FF000
002FF000
00155000
ENDCHAR
STARTCHAR comma
ENCODING 44
SWIDTH 264 0
DWIDTH 10 0
BBX 7 10 1 -5
BITMAP
0690
2FF0
3FF8
7FF8
3FF8
1FF4
03F0
07E0
0BC0
0140
ENDCHAR
STARTCHAR hyphen
ENCODING 45
SWIDTH 528 0
DWIDTH 19 0
BBX 15 5 2 10
BITMAP
FFFFFFFC
FFFFFFFC
FFFFFFFC
FFFFFFFC
AAAAAAA8
ENDCHAR
STARTCHAR period
ENCODING 46
SWIDTH 263 0
DWIDTH 9 0
BBX 7 7 1 -2
BITMAP
0690
2FF0
3FF8
7FF8
3FF4
1FE0
0100
ENDCHAR
STARTCHAR slash
ENCODING 47
SWIDTH 490 0
DWIDTH 18 0
BBX 16 26 1 0
BITMAP
00000154
00000FFD
00001FFC
00002FF8
00003FF0
0000BFE0
0000FFD0
0001FFC0
0002FF40
0007FF00
000BFE00
000FFD00
001FF800
002FF400
007FF000
00BFE000
00FFC000
01FF8000
03FF4000
07FF0000
0BFD0000
0FFC0000
2FF80000
3FF40000
7FE00000
BFD00000
ENDCHAR
STARTCHAR zero
ENCODING 48
SWIDTH 642 0
DWIDTH 23 0
BBX 21 27 1 -1
BITMAP
000059400000
001BFFF90000
00BFFFFF8000
02FFFFFFE000
07FFFFFFF400
0FFF91BFFC00
1FFD001FFD00
2FF80007FF00
3FF00003FF00
7FE00002FF40
7FE00001FF40
7FD00001FF80
7FD00001FF80
BFD00001FF80
7FD00001FF80
7FD00001FF80
7FE00001FF40
7FE00002FF40
3FF00003FF00
2FF8000BFE00
1FFD001FFD00
0FFF95BFFC00
07FFFFFFF400
01FFFFFFE000
007FFFFF8000
000BFFF80000
000015400000
ENDCHAR
STARTCHAR one
ENCODING 49
SWIDTH 317 0
DWIDTH 11 0
BBX 8 26 1 0
BITMAP
1555
BFFF
BFFF
BFFF
BFFF
BFFF
03FF
03FF
03FF
03FF
03FF
03FF
03FF
03FF
03FF
03FF
03FF
03FF
03FF
03FF
03FF
03FF
03FF
03FF
03FF
03FF
ENDCHAR
STARTCHAR two
ENCODING 50
SWIDTH 570 0
DWIDTH 21 0
BBX 19 26 1 0
BITMAP
0555540000
1FFFFFE000
1FFFFFFD00
1FFFFFFF40
1FFFFFFFC0
1FFFFFFFE0
000000BFF0
0000003FF0
0000003FF4
0000007FF0
000001FFF0
006FFFFFD0
02FFFFFFC0
0BFFFFFF40
1FFFFFF800
2FFFFF9000
7FF8000000
7FE0000000
7FE0000000
7FE0000000
7FE0000000
7FFFFFFFE0
7FFFFFFFE0
7FFFFFFFE0
7FFFFFFFE0
7FFFFFFFE0
ENDCHAR
STARTCHAR three
ENCODING 51
SWIDTH 586 0
DWIDTH 21 0
BBX 19 26 1 0
BITMAP
1555540000
7FFFFFE400
7FFFFFFE00
7FFFFFFF80
7FFFFFFFD0
7FFFFFFFE0
000000BFF0
0000003FF4
0000002FF4
0000003FF4
000001BFF0
00FFFFFFE0
00FFFFFFC0
00FFFFFF80
00FFFFFFD0
00FFFFFFE0
000000BFF0
0000003FF4
0000002FF4
0000003FF4
000001BFF0
7FFFFFFFE0
7FFFFFFFD0
7FFFFFFF40
7FFFFFFD00
7FFFFF9000
ENDCHAR
STARTCHAR four
ENCODING 52
SWIDTH 630 0
DWIDTH 23 0
BBX 21 26 1 0
BITMAP
015500000000
07FE00000000
07FE00000000
0BFD006A9000
0BFD007FE000
0BFD007FE000
0FFC007FE000
0FFC007FE000
1FF8007FE000
1FF8007FE000
2FF4007FE000
2FF4007FE000
2FF4007FE000
3FF0007FE000
3FF0007FE000
7FE0007FE000
7FFFFFFFFF40
7FFFFFFFFF40
BFFFFFFFFF40
BFFFFFFFFF40
FFFFFFFFFF40
0000007FE000
0000007FE000
0000007FE000
0000007FE000
0000007FE000
ENDCHAR
STARTCHAR five
ENCODING 53
SWIDTH 585 0
DWIDTH 21 0
BBX 19 26 1 0
BITMAP
0155555540
0FFFFFFFE0
0FFFFFFFE0
0FFFFFFFE0
0FFFFFFFE0
1FFFFFFFE0
1FF8000000
1FF8000000
2FF4000000
2FF4000000
2FFFFE9000
3FFFFFFD00
3FFFFFFF80
3FFFFFFFD0
3FFFFFFFF0
155555BFF4
0000002FF8
0000001FF8
0000001FF8
0000002FF8
000000BFF4
7FFFFFFFF0
7FFFFFFFE0
7FFFFFFF80
7FFFFFFE00
7FFFFFA400
ENDCHAR
STARTCHAR six
ENCODING 54
SWIDTH 615 0
DWIDTH 22 0
BBX 20 27 1 -1
BITMAP
0000555000
0007FFD000
001FFF0000
007FFC0000
00FFF00000
02FFD00000
07FF400000
0BFE6A9000
0FFFFFFE00
2FFFFFFFC0
2FFFFFFFF0
3FFFFFFFF8
7FFE407FFC
7FFC001FFD
BFF4000BFE
BFF00007FE
BFE00003FF
BFF00007FF
7FF00007FE
7FF8000FFE
3FFD002FFD
1FFF95FFF8
0BFFFFFFF4
03FFFFFFD0
00BFFFFF40
001FFFF900
0001AA4000
ENDCHAR
STARTCHAR seven
ENCODING 55
SWIDTH 516 0
DWIDTH 19 0
BBX 18 26 1 0
BITMAP
5555555540
FFFFFFFFD0
FFFFFFFFC0
FFFFFFFF80
FFFFFFFF40
FFFFFFFF00
00000BFE00
00000FFD00
00001FFC00
00002FF800
00003FF400
00007FF000
0000BFE000
0000FFC000
0001FF8000
0002FF4000
0003FF0000
000BFE0000
000FFD0000
001FFC0000
002FF80000
003FF40000
007FF00000
00BFE00000
00FFD00000
01FFC00000
ENDCHAR
STARTCHAR eight
ENCODING 56
SWIDTH 618 0
DWIDTH 22 0
BBX 20 27 1 -1
BITMAP
0006FF9000
002FFFFD00
01FFFFFF40
03FFFFFFD0
0BFFFBFFF0
0FFE00BFF4
1FFC002FF4
1FF8001FF8
0FFC002FF4
0BFE007FF0
07FFA6FFE0
02FFFFFFC0
01FFFFFF80
07FFFFFFE0
1FFFEAFFF4
3FFD006FFC
7FF0000BFE
BFE00007FF
BFD00003FF
BFD00003FF
7FF0000BFE
3FF9002FFD
2FFFAAFFF8
0BFFFFFFF0
02FFFFFF80
006FFFF900
0001AA5000
ENDCHAR
STARTCHAR nine
ENCODING 57
SWIDTH 616 0
DWIDTH 22 0
BBX 20 26 1 0
BITMAP
0006BE9000
006FFFF800
01FFFFFF40
07FFFFFFD0
1FFFFFFFF0
2FFE45FFF8
3FF8003FFC
7FF0001FFD
BFE0000FFE
BFD0000BFE
BFD0000BFE
BFD0000BFE
7FF0001FFE
7FF8002FFE
3FFE41FFFD
1FFFFFFFFC
0BFFFFFFFC
02FFFFFFF8
007FFFBFF4
0005A9BFE0
000001FFD0
000007FF80
00000FFF00
00003FFD00
0001FFF400
0007FFD000
ENDCHAR
STARTCHAR colon
ENCODING 58
SWIDTH 276 0
DWIDTH 10 0
BBX 6 16 2 -1
BITMAP
1A40
7FD0
FFF0
FFF0
BFE0
2F80
0000
0000
0000
0000
1A40
7FD0
FFF0
FFF0
BFE0
2F80
ENDCHAR
STARTCHAR semicolon
ENCODING 59
SWIDTH 276 0
DWIDTH 10 0
BBX 6 20 2 -5
BITMAP
1A40
7FD0
FFF0
FFF0
BFE0
2F80
0000
0000
0000
0000
1A40
7FD0
FFF0
FFF0
BFF0
2FE0
0BD0
0FC0
1F40
0100
ENDCHAR
STARTCHAR less
ENCODING 60
SWIDTH 478 0
DWIDTH 17 0
BBX 14 22 1 3
BITMAP
00000400
00001E00
00007F80
0001FFE0
0007FFF0
001FFFC0
007FFF00
00FFFC00
03FFF000
0FFFC000
3FFF0000
BFFE0000
2FFF8000
0BFFE000
02FFF800
00BFFE00
002FFFC0
000BFFF0
0001FFE0
00007F80
00001F00
00000400
ENDCHAR
STARTCHAR equal
ENCODING 61
SWIDTH 539 0
DWIDTH 19 0
BBX 15 13 2 6
BITMAP
AAAAAAA8
BFFFFFFC
BFFFFFFC
BFFFFFFC
BFFFFFFC
00000000
00000000
6AAAAAA8
BFFFFFFC
BFFFFFFC
BFFFFFFC
BFFFFFFC
55555554
ENDCHAR
STARTCHAR greater
ENCODING 62
SWIDTH 478 0
DWIDTH 17 0
BBX 14 22 2 3
BITMAP
01000000
0B800000
2FD00000
BFF40000
BFFD0000
2FFF4000
0BFFD000
02FFF400
00BFFD00
002FFF40
000BFFD0
0007FFF0
001FFFD0
007FFF00
02FFFC00
0BFFE000
2FFF8000
BFFE0000
BFF80000
2FE00000
0B800000
01000000
ENDCHAR
STARTCHAR question
ENCODING 63
SWIDTH 603 0
DWIDTH 22 0
BBX 20 28 1 -2
BITMAP
1555550000
BFFFFFF900
BFFFFFFF80
BFFFFFFFE0
BFFFFFFFF4
BFFFFFFFFC
0000001FFD
0000000BFD
0000000BFD
0000000FFD
0000006FFD
00006FFFF8
0002FFFFF4
000BFFFFD0
001FFFFF40
002FFFE400
003FF80000
007FF00000
007FE00000
006AA00000
0000000000
001A400000
007FE00000
00BFF00000
00BFF40000
007FF00000
002FD00000
0001000000
ENDCHAR
STARTCHAR at
ENCODING 64
SWIDTH 629 0
DWIDTH 23 0
BBX 21 21 1 -1
BITMAP
000055400000
001BFFF80000
00BFFFFF4000
02FFFFFFE000
0BFE406FF400
1FF4005BFC00
2FD0AAFDFE00
3F87FFFCBF00
7F0BFFFC7F40
BF0FE7FC3F40
BE1FC1FC3F40
BE1FD2FC3F40
7F0FFFFEBF40
3F47FFFFFF00
2FC1FFFFFE00
1FE000000000
0BFD00000000
02FFEA800000
00BFFF800000
001BFFC00000
00016A400000
ENDCHAR
STARTCHAR A
ENCODING 65
SWIDTH 673 0
DWIDTH 24 0
BBX 21 25 2 0
BITMAP
0006FFE40000
007FFFFE0000
02FFFFFF8000
0BFFFFFFE000
1FFFFFFFF800
3FFE007FFD00
7FF4001FFE00
BFE00007FF00
BFD00003FF00
FFC00003FF40
FFC00002FF40
FFC00002FF40
FFC00002FF40
FFC00002FF40
FFC00003FF40
FFFFFFFFFF40
FFFFFFFFFF40
FFFFFFFFFF40
FFFFFFFFFF40
FFFFFFFFFF40
FFC00002FF40
FFC00002FF40
FFC00002FF40
FFC00002FF40
FFC00002FF40
ENDCHAR
STARTCHAR B
ENCODING 66
SWIDTH 666 0
DWIDTH 24 0
BBX 21 26 2 0
BITMAP
155555400000
BFFFFFFE4000
BFFFFFFFE000
BFFFFFFFF800
BFFFFFFFFD00
BFFFFFFFFF00
BFD00007FF40
BFD00002FF40
BFD00002FF40
BFD00003FF40
BFD0001BFF00
BFFFFFFFFE00
BFFFFFFFF800
BFFFFFFFF000
BFFFFFFFFC00
BFFFFFFFFE00
BFD0000BFF00
BFD00002FF40
BFD00002FF40
BFD00002FF40
BFD0000BFF40
BFFFFFFFFE00
BFFFFFFFFD00
BFFFFFFFF800
BFFFFFFFD000
BFFFFFFA0000
ENDCHAR
STARTCHAR C
ENCODING 67
SWIDTH 640 0
DWIDTH 23 0
BBX 22 27 1 -1
BITMAP
000005A50000
0001BFFFE400
000BFFFFFE00
007FFFFFFFD0
01FFFFFFFFC0
07FFFEABFF40
0FFFD0007E00
2FFE00000800
3FF800000000
7FF000000000
BFE000000000
FFD000000000
FFC000000000
FFC000000000
FFC000000000
FFD000000000
BFE000000000
7FF000000000
3FF800000000
2FFE00000800
0FFFD0007E00
07FFFEABFF40
01FFFFFFFFC0
007FFFFFFFD0
000BFFFFFE00
0001BFFFE400
000005A50000
ENDCHAR
STARTCHAR D
ENCODING 68
SWIDTH 653 0
DWIDTH 24 0
BBX 21 26 2 0
BITMAP
155500000000
BFFFFE400000
BFFFFFF40000
BFFFFFFE0000
BFFFFFFF8000
BFFFFFFFE000
BFD006FFF400
BFD0007FFC00
BFD0001FFE00
BFD0000BFF00
BFD00003FF40
BFD00002FF40
BFD00002FF40
BFD00002FF80
BFD00002FF40
BFD00003FF40
BFD00007FF00
BFD0000BFE00
BFD0002FFD00
BFD000BFFC00
BFD01BFFF400
BFFFFFFFE000
BFFFFFFF8000
BFFFFFFD0000
BFFFFFE00000
BFFFF9000000
ENDCHAR
STARTCHAR E
ENCODING 69
SWIDTH 578 0
DWIDTH 21 0
BBX 18 26 2 0
BITMAP
1555555540
BFFFFFFFE0
BFFFFFFFE0
BFFFFFFFE0
BFFFFFFFE0
BFFFFFFFE0
BFD0000000
BFD0000000
BFD0000000
BFD0000000
BFD0000000
BFFFFFE000
BFFFFFE000
BFFFFFE000
BFFFFFE000
BFFFFFE000
BFD0000000
BFD0000000
BFD0000000
BFD0000000
BFD0000000
BFFFFFFFE0
BFFFFFFFE0
BFFFFFFFE0
BFFFFFFFE0
BFFFFFFFE0
ENDCHAR
STARTCHAR F
ENCODING 70
SWIDTH 562 0
DWIDTH 20 0
BBX 18 26 2 0
BITMAP
1555555550
BFFFFFFFF0
BFFFFFFFF0
BFFFFFFFF0
BFFFFFFFF0
BFFFFFFFE0
BFD0000000
BFD0000000
BFD0000000
BFD0000000
BFD0000000
BFFFFFC000
BFFFFFC000
BFFFFFC000
BFFFFFC000
BFFFFFC000
BFD0000000
BFD0000000
BFD0000000
BFD0000000
BFD0000000
BFD0000000
BFD0000000
BFD0000000
BFD0000000
BFD0000000
ENDCHAR
STARTCHAR G
ENCODING 71
SWIDTH 665 0
DWIDTH 24 0
BBX 22 27 1 -1
BITMAP
000005550000
0001BFFFE400
000BFFFFFE00
007FFFFFFFC0
01FFFFFFFFC0
07FFFEABFF40
0FFFD0007E00
2FFE00000800
3FF800000000
7FF000000000
BFE000000000
FFD000000000
FFC000000000
FFC000006A90
FFC000007FD0
FFD000007FD0
BFE000007FD0
7FF000007FD0
3FF800007FD0
2FFE00007FD0
0FFFD000BFD0
07FFFEABFFD0
01FFFFFFFFD0
007FFFFFFFD0
001BFFFFFE00
0001BFFFE400
000005A50000
ENDCHAR
STARTCHAR H
ENCODING 72
SWIDTH 689 0
DWIDTH 25 0
BBX 21 26 2 0
BITMAP
154000005500
BFD00002FF80
BFD00002FF80
BFD00002FF80
BFD00002FF80
BFD00002FF80
BFD00002FF80
BFD00002FF80
BFD00002FF80
BFD00002FF80
BFD00002FF80
BFFFFFFFFF80
BFFFFFFFFF80
BFFFFFFFFF80
BFFFFFFFFF80
BFFFFFFFFF80
BFD00002FF80
BFD00002FF80
BFD00002FF80
BFD00002FF80
BFD00002FF80
BFD00002FF80
BFD00002FF80
BFD00002FF80
BFD00002FF80
BFD00002FF80
ENDCHAR
STARTCHAR I
ENCODING 73
SWIDTH 270 0
DWIDTH 10 0
BBX 6 26 2 0
BITMAP
1540
BFD0
BFD0
BFD0
BFD0
BFD0
BFD0
BFD0
BFD0
BFD0
BFD0
BFD0
BFD0
BFD0
BFD0
BFD0
BFD0
BFD0
BFD0
BFD0
BFD0
BFD0
BFD0
BFD0
BFD0
BFD0
ENDCHAR
STARTCHAR J
ENCODING 74
SWIDTH 416 0
DWIDTH 15 0
BBX 13 26 0 0
BITMAP
00005540
0000FFC0
0000FFC0
0000FFC0
0000FFC0
0000FFC0
0000FFC0
0000FFC0
0000FFC0
0000FFC0
0000FFC0
0000FFC0
0000FFC0
0000FFC0
0000FFC0
0000FFC0
0000FFC0
0001FF80
0002FF80
000BFF40
506FFE00
BFFFFD00
BFFFF400
BFFFD000
BFFE4000
7FE40000
ENDCHAR
STARTCHAR K
ENCODING 75
SWIDTH 625 0
DWIDTH 23 0
BBX 21 26 2 0
BITMAP
154000015500
BFD0000BFF00
BFD0002FFD00
BFD0007FF400
BFD000FFE000
BFD002FFC000
BFD007FF4000
BFD01FFD0000
BFD03FF80000
BFD0BFF00000
BFD1FFD00000
BFD7FF800000
BFDFFFC00000
BFFFFFE00000
BFFFFFF40000
BFFFFFF80000
BFFF9FFD0000
BFFF0FFF0000
BFFD07FF4000
BFF402FFC000
BFE001FFD000
BFD000BFF000
BFD0003FF800
BFD0002FFC00
BFD0000FFE00
BFD0000BFF40
ENDCHAR
STARTCHAR L
ENCODING 76
SWIDTH 562 0
DWIDTH 20 0
BBX 18 26 2 0
BITMAP
1540000000
BFD0000000
BFD0000000
BFD0000000
BFD0000000
BFD0000000
BFD0000000
BFD0000000
BFD0000000
BFD0000000
BFD0000000
BFD0000000
BFD0000000
BFD0000000
BFD0000000
BFD0000000
BFD0000000
BFD0000000
BFD0000000
BFD0000000
BFD0000000
BFFFFFFFF0
BFFFFFFFF0
BFFFFFFFF0
BFFFFFFFF0
BFFFFFFFF0
ENDCHAR
STARTCHAR M
ENCODING 77
SWIDTH 819 0
DWIDTH 30 0
BBX 26 26 2 0
BITMAP
00165001650000
01BFFE1BFFE000
07FFFFBFFFF800
1FFFFFFFFFFE00
3FFFFFFFFFFF40
7FFEBFFFEBFFC0
BFE01FFE01FFD0
BFD00FFD00BFD0
FFD00BFD00BFD0
FFD00BFD00BFD0
FFD00BFD00BFD0
FFD00BFD00BFD0
FFD00BFD00BFD0
FFD00BFD00BFD0
FFD00BFD00BFD0
FFD00BFD00BFD0
FFD00BFD00BFD0
FFD00BFD00BFD0
FFD00BFD00BFD0
FFD00BFD00BFD0
FFD00BFD00BFD0
FFD00BFD00BFD0
FFD00BFD00BFD0
FFD00BFD00BFD0
FFD00BFD00BFD0
FFD00BFD00BFD0
ENDCHAR
STARTCHAR N
ENCODING 78
SWIDTH 689 0
DWIDTH 25 0
BBX 21 26 2 0
BITMAP
154000005500
BFF00002FF80
BFF80002FF80
BFFD0002FF80
BFFF0002FF80
BFFF4002FF80
BFFFC002FF80
BFFFE002FF80
BFFFF402FF80
BFFFF802FF80
BFDFFD02FF80
BFD7FF02FF80
BFD2FF82FF80
BFD1FFD2FF80
BFD0BFE2FF80
BFD03FF6FF80
BFD01FFEFF80
BFD00FFFFF80
BFD007FFFF80
BFD002FFFF80
BFD000FFFF80
BFD000BFFF80
BFD0003FFF80
BFD0001FFF80
BFD0000BFF80
BFD00007FF80
ENDCHAR
STARTCHAR O
ENCODING 79
SWIDTH 777 0
DWIDTH 28 0
BBX 26 27 1 -1
BITMAP
00000555000000
0001BFFFE40000
000BFFFFFE0000
007FFFFFFFD000
01FFFFFFFFF400
07FFFEABFFFD00
0FFFD0007FFF00
2FFE00000BFF80
3FF8000002FFC0
7FF0000000FFD0
BFE0000000BFE0
FFD00000007FF0
FFC00000003FF0
FFC00000003FF0
FFC00000003FF0
FFD00000007FF0
BFE0000000BFE0
7FF0000000FFD0
3FF8000002FFC0
2FFE00000BFF80
0FFFD0007FFF00
07FFFEABFFFD00
01FFFFFFFFF400
007FFFFFFFD000
000BFFFFFE4000
0001BFFFE40000
000005A5000000
ENDCHAR
STARTCHAR P
ENCODING 80
SWIDTH 642 0
DWIDTH 23 0
BBX 21 26 2 0
BITMAP
155554000000
BFFFFFE40000
BFFFFFFE4000
BFFFFFFFD000
BFFFFFFFF400
BFFFFFFFFC00
BFD0007FFD00
BFD0000BFF00
BFD00007FF40
BFD00002FF40
BFD00002FF40
BFD00002FF40
BFD00003FF40
BFD00007FF00
BFD0001FFE00
BFD001BFFD00
BFFFFFFFF800
BFFFFFFFF000
BFFFFFFF8000
BFFFFFFE0000
BFFFFF900000
BFD000000000
BFD000000000
BFD000000000
BFD000000000
BFD000000000
ENDCHAR
STARTCHAR Q
ENCODING 81
SWIDTH 777 0
DWIDTH 28 0
BBX 26 31 1 -5
BITMAP
00000555000000
0001BFFFE40000
000BFFFFFE0000
007FFFFFFFD000
01FFFFFFFFF400
07FFFEABFFFD00
0FFFD0007FFF00
2FFE00000BFF80
3FF8000002FFC0
7FF0000000FFD0
BFE0000000BFE0
FFD00000007FF0
FFC00000003FF0
FFC00000003FF0
FFC00000003FF0
FFD00000007FF0
BFE0000000BFE0
7FF0000000FFD0
3FF8000002FFC0
2FFE00000BFF80
0FFFD0007FFF00
07FFFEABFFFD00
01FFFFFFFFF400
007FFFFFFFD000
000BFFFFFE4000
0001BFFFFC0000
000005AFFE0000
00000007FF4000
00000002FFC000
00000000FFE000
000000007FF400
ENDCHAR
STARTCHAR R
ENCODING 82
SWIDTH 651 0
DWIDTH 23 0
BBX 21 26 2 0
BITMAP
155554000000
BFFFFFE40000
BFFFFFFE4000
BFFFFFFFD000
BFFFFFFFF400
BFFFFFFFFC00
BFD0007FFD00
BFD0000BFF00
BFD00007FF40
BFD00002FF40
BFD00002FF40
BFD00002FF40
BFD00003FF40
BFD00007FF00
BFD0001FFE00
BFD001BFFD00
BFFFFFFFF800
BFFFFFFFF000
BFFFFFFF8000
BFFFFFFF0000
BFFFFFFF4000
BFD002FF8000
BFD001FFC000
BFD000FFE000
BFD0007FF000
BFD0003FF400
ENDCHAR
STARTCHAR S
ENCODING 83
SWIDTH 610 0
DWIDTH 22 0
BBX 20 26 1 0
BITMAP
0001555554
00BFFFFFFC
07FFFFFFFC
1FFFFFFFFC
3FFFFFFFFC
BFFFFFFFF8
FFE0000000
FFC0000000
FFC0000000
FFD0000000
BFF4000000
7FFFFFF900
3FFFFFFFD0
0FFFFFFFF4
02FFFFFFFC
006FFFFFFD
0000001FFE
00000007FF
00000003FF
00000007FF
0000001FFE
2FFFFFFFFD
2FFFFFFFF8
2FFFFFFFF0
2FFFFFFF80
2FFFFFF900
ENDCHAR
STARTCHAR T
ENCODING 84
SWIDTH 578 0
DWIDTH 21 0
BBX 21 26 0 0
BITMAP
155555555500
BFFFFFFFFF40
BFFFFFFFFF40
BFFFFFFFFF40
BFFFFFFFFF40
BFFFFFFFFF40
0000FFC00000
0000FFC00000
0000FFC00000
0000FFC00000
0000FFC00000
0000FFC00000
0000FFC00000
0000FFC00000
0000FFC00000
0000FFC00000
0000FFC00000
0000FFC00000
0000FFC00000
0000FFC00000
0000FFC00000
0000FFC00000
0000FFC00000
0000FFC00000
0000FFC00000
0000FFC00000
ENDCHAR
STARTCHAR U
ENCODING 85
SWIDTH 673 0
DWIDTH 24 0
BBX 21 26 2 0
BITMAP
554000015500
FFC00002FF40
FFC00002FF40
FFC00002FF40
FFC00002FF40
FFC00002FF40
FFC00002FF40
FFC00002FF40
FFC00002FF40
FFC00002FF40
FFC00002FF40
FFC00002FF40
FFC00002FF40
FFC00002FF40
FFC00002FF40
FFC00002FF40
FFC00003FF00
BFD00003FF00
BFE0000BFF00
7FF8001FFE00
2FFE41BFFC00
1FFFFFFFF800
07FFFFFFE000
01FFFFFF8000
006FFFFD0000
0006FF900000
ENDCHAR
STARTCHAR V
ENCODING 86
SWIDTH 602 0
DWIDTH 22 0
BBX 22 26 0 0
BITMAP
554000005540
BFF00001FFD0
7FF40002FFC0
3FF80003FF80
2FFC0007FF40
1FFD000BFF00
0FFD000FFE00
0BFE001FFD00
07FF001FFC00
03FF402FF800
02FF803FF400
01FFC07FF000
00FFD0BFE000
00BFE0FFD000
007FF1FFC000
003FF2FF8000
002FF7FF4000
002FFFFF0000
001FFFFE0000
000FFFFD0000
000BFFFC0000
0007FFF80000
0003FFF40000
0002FFF00000
0001FFE00000
0000FFD00000
ENDCHAR
STARTCHAR W
ENCODING 87
SWIDTH 819 0
DWIDTH 30 0
BBX 26 27 2 -1
BITMAP
55400154001540
FFD00BFD00BFD0
FFD00BFD00BFD0
FFD00BFD00BFD0
FFD00BFD00BFD0
FFD00BFD00BFD0
FFD00BFD00BFD0
FFD00BFD00BFD0
FFD00BFD00BFD0
FFD00BFD00BFD0
FFD00BFD00BFD0
FFD00BFD00BFD0
FFD00BFD00BFD0
FFD00BFD00BFD0
FFD00BFD00BFD0
FFD00BFD00BFD0
FFD00BFD00BFD0
FFD00BFD00BFD0
FFD00BFD00BFD0
BFD00FFD00BFD0
BFF02FFF01FFC0
7FFEFFFFEBFF80
2FFFFFFFFFFF40
1FFFFFFFFFFE00
07FFFFBFFFF800
00BFF90BFF9000
00054000540000
ENDCHAR
STARTCHAR X
ENCODING 88
SWIDTH 608 0
DWIDTH 22 0
BBX 22 26 0 0
BITMAP
555000005550
BFF40002FFD0
3FFC0007FFC0
1FFE000BFF40
0BFF401FFE00
03FFC03FFC00
01FFD0BFF400
00FFF1FFE000
007FFAFFD000
002FFFFF8000
000FFFFF0000
0007FFFD0000
0002FFF80000
0001FFF40000
0003FFFC0000
000BFFFD0000
001FFFFF0000
002FFFFF8000
007FFAFFD000
00FFF0FFF000
02FFD07FF800
07FF803FFD00
0BFF401FFE00
1FFE000BFF40
3FFC0003FFC0
BFF40002FFE0
ENDCHAR
STARTCHAR Y
ENCODING 89
SWIDTH 620 0
DWIDTH 22 0
BBX 21 26 1 0
BITMAP
554000005500
FFC00002FF40
FFC00002FF40
FFC00002FF40
FFC00002FF40
FFC00002FF40
FFC00002FF40
FFC00002FF40
FFC00002FF40
FFD00003FF00
BFE00007FF00
7FF4000FFE00
3FFD007FFD00
1FFFEAFFF800
0BFFFFFFF000
03FFFFFFD000
00BFFFFF4000
001BFFE40000
0001FF800000
0001FF800000
0001FF800000
0001FF800000
0001FF800000
0001FF800000
0001FF800000
0001FF800000
ENDCHAR
STARTCHAR Z
ENCODING 90
SWIDTH 586 0
DWIDTH 21 0
BBX 21 26 0 0
BITMAP
155555555500
7FFFFFFFFF00
7FFFFFFFFD00
7FFFFFFFFC00
7FFFFFFFF400
3FFFFFFFE000
000002FFD000
000007FF8000
00000BFF4000
00001FFE0000
00003FFD0000
00007FF80000
0000FFF00000
0002FFE00000
0003FFC00000
000BFF800000
000FFF000000
002FFD000000
007FFC000000
00BFF4000000
01FFF0000000
02FFFFFFFF40
07FFFFFFFF40
0BFFFFFFFF40
1FFFFFFFFF40
3FFFFFFFFF40
ENDCHAR
STARTCHAR bracketleft
ENCODING 91
SWIDTH 380 0
DWIDTH 14 0
BBX 11 33 2 -4
BITMAP
AAAAA4
BFFFF4
BFFFF4
BFFFF4
BFFFF4
BFD550
BFD000
BFD000
BFD000
BFD000
BFD000
BFD000
BFD000
BFD000
BFD000
BFD000
BFD000
BFD000
BFD000
BFD000
BFD000
BFD000
BFD000
BFD000
BFD000
BFD000
BFD000
BFE554
BFFFF4
BFFFF4
BFFFF4
BFFFF4
6AAAA4
ENDCHAR
STARTCHAR backslash
ENCODING 92
SWIDTH 490 0
DWIDTH 18 0
BBX 16 26 1 0
BITMAP
55400000
BFD00000
7FF00000
3FF40000
1FF80000
0FFC0000
0BFE0000
07FF0000
02FF4000
01FF8000
00FFD000
00BFE000
003FF000
002FF400
001FFC00
000FFD00
000BFE00
0003FF00
0002FF80
0001FFC0
0000FFD0
00007FE0
00003FF4
00002FF8
00001FFC
00000BFD
ENDCHAR
STARTCHAR bracketright
ENCODING 93
SWIDTH 380 0
DWIDTH 14 0
BBX 11 33 1 -4
BITMAP
AAAAA4
BFFFF4
BFFFF4
BFFFF4
BFFFF4
156FF4
002FF4
002FF4
002FF4
002FF4
002FF4
002FF4
002FF4
002FF4
002FF4
002FF4
002FF4
002FF4
002FF4
002FF4
002FF4
002FF4
002FF4
002FF4
002FF4
002FF4
002FF4
556FF4
BFFFF4
BFFFF4
BFFFF4
BFFFF4
6AAAA4
ENDCHAR
STARTCHAR asciicircum
ENCODING 94
SWIDTH 293 0
DWIDTH 11 0
BBX 11 8 0 17
BITMAP
00B000
02FD00
0BFF40
2FFFD0
BFFFF4
7F4BF0
1D02D0
000040
ENDCHAR
STARTCHAR underscore
ENCODING 95
SWIDTH 598 0
DWIDTH 22 0
BBX 15 6 3 -9
BITMAP
55555554
BFFFFFFC
BFFFFFFC
BFFFFFFC
BFFFFFFC
55555554
ENDCHAR
STARTCHAR grave
ENCODING 96
SWIDTH 225 0
DWIDTH 8 0
BBX 8 7 0 18
BITMAP
0A00
1F80
7FE0
BFF8
1FFE
02FE
0078
ENDCHAR
STARTCHAR a
ENCODING 97
SWIDTH 607 0
DWIDTH 22 0
BBX 19 21 1 -1
BITMAP
0001650000
006FFFD018
01FFFFF87C
0BFFFFFFFC
1FFFFFFFFC
3FFE57FFFC
7FF400BFFC
BFD0002FFC
FFC0001FFC
FF80000FFC
FF80000BFC
FF80000FFC
FFC0001FFC
BFE0002FFC
7FF400BFFC
3FFF9BFFFC
1FFFFFFFFC
0BFFFFFEFC
01FFFFF87C
002FFF901C
0000540000
ENDCHAR
STARTCHAR b
ENCODING 98
SWIDTH 597 0
DWIDTH 22 0
BBX 20 28 1 -1
BITMAP
5540000000
BFD0000000
BFD0000000
BFD0000000
BFD0000000
BFD0000000
BFD0000000
BFD0594000
BFDBFFF400
BFFFFFFE00
BFFFFFFFC0
BFFFFFFFE0
BFFF96FFF4
BFFD002FFC
BFF4000FFD
BFE0000BFD
BFD00007FE
BFD00007FE
7FD00007FE
7FE0000BFD
3FF4001FFD
2FFD007FFC
1FFFAAFFF4
0BFFFFFFE0
02FFFFFFC0
00BFFFFE00
001BFFE400
0000550000
ENDCHAR
STARTCHAR c
ENCODING 99
SWIDTH 521 0
DWIDTH 19 0
BBX 18 21 0 -1
BITMAP
0000594000
000BFFF800
007FFFFF40
01FFFFFFD0
07FFFFFFF0
0BFF95FFE0
1FFD002F80
2FF8000A00
3FF0000000
3FE0000000
7FE0000000
3FE0000000
3FF0000000
2FF8000900
1FFD002F40
0FFFEAFFD0
07FFFFFFF0
01FFFFFFD0
007FFFFE40
000BFFE400
0000150000
ENDCHAR
STARTCHAR d
ENCODING 100
SWIDTH 606 0
DWIDTH 22 0
BBX 20 28 0 -1
BITMAP
0000000155
00000002FF
00000002FF
00000002FF
00000002FF
00000002FF
00000002FF
00005942FF
000BFFF6FF
007FFFFFFF
02FFFFFFFF
07FFFFFFFF
0FFF95FFFF
1FFD002FFF
2FF4000BFF
3FF00007FF
3FE00003FF
7FE00003FF
3FE00003FF
3FF00007FF
2FF8000BFF
1FFE002FFF
0FFFE6FFFF
07FFFFFFFF
01FFFFFFBF
007FFFFE1F
000BFFE40B
0000150000
ENDCHAR
STARTCHAR e
ENCODING 101
SWIDTH 524 0
DWIDTH 19 0
BBX 17 21 1 -1
BITMAP
0001650000
006FFFE000
01FFFFFD00
0BFFFFFF40
1FFFFFFFC0
3FFE5BFF80
7FF40FFE00
BFD02FF800
FFC07FF000
FF81FFD000
FF83FF4000
FF8BFE0000
FFEFF80000
BFFFE02800
7FFFC0BD00
3FFF9BFF40
1FFFFFFFC0
07FFFFFF40
01FFFFF900
002FFF9000
0000540000
ENDCHAR
STARTCHAR f
ENCODING 102
SWIDTH 395 0
DWIDTH 14 0
BBX 15 28 0 0
BITMAP
0000AFFC
0007FFFC
002FFFFC
007FFFFC
00FFFEA8
01FFD000
02FF4000
02FF0000
03FF0000
6BFFAAA0
7FFFFFE0
7FFFFFE0
7FFFFFE0
7FFFFFE0
03FF0000
03FF0000
03FF0000
03FF0000
03FF0000
03FF0000
03FF0000
03FF0000
03FF0000
03FF0000
03FF0000
03FF0000
03FF0000
03FF0000
ENDCHAR
STARTCHAR g
ENCODING 103
SWIDTH 607 0
DWIDTH 22 0
BBX 19 28 1 -8
BITMAP
0001650000
002FFFD018
01FFFFF87C
07FFFFFFFC
1FFFFFFFFC
3FFE57FFFC
7FF400BFFC
BFD0002FFC
FFC0001FFC
FF80000FFC
FF80000BFC
FF80000FFC
FFC0001FFC
BFE0002FFC
7FF400BFFC
3FFF9BFFFC
1FFFFFFFFC
0BFFFFFFFC
01FFFFFFFC
002FFFEFFC
0000542FF8
000000BFF4
0002ABFFE0
0003FFFFC0
0003FFFF40
0003FFF800
0003FF9000
0001500000
ENDCHAR
STARTCHAR h
ENCODING 104
SWIDTH 562 0
DWIDTH 20 0
BBX 18 27 1 0
BITMAP
1550000000
7FE0000000
7FE0000000
7FE0000000
7FE0000000
7FE0000000
7FE0000000
7FE0100000
7FEBFF8000
7FFFFFF400
7FFFFFFD00
7FFFFFFF40
7FFFAFFF80
7FFD02FFC0
7FF000BFD0
7FE0007FE0
7FE0007FE0
7FE0007FE0
7FE0007FE0
7FE0007FE0
7FE0007FE0
7FE0007FE0
7FE0007FE0
7FE0007FE0
7FE0007FE0
7FE0007FE0
7FE0007FE0
ENDCHAR
STARTCHAR i
ENCODING 105
SWIDTH 235 0
DWIDTH 8 0
BBX 7 27 1 0
BITMAP
2F90
7FF0
FFF4
FFF4
BFF0
2FD0
0100
0000
2AA0
7FE0
7FE0
7FE0
7FE0
7FE0
7FE0
7FE0
7FE0
7FE0
7FE0
7FE0
7FE0
7FE0
7FE0
7FE0
7FE0
7FE0
7FE0
ENDCHAR
STARTCHAR j
ENCODING 106
SWIDTH 237 0
DWIDTH 9 0
BBX 14 35 -6 -8
BITMAP
00007F40
0001FFC0
0002FFD0
0002FFE0
0001FFD0
0000BF40
00000400
00000000
0000AA80
0000FF80
0000FF80
0000FF80
0000FF80
0000FF80
0000FF80
0000FF80
0000FF80
0000FF80
0000FF80
0000FF80
0000FF80
0000FF80
0000FF80
0000FF80
0000FF80
0001FF80
0002FF80
0007FF40
001FFF00
6ABFFD00
7FFFF800
7FFFE000
7FFF4000
7FF80000
14000000
ENDCHAR
STARTCHAR k
ENCODING 107
SWIDTH 539 0
DWIDTH 19 0
BBX 18 27 1 0
BITMAP
1550000000
7FE0000000
7FE0000000
7FE0000000
7FE0000000
7FE0000000
7FE0000000
7FE0000000
7FE0006AA0
7FE001FFD0
7FE003FF80
7FE00BFE00
7FE02FFC00
7FE07FF400
7FE1FFD000
7FE3FF8000
7FEBFF4000
7FFFFFC000
7FFFFFD000
7FFFFFF000
7FFFAFF800
7FFF1FFD00
7FFD0BFE00
7FF403FF40
7FE002FFC0
7FE000FFD0
7FE0007FF0
ENDCHAR
STARTCHAR l
ENCODING 108
SWIDTH 235 0
DWIDTH 8 0
BBX 6 27 1 0
BITMAP
1550
7FE0
7FE0
7FE0
7FE0
7FE0
7FE0
7FE0
7FE0
7FE0
7FE0
7FE0
7FE0
7FE0
7FE0
7FE0
7FE0
7FE0
7FE0
7FE0
7FE0
7FE0
7FE0
7FE0
7FE0
7FE0
7FE0
ENDCHAR
STARTCHAR m
ENCODING 109
SWIDTH 762 0
DWIDTH 27 0
BBX 25 19 1 0
BITMAP
246FF806FF8000
7EFFFF6FFFF400
7FFFFFFFFFFC00
7FFFFFFFFFFE00
7FFEBFFFEFFF40
7FF41FFE02FF80
7FE00BFD00FF80
7FE00BFD00FF80
7FE00BFD00FF80
7FE00BFD00FF80
7FE00BFD00FF80
7FE00BFD00FF80
7FE00BFD00FF80
7FE00BFD00FF80
7FE00BFD00FF80
7FE00BFD00FF80
7FE00BFD00FF80
7FE00BFD00FF80
7FE00BFD00FF80
ENDCHAR
STARTCHAR n
ENCODING 110
SWIDTH 562 0
DWIDTH 20 0
BBX 18 20 1 0
BITMAP
0000100000
241BFF8000
7DBFFFF400
7FFFFFFD00
7FFFFFFF40
7FFFAFFF80
7FFD02FFC0
7FF000BFD0
7FE0007FE0
7FE0003FE0
7FE0003FE0
7FE0003FE0
7FE0003FE0
7FE0003FE0
7FE0003FE0
7FE0003FE0
7FE0003FE0
7FE0003FE0
7FE0003FE0
7FE0003FE0
ENDCHAR
STARTCHAR o
ENCODING 111
SWIDTH 579 0
DWIDTH 21 0
BBX 20 21 0 -1
BITMAP
0000594000
000BFFF800
007FFFFF40
02FFFFFFD0
07FFFFFFF4
0FFF95BFF8
1FFD001FFD
2FF4000BFE
3FF00003FF
3FE00003FF
7FE00003FF
3FE00003FF
3FF00007FE
2FF8000BFE
1FFE002FFD
0FFFE6FFF8
07FFFFFFF0
01FFFFFFD0
007FFFFE00
0007FFE400
0000150000
ENDCHAR
STARTCHAR p
ENCODING 112
SWIDTH 608 0
DWIDTH 22 0
BBX 20 28 1 -8
BITMAP
0000554000
2407FFF800
7C2FFFFF40
7FFFFFFFD0
7FFFFFFFF4
7FFF95BFFC
7FFD001FFD
7FF4000BFE
7FF00003FF
7FE00002FF
7FE00002FF
7FE00003FF
7FF00003FF
7FF8000BFE
7FFE002FFD
7FFFE6FFFC
7FFFFFFFF4
7FFFFFFFD0
7FFFFFFF40
7FE6FFF800
7FE0154000
7FE0000000
7FE0000000
7FE0000000
7FE0000000
7FE0000000
7FE0000000
1540000000
ENDCHAR
STARTCHAR q
ENCODING 113
SWIDTH 607 0
DWIDTH 22 0
BBX 19 28 1 -8
BITMAP
0001550000
006FFF9018
01FFFFF87C
0BFFFFFFFC
1FFFFFFFFC
3FFE57FFFC
7FF400BFFC
BFD0002FFC
FFC0001FFC
FF80000FFC
FF80000BFC
FF80000FFC
FFC0001FFC
BFE0002FFC
7FF400BFFC
3FFF9BFFFC
1FFFFFFFFC
07FFFFFFFC
01FFFFFFFC
002FFF8BFC
0001540BFC
0000000BFC
0000000BFC
0000000BFC
0000000BFC
0000000BFC
0000000BFC
0000000154
ENDCHAR
STARTCHAR r
ENCODING 114
SWIDTH 414 0
DWIDTH 15 0
BBX 14 19 1 0
BITMAP
2406AA90
7C7FFFE0
7FFFFFE0
7FFFFFE0
7FFFFFD0
7FFD0000
7FF40000
7FE00000
7FE00000
7FE00000
7FE00000
7FE00000
7FE00000
7FE00000
7FE00000
7FE00000
7FE00000
7FE00000
7FE00000
ENDCHAR
STARTCHAR s
ENCODING 115
SWIDTH 523 0
DWIDTH 19 0
BBX 17 19 1 0
BITMAP
00AAAAAA00
0BFFFFFF00
2FFFFFFF00
3FFFFFFF00
BFFFFFFF00
BFD0000000
BFC0000000
BFEAAA4000
7FFFFFF800
2FFFFFFE00
0FFFFFFF40
02FFFFFFC0
000555FFC0
000000BFC0
AAAAABFFC0
BFFFFFFF80
BFFFFFFF00
BFFFFFFD00
BFFFFF9000
ENDCHAR
STARTCHAR t
ENCODING 116
SWIDTH 437 0
DWIDTH 16 0
BBX 15 27 0 0
BITMAP
01550000
03FE0000
03FE0000
03FE0000
03FE0000
03FE0000
03FE0000
03FE0000
6BFFAAA8
7FFFFFFC
7FFFFFFC
7FFFFFFC
7FFFFFFC
03FE0000
03FE0000
03FE0000
03FE0000
03FE0000
03FE0000
03FE0000
03FF4000
02FFD000
00FFFEA8
00BFFFFC
002FFFFC
0007FFFC
0000AFFC
ENDCHAR
STARTCHAR u
ENCODING 117
SWIDTH 562 0
DWIDTH 20 0
BBX 18 20 1 -1
BITMAP
6A90006A90
7FD0007FD0
7FD0007FD0
7FD0007FD0
7FD0007FD0
7FD0007FD0
7FD0007FD0
7FD0007FD0
7FD0007FD0
7FD0007FD0
7FD0007FD0
7FD000BFD0
7FE000FFD0
3FF402FFD0
2FFEAFFFD0
0FFFFFFFD0
07FFFFFFD0
01FFFFE2D0
002FFE40D0
0001500000
ENDCHAR
STARTCHAR v
ENCODING 118
SWIDTH 532 0
DWIDTH 19 0
BBX 19 19 0 0
BITMAP
AAA0001AA8
7FF0002FF8
3FF4003FF4
2FF8007FF0
1FFC00FFE0
0FFD01FFC0
0BFE02FF80
07FF03FF40
02FF47FF00
01FF8BFE00
00FFCFFD00
00BFEFFC00
007FFFF400
003FFFF000
002FFFE000
000FFFD000
000BFFC000
0007FF8000
0003FF4000
ENDCHAR
STARTCHAR w
ENCODING 119
SWIDTH 756 0
DWIDTH 27 0
BBX 25 20 1 -1
BITMAP
6A900AA800AA40
7FD00BFC01FF80
7FD00BFC01FF80
7FD00BFC01FF80
7FD00BFC01FF80
7FD00BFC01FF80
7FD00BFC01FF80
7FD00BFC01FF80
7FD00BFC01FF80
7FD00BFC01FF80
7FD00BFC01FF80
7FD00BFC01FF80
7FE00BFC01FF80
7FF01FFD02FF40
3FFEBFFF9BFF40
2FFFFFFFFFFE00
0BFFFFFFFFFD00
02FFFFBFFFF400
00BFF91BFF8000
00054000540000
ENDCHAR
STARTCHAR x
ENCODING 120
SWIDTH 528 0
DWIDTH 19 0
BBX 19 19 0 0
BITMAP
BFF0003FF8
3FF800BFF0
1FFD01FFD0
0BFF43FF80
02FFCBFE00
00FFFFFC00
007FFFF400
002FFFE000
000BFFC000
0007FF4000
000FFFC000
002FFFE000
007FFFF800
01FFEFFD00
03FF8BFF00
0BFF03FF80
1FFD01FFD0
3FF800BFF0
BFF0003FF8
ENDCHAR
STARTCHAR y
ENCODING 121
SWIDTH 562 0
DWIDTH 20 0
BBX 18 27 1 -8
BITMAP
6A90006A90
7FD0007FD0
7FD0007FD0
7FD0007FD0
7FD0007FD0
7FD0007FD0
7FD0007FD0
7FD0007FD0
7FD0007FD0
7FD0007FD0
7FD0007FD0
7FD000BFD0
7FE000FFD0
3FF402FFD0
2FFEAFFFD0
0FFFFFFFD0
07FFFFFFD0
01FFFFFFD0
002FFEFFD0
000151FFC0
000007FF80
001ABFFF00
002FFFFD00
002FFFF400
002FFFD000
002FF90000
0005000000
ENDCHAR
STARTCHAR z
ENCODING 122
SWIDTH 481 0
DWIDTH 17 0
BBX 17 19 0 0
BITMAP
2AAAAAAA40
7FFFFFFE00
7FFFFFFD00
7FFFFFF800
7FFFFFF000
0000BFE000
0000FFC000
0002FF4000
0007FE0000
000BFD0000
001FF80000
003FF00000
00BFE00000
00FFC00000
02FFEAAA40
07FFFFFF80
0BFFFFFF80
1FFFFFFF80
3FFFFFFF80
ENDCHAR
STARTCHAR braceleft
ENCODING 123
SWIDTH 466 0
DWIDTH 17 0
BBX 16 33 0 -4
BITMAP
00006AA9
0002FFFD
000BFFFD
001FFFFD
002FFFFD
002FF954
002FF400
002FF400
002FF400
002FF400
002FF400
002FF400
003FF400
15BFF000
7FFFE000
7FFF8000
7FFF4000
7FFFD000
6AFFE000
007FF400
002FF400
002FF400
002FF400
002FF400
002FF400
002FF400
002FF400
002FF955
002FFFFD
001FFFFD
000BFFFD
0002FFFD
00005AA9
ENDCHAR
STARTCHAR bar
ENCODING 124
SWIDTH 267 0
DWIDTH 10 0
BBX 6 33 2 -4
BITMAP
AA90
BFD0
BFD0
BFD0
BFD0
BFD0
BFD0
BFD0
BFD0
BFD0
BFD0
BFD0
BFD0
BFD0
BFD0
BFD0
BFD0
BFD0
BFD0
BFD0
BFD0
BFD0
BFD0
BFD0
BFD0
BFD0
BFD0
BFD0
BFD0
BFD0
BFD0
BFD0
6A90
ENDCHAR
STARTCHAR braceright
ENCODING 125
SWIDTH 466 0
DWIDTH 17 0
BBX 15 33 1 -4
BITMAP
AAA90000
BFFF8000
BFFFE000
BFFFF000
BFFFF400
156FF400
002FF400
002FF400
002FF400
002FF400
002FF400
002FF400
002FF800
001FFE54
000BFFFC
0002FFFC
0001FFFC
0007FFFC
000FFFA8
001FFC00
002FF800
002FF400
002FF400
002FF400
002FF400
002FF400
002FF400
556FF400
BFFFF400
BFFFF000
BFFFD000
BFFF4000
6AA40000
ENDCHAR
STARTCHAR asciitilde
ENCODING 126
SWIDTH 451 0
DWIDTH 16 0
BBX 14 7 1 10
BITMAP
01900580
1FFD1FD0
2FFF5FE0
3FFFFFD0
7FEFFFD0
3F83FF80
2FC0BE00
ENDCHAR
STARTCHAR nonbreakingspace
ENCODING 160
SWIDTH 279 0
DWIDTH 10 0
BBX 1 1 0 0
BITMAP
00
ENDCHAR
STARTCHAR exclamdown
ENCODING 161
SWIDTH 274 0
DWIDTH 10 0
BBX 6 27 2 -5
BITMAP
0500
7F80
BFE0
FFF0
FFE0
7FD0
1A40
0000
3FC0
3FC0
3FC0
7FC0
7FC0
7FD0
7FD0
7FD0
7FD0
BFD0
BFE0
BFE0
BFE0
BFE0
BFE0
FFE0
FFF0
FFF0
FFF0
ENDCHAR
STARTCHAR cent
ENCODING 162
SWIDTH 462 0
DWIDTH 17 0
BBX 15 26 1 0
BITMAP
00015000
000BE000
000BE000
000BE000
000BE000
002FF800
01FFFF80
07FFFFE0
1FFFFFF4
2FF41BD0
3FD00340
7F800000
BF400000
BF400000
7F800000
7FC00240
2FF41BD0
1FFFFFF0
07FFFFE0
01FFFF40
001FF400
000BE000
000BE000
000BE000
000BE000
000BE000
ENDCHAR
STARTCHAR sterling
ENCODING 163
SWIDTH 681 0
DWIDTH 25 0
BBX 23 26 1 0
BITMAP
000001400000
0001BFD00000
000BFFD00000
002FFFD00000
007FFFD00000
00FFFFD00000
00FFE0000000
01FF80000000
01FF80000000
01FF80000000
01FF80000000
16FF95000000
7FFFFF000000
7FFFFF000000
7FFFFF000000
7FFFFF000000
16FF95000000
01FF80000000
01FF80001AA4
01FF80003FF4
01FF8001BFF0
01FFFFFFFFE0
01FFFFFFFFC0
01FFFFFFFF40
01FFFFFFFD00
01FFFFFF9000
ENDCHAR
STARTCHAR currency
ENCODING 164
SWIDTH 454 0
DWIDTH 16 0
BBX 14 15 1 5
BITMAP
00000040
2D0002D0
BF7FEBF0
BFFFFFE0
2FFFFF80
0FD07F40
1F801F80
2F400FC0
2F400FC0
1F801F80
0FE07F40
2FFFFFD0
BFFFFFF0
7E6A9BE0
18000280
ENDCHAR
STARTCHAR yen
ENCODING 165
SWIDTH 653 0
DWIDTH 24 0
BBX 21 26 1 0
BITMAP
154000005540
7FE00001FFC0
7FE00001FFC0
7FE00001FFC0
7FE00001FFC0
7FE00001FFC0
7FE00001FFC0
7FE00001FFC0
7FE00001FF80
7FF00001FF80
3FF40002FF80
2FF80007FF40
1FFE401FFF00
0BFFEAFFFD00
03FFFFFFF800
01FFFFFFE000
057FFFFF9500
1FFFFFFFFF00
1FFFFFFFFF00
1FFFFFFFFF00
1FFFFFFFFF00
1555FFE55500
0000BFD00000
0000BFD00000
0000BFD00000
0000BFD00000
ENDCHAR
STARTCHAR brokenbar
ENCODING 166
SWIDTH 269 0
DWIDTH 10 0
BBX 6 33 2 -4
BITMAP
AA90
BFD0
BFD0
BFD0
BFD0
BFD0
BFD0
BFD0
BFD0
BFD0
BFD0
BFD0
BFD0
BFD0
6A90
0000
0000
0000
AA90
BFD0
BFD0
BFD0
BFD0
BFD0
BFD0
BFD0
BFD0
BFD0
BFD0
BFD0
BFD0
BFD0
6A90
ENDCHAR
STARTCHAR section
ENCODING 167
SWIDTH 569 0
DWIDTH 21 0
BBX 17 26 2 0
BITMAP
0005555400
06FFFFFD00
1FFFFFFD00
3FFFFFFD00
BFFFFFFD00
FFEAAAA900
FF80000000
FFEAAA4000
BFFFFFF400
7FFFFFFD00
7FFFFFFF00
BFFFFFFF80
FFD555FF80
FF8000FFC0
FFE556FF80
BFFFFFFF40
7FFFFFFF00
1FFFFFFF40
07FFFFFF80
005556FF80
000000FFC0
AAAAABFF80
FFFFFFFF40
FFFFFFFF00
FFFFFFFC00
FFFFFF9000
ENDCHAR
STARTCHAR dieresis
ENCODING 168
SWIDTH 300 0
DWIDTH 11 0
BBX 11 5 0 19
BITMAP
140050
BF03F4
FF47F8
BF47F8
6E02E0
ENDCHAR
STARTCHAR copyright
ENCODING 169
SWIDTH 655 0
DWIDTH 24 0
BBX 21 21 1 2
BITMAP
0001AA900000
001BFFFE0000
00BFFAFFD000
02FE001BF400
07E06A81FC00
0FC2FFF87E00
2F4FFAF42F40
3E2F80200F80
7D3E00000B80
7D7C00000BC0
7C7C00000BC0
7D7C00000BC0
7D3E00000B80
3E2F80200F40
2F4FFAF42F00
0FC2FFF87E00
07F46A82FC00
01FE401FF400
007FFFFFC000
000BFFFD0000
00005A500000
ENDCHAR
STARTCHAR ordfeminine
ENCODING 170
SWIDTH 451 0
DWIDTH 16 0
BBX 12 18 2 8
BITMAP
016900
0BFF8A
2FFFFE
7F97FE
BE00FE
FC007E
FC007E
BD00BE
BE01FE
3FEBFE
1FFFEE
07FF4A
001400
000000
555555
FFFFFE
FFFFFE
555555
ENDCHAR
STARTCHAR guillemotleft
ENCODING 171
SWIDTH 704 0
DWIDTH 25 0
BBX 23 18 1 0
BITMAP
0000E0000780
0002F8000FE0
000BFE003FF8
002FFD00FFF4
00BFF403FFD0
02FFD00FFF40
0BFF402FFD00
2FFD00BFF400
BFF402FFD000
BFF802FFD000
2FFE00BFF800
0BFF802FFE00
01FFF00BFF80
007FFD02FFE0
001FFE00BFF8
0007FC001FE0
0001F40007C0
000050000100
ENDCHAR
STARTCHAR logicalnot
ENCODING 172
SWIDTH 529 0
DWIDTH 19 0
BBX 15 9 2 6
BITMAP
FFFFFFFC
FFFFFFFC
FFFFFFFC
FFFFFFFC
AAAAAFFC
00000FFC
00000FFC
00000FFC
00000554
ENDCHAR
STARTCHAR uni00AD
ENCODING 173
SWIDTH 418 0
DWIDTH 15 0
BBX 11 5 2 10
BITMAP
FFFFFC
FFFFFC
FFFFFC
FFFFFC
AAAAA8
ENDCHAR
STARTCHAR registered
ENCODING 174
SWIDTH 439 0
DWIDTH 16 0
BBX 14 14 1 12
BITMAP
00154000
01FFF400
0BD5BE00
1EAA4B40
38FBE3C0
74E0B1D0
B0E075D0
B0E0B1D0
74FFD1D0
38F6C2C0
2DA0EB80
0F906E00
02FFF800
006A4000
ENDCHAR
STARTCHAR macron
ENCODING 175
SWIDTH 247 0
DWIDTH 9 0
BBX 9 4 0 19
BITMAP
FFFFC0
FFFFC0
FFFFC0
AAAA80
ENDCHAR
STARTCHAR degree
ENCODING 176
SWIDTH 381 0
DWIDTH 14 0
BBX 12 12 1 13
BITMAP
006900
07FFD0
1FFFF4
3FFFFC
7F97FD
BF01FD
BF01FD
7F97FD
3FFFF8
1FFFF4
07FF90
005500
ENDCHAR
STARTCHAR plusminus
ENCODING 177
SWIDTH 516 0
DWIDTH 19 0
BBX 15 20 2 0
BITMAP
00154000
003FE000
003FE000
003FE000
007FE000
FFFFFFF8
FFFFFFF8
FFFFFFF8
FFFFFFF8
AABFFAA4
003FE000
003FE000
003FE000
00155000
00000000
AAAAAAA8
FFFFFFF8
FFFFFFF8
FFFFFFF8
FFFFFFF8
ENDCHAR
STARTCHAR twosuperior
ENCODING 178
SWIDTH 355 0
DWIDTH 13 0
BBX 9 13 2 13
BITMAP
155000
BFFD00
BFFF40
BFFF80
156FC0
0ABFC0
3FFF80
BFFE00
FFA400
FE5540
FFFF80
FFFF80
FFFF80
ENDCHAR
STARTCHAR threesuperior
ENCODING 179
SWIDTH 354 0
DWIDTH 13 0
BBX 9 14 2 12
BITMAP
554000
FFFD00
FFFF40
FFFFC0
556FC0
1ABFC0
2FFF80
2FFF80
1ABFC0
556FC0
FFFFC0
FFFF40
FFFD00
554000
ENDCHAR
STARTCHAR acute
ENCODING 180
SWIDTH 225 0
DWIDTH 8 0
BBX 8 7 0 18
BITMAP
00A0
02F8
0BFD
2FFE
BFF8
7F80
2D00
ENDCHAR
STARTCHAR mu
ENCODING 181
SWIDTH 571 0
DWIDTH 21 0
BBX 17 27 2 -8
BITMAP
AA8000AA80
BFC000BFC0
BFC000BFC0
BFC000BFC0
BFC000BFC0
BFC000BFC0
BFC000BFC0
BFC000BFC0
BFC000BFC0
BFC000BFC0
BFC000BFC0
BFC000FFC0
BFD001FFC0
BFF407FFC0
BFFE6FFFC0
BFFFFFFFC0
BFFFFFFFC0
BFFFFFD7C0
BFAFFE02C0
BF41500000
BF40000000
BF40000000
BF40000000
BF00000000
BF00000000
BF00000000
BF00000000
ENDCHAR
STARTCHAR paragraph
ENCODING 182
SWIDTH 808 0
DWIDTH 29 0
BBX 26 26 1 0
BITMAP
00000555555540
0006FFFFFFFFE0
006FFFFFFFFFE0
01FFFFFFFFFFE0
07FFFFFFFFFFE0
0FFFFFFFFFFFE0
2FFE42FF40BFE0
3FF802FF40BFE0
7FF002FF40BFE0
BFE002FF40BFE0
BFD002FF40BFE0
BFD002FF40BFE0
7FE002FF40BFE0
7FF402FF40BFE0
3FFC02FF40BFE0
1FFF53FF40BFE0
0FFFFFFF40BFE0
03FFFFFF40BFE0
01FFFFFF40BFE0
002FFFFF40BFE0
0001BFFF40BFE0
000002FF40BFE0
000002FF40BFE0
000002FF40BFE0
000002FF40BFE0
000002FF40BFE0
ENDCHAR
STARTCHAR periodcentered
ENCODING 183
SWIDTH 261 0
DWIDTH 9 0
BBX 7 7 1 9
BITMAP
0640
2FF0
3FF4
7FF8
3FF4
1FE0
0140
ENDCHAR
STARTCHAR cedilla
ENCODING 184
SWIDTH 208 0
DWIDTH 7 0
BBX 8 9 0 -8
BITMAP
02D0
03C0
07D0
0BF8
05FD
60FD
BFFD
FFF8
2FE0
ENDCHAR
STARTCHAR onesuperior
ENCODING 185
SWIDTH 231 0
DWIDTH 8 0
BBX 5 13 1 13
BITMAP
1540
7FC0
7FC0
7FC0
1FC0
1FC0
1FC0
1FC0
1FC0
1FC0
1FC0
1FC0
1FC0
ENDCHAR
STARTCHAR ordmasculine
ENCODING 186
SWIDTH 432 0
DWIDTH 16 0
BBX 12 18 2 8
BITMAP
01A900
0BFFD0
2FFFF4
7F97FC
BE00FD
FC007D
FC007E
FD00BD
BE01FC
3FEBF8
1FFFE0
06FF80
001400
000000
555555
FFFFFE
FFFFFE
555555
ENDCHAR
STARTCHAR guillemotright
ENCODING 187
SWIDTH 703 0
DWIDTH 25 0
BBX 23 18 1 0
BITMAP
0740001D0000
1FD0007F4000
7FF401FFD000
2FFD00FFF400
0BFF403FFC00
02FFD00FFF00
00BFF403FFC0
002FFD00FFF0
000BFF403FFC
001FFF407FFC
007FFD01FFE0
01FFF00BFF80
07FFC02FFE00
2FFE00BFF800
7FF801FFE000
2FE000BF8000
0B80002E0000
010000040000
ENDCHAR
STARTCHAR onequarter
ENCODING 188
SWIDTH 648 0
DWIDTH 23 0
BBX 21 26 1 0
BITMAP
055000055000
1FF0001FE000
1FF0002FC000
1FF0007F4000
07F000FF0000
07F001FD0000
07F003F80000
07F00BF40000
07F00FE00000
07F02FD00000
07F07F800000
07F0BF000000
07F1FE000000
0002FC550000
0007F4FE1500
000FF0FDBF00
001FD1FDBF00
003F81FCBF00
00BF41FCBF00
00FE02F8BF00
02FC02FEFF80
07F803FFFFC0
0BF003FFFFC0
1FD002AAFF80
3FC00000BF00
7F400000BF00
ENDCHAR
STARTCHAR onehalf
ENCODING 189
SWIDTH 637 0
DWIDTH 23 0
BBX 21 26 1 0
BITMAP
055000055000
1FF0001FE000
1FF0002FC000
1FF0007F4000
07F000FF0000
07F001FD0000
07F003F80000
07F00BF40000
07F00FE00000
07F02FD00000
07F07F800000
07F0BF000000
07F1FE000000
0002FC555000
0007F4FFFD00
000FF0FFFF00
001FD0FFFF40
003F80003F80
00BF401BFF40
00FE007FFF00
02FC00FFFD00
07F801FE5000
0BF001FD5500
1FD001FFFF40
3FC001FFFF40
7F4001FFFF40
ENDCHAR
STARTCHAR threequarters
ENCODING 190
SWIDTH 708 0
DWIDTH 26 0
BBX 24 26 1 0
BITMAP
155000001500
7FFE0000FE00
7FFFC002FD00
7FFFD003F800
155FE00BF000
0AAFE01FE000
0FFFD02FC000
0FFFD07F4000
0AAFE0FF0000
155FE1FD0000
7FFFD3F80000
7FFF8BF40000
7FFE0FE00000
15502FD55000
00007F8BE150
0000BF0FE7F0
0001FE0FD7F0
0002FC1FD7F0
0007F41FC7F0
000FF01FC7F0
001FD02FEBF8
003F802FFFFD
00BF403FFFFD
00FE002AAFF8
02FC000007F0
07F8000007F0
ENDCHAR
STARTCHAR questiondown
ENCODING 191
SWIDTH 602 0
DWIDTH 22 0
BBX 20 27 1 -5
BITMAP
0000004000
00000BF400
00001FFD00
00002FFD00
00001FFD00
00000FF800
0000019000
0000000000
00000FFC00
00000FFC00
00001FFC00
00007FF800
006FFFF400
02FFFFF000
0BFFFFD000
2FFFFF4000
3FFFE40000
BFF4000000
BFD0000000
BFD0000000
BFD0000000
BFF4000000
7FFFFFFFFD
2FFFFFFFFD
0BFFFFFFFD
02FFFFFFFD
006FFFFFFD
ENDCHAR
STARTCHAR Agrave
ENCODING 192
SWIDTH 673 0
DWIDTH 24 0
BBX 21 34 2 0
BITMAP
000900000000
002F40000000
007FE0000000
00FFF8000000
002FFE000000
0006FD000000
000078000000
000000000000
000000000000
0006FFE40000
007FFFFE0000
02FFFFFF8000
0BFFFFFFE000
1FFFFFFFF800
3FFE007FFD00
7FF4001FFE00
BFE00007FF00
BFD00003FF00
FFC00003FF40
FFC00002FF40
FFC00002FF40
FFC00002FF40
FFC00002FF40
FFC00003FF40
FFFFFFFFFF40
FFFFFFFFFF40
FFFFFFFFFF40
FFFFFFFFFF40
FFFFFFFFFF40
FFC00002FF40
FFC00002FF40
FFC00002FF40
FFC00002FF40
FFC00002FF40
ENDCHAR
STARTCHAR Aacute
ENCODING 193
SWIDTH 673 0
DWIDTH 24 0
BBX 21 34 2 0
BITMAP
000000700000
000001F80000
000007FE0000
00002FFF0000
0000BFF80000
00007FD00000
00001D000000
000000000000
000000000000
0006FFE40000
007FFFFE0000
02FFFFFF8000
0BFFFFFFE000
1FFFFFFFF800
3FFE007FFD00
7FF4001FFE00
BFE00007FF00
BFD00003FF00
FFC00003FF40
FFC00002FF40
FFC00002FF40
FFC00002FF40
FFC00002FF40
FFC00003FF40
FFFFFFFFFF40
FFFFFFFFFF40
FFFFFFFFFF40
FFFFFFFFFF40
FFFFFFFFFF40
FFC00002FF40
FFC00002FF40
FFC00002FF40
FFC00002FF40
FFC00002FF40
ENDCHAR
STARTCHAR Acircumflex
ENCODING 194
SWIDTH 673 0
DWIDTH 24 0
BBX 21 33 2 0
BITMAP
000028000000
0000BE000000
0002FF800000
000BFFE00000
001FFBF80000
000B82F00000
000200900000
000000000000
0006FFE40000
007FFFFE0000
02FFFFFF8000
0BFFFFFFE000
1FFFFFFFF800
3FFE007FFD00
7FF4001FFE00
BFE00007FF00
BFD00003FF00
FFC00003FF40
FFC00002FF40
FFC00002FF40
FFC00002FF40
FFC00002FF40
FFC00003FF40
FFFFFFFFFF40
FFFFFFFFFF40
FFFFFFFFFF40
FFFFFFFFFF40
FFFFFFFFFF40
FFC00002FF40
FFC00002FF40
FFC00002FF40
FFC00002FF40
FFC00002FF40
ENDCHAR
STARTCHAR Atilde
ENCODING 195
SWIDTH 673 0
DWIDTH 24 0
BBX 21 33 2 0
BITMAP
000A906A0000
003FF8BE0000
007FFEFF0000
00BFFFFE0000
00BF1FFD0000
007F07F40000
001400000000
000000000000
0006FFE40000
007FFFFE0000
02FFFFFF8000
0BFFFFFFE000
1FFFFFFFF800
3FFE007FFD00
7FF4001FFE00
BFE00007FF00
BFD00003FF00
FFC00003FF40
FFC00002FF40
FFC00002FF40
FFC00002FF40
FFC00002FF40
FFC00003FF40
FFFFFFFFFF40
FFFFFFFFFF40
FFFFFFFFFF40
FFFFFFFFFF40
FFFFFFFFFF40
FFC00002FF40
FFC00002FF40
FFC00002FF40
FFC00002FF40
FFC00002FF40
ENDCHAR
STARTCHAR Adieresis
ENCODING 196
SWIDTH 673 0
DWIDTH 24 0
BBX 21 31 2 0
BITMAP
000500500000
003F81FC0000
007FC2FD0000
003FC2FD0000
001F40B80000
000000000000
0006FFE40000
007FFFFE0000
02FFFFFF8000
0BFFFFFFE000
1FFFFFFFF800
3FFE007FFD00
7FF4001FFE00
BFE00007FF00
BFD00003FF00
FFC00003FF40
FFC00002FF40
FFC00002FF40
FFC00002FF40
FFC00002FF40
FFC00003FF40
FFFFFFFFFF40
FFFFFFFFFF40
FFFFFFFFFF40
FFFFFFFFFF40
FFFFFFFFFF40
FFC00002FF40
FFC00002FF40
FFC00002FF40
FFC00002FF40
FFC00002FF40
ENDCHAR
STARTCHAR Aring
ENCODING 197
SWIDTH 673 0
DWIDTH 24 0
BBX 21 31 2 0
BITMAP
0000BE000000
0002FFC00000
0007E7D00000
0007C2E00000
0007EBD00000
0002FFC00000
0006FFE00000
007FFFFE0000
02FFFFFFC000
0BFFFFFFF000
1FFFFFFFF800
3FFE007FFD00
7FF4001FFE00
BFE00007FF00
BFD00003FF00
FFC00003FF40
FFC00002FF40
FFC00002FF40
FFC00002FF40
FFC00002FF40
FFC00003FF40
FFFFFFFFFF40
FFFFFFFFFF40
FFFFFFFFFF40
FFFFFFFFFF40
FFFFFFFFFF40
FFC00002FF40
FFC00002FF40
FFC00002FF40
FFC00002FF40
FFC00002FF40
ENDCHAR
STARTCHAR AE
ENCODING 198
SWIDTH 988 0
DWIDTH 36 0
BBX 33 26 2 0
BITMAP
000005555555555500
0006FFFFFFFFFFFF40
007FFFFFFFFFFFFF40
02FFFFFFFFFFFFFF40
0BFFFFFFFFFFFFFF40
1FFFFFFFFFFFFFFF40
3FFE0003FF40000000
7FF40003FF40000000
BFE00003FF40000000
BFD00003FF40000000
FFC00003FF40000000
FFC00003FFFFFF4000
FFC00003FFFFFF4000
FFC00003FFFFFF4000
FFC00003FFFFFF4000
FFC00003FFFFFF4000
FFFFFFFFFF40000000
FFFFFFFFFF40000000
FFFFFFFFFF40000000
FFFFFFFFFF40000000
FFFFFFFFFF40000000
FFC00003FFFFFFFF40
FFC00003FFFFFFFF40
FFC00003FFFFFFFF40
FFC00003FFFFFFFF40
FFC00003FFFFFFFF40
ENDCHAR
STARTCHAR Ccedilla
ENCODING 199
SWIDTH 640 0
DWIDTH 23 0
BBX 22 34 1 -8
BITMAP
000005A50000
0001BFFFE400
000BFFFFFE00
007FFFFFFFD0
01FFFFFFFFC0
07FFFEABFF40
0FFFD0007E00
2FFE00000800
3FF800000000
7FF000000000
BFE000000000
FFD000000000
FFC000000000
FFC000000000
FFC000000000
FFD000000000
BFE000000000
7FF000000000
3FF800000000
2FFE00000800
0FFFD0007E00
07FFFEABFF40
01FFFFFFFFC0
007FFFFFFFD0
000BFFFFFE00
0001BFFFE400
00000FA50000
00001F400000
00002FE00000
000017F40000
000183F40000
0002FFF40000
0003FFE00000
0000BF800000
ENDCHAR
STARTCHAR Egrave
ENCODING 200
SWIDTH 578 0
DWIDTH 21 0
BBX 18 34 2 0
BITMAP
0018000000
007E000000
00FF800000
02FFF00000
007FFC0000
000BF80000
0001B00000
0000000000
1555555540
BFFFFFFFE0
BFFFFFFFE0
BFFFFFFFE0
BFFFFFFFE0
BFFFFFFFE0
BFD0000000
BFD0000000
BFD0000000
BFD0000000
BFD0000000
BFFFFFE000
BFFFFFE000
BFFFFFE000
BFFFFFE000
BFFFFFE000
BFD0000000
BFD0000000
BFD0000000
BFD0000000
BFD0000000
BFFFFFFFE0
BFFFFFFFE0
BFFFFFFFE0
BFFFFFFFE0
BFFFFFFFE0
ENDCHAR
STARTCHAR Eacute
ENCODING 201
SWIDTH 578 0
DWIDTH 21 0
BBX 18 34 2 0
BITMAP
000001C000
000007E000
00001FF400
0000BFFC00
0002FFE000
0001FE4000
0000740000
0000000000
1555555540
BFFFFFFFE0
BFFFFFFFE0
BFFFFFFFE0
BFFFFFFFE0
BFFFFFFFE0
BFD0000000
BFD0000000
BFD0000000
BFD0000000
BFD0000000
BFFFFFE000
BFFFFFE000
BFFFFFE000
BFFFFFE000
BFFFFFE000
BFD0000000
BFD0000000
BFD0000000
BFD0000000
BFD0000000
BFFFFFFFE0
BFFFFFFFE0
BFFFFFFFE0
BFFFFFFFE0
BFFFFFFFE0
ENDCHAR
STARTCHAR Ecircumflex
ENCODING 202
SWIDTH 578 0
DWIDTH 21 0
BBX 18 34 2 0
BITMAP
0000900000
0002F80000
000BFE0000
002FFF8000
00BFAFE000
002E0BC000
0008020000
0000000000
1555555540
BFFFFFFFE0
BFFFFFFFE0
BFFFFFFFE0
BFFFFFFFE0
BFFFFFFFE0
BFD0000000
BFD0000000
BFD0000000
BFD0000000
BFD0000000
BFFFFFE000
BFFFFFE000
BFFFFFE000
BFFFFFE000
BFFFFFE000
BFD0000000
BFD0000000
BFD0000000
BFD0000000
BFD0000000
BFFFFFFFE0
BFFFFFFFE0
BFFFFFFFE0
BFFFFFFFE0
BFFFFFFFE0
ENDCHAR
STARTCHAR Edieresis
ENCODING 203
SWIDTH 578 0
DWIDTH 21 0
BBX 18 32 2 0
BITMAP
0014014000
00FE0BF000
01FF0FF400
01FF0BF400
007906D000
0000000000
1555555540
BFFFFFFFE0
BFFFFFFFE0
BFFFFFFFE0
BFFFFFFFE0
BFFFFFFFE0
BFD0000000
BFD0000000
BFD0000000
BFD0000000
BFD0000000
BFFFFFE000
BFFFFFE000
BFFFFFE000
BFFFFFE000
BFFFFFE000
BFD0000000
BFD0000000
BFD0000000
BFD0000000
BFD0000000
BFFFFFFFE0
BFFFFFFFE0
BFFFFFFFE0
BFFFFFFFE0
BFFFFFFFE0
ENDCHAR
STARTCHAR Igrave
ENCODING 204
SWIDTH 270 0
DWIDTH 10 0
BBX 9 34 -1 0
BITMAP
0D0000
2F4000
BFD000
FFF800
2FFE00
07FD00
007400
000000
005500
02FF40
02FF40
02FF40
02FF40
02FF40
02FF40
02FF40
02FF40
02FF40
02FF40
02FF40
02FF40
02FF40
02FF40
02FF40
02FF40
02FF40
02FF40
02FF40
02FF40
02FF40
02FF40
02FF40
02FF40
02FF40
ENDCHAR
STARTCHAR Iacute
ENCODING 205
SWIDTH 270 0
DWIDTH 10 0
BBX 9 34 2 0
BITMAP
002800
00BD00
02FF40
0BFF80
2FFD00
2FE000
0B4000
000000
154000
BFD000
BFD000
BFD000
BFD000
BFD000
BFD000
BFD000
BFD000
BFD000
BFD000
BFD000
BFD000
BFD000
BFD000
BFD000
BFD000
BFD000
BFD000
BFD000
BFD000
BFD000
BFD000
BFD000
BFD000
BFD000
ENDCHAR
STARTCHAR Icircumflex
ENCODING 206
SWIDTH 270 0
DWIDTH 10 0
BBX 10 34 0 0
BITMAP
009000
02F800
0BFE00
3FFF80
BFBFD0
3E0B80
080200
000000
015400
0BFD00
0BFD00
0BFD00
0BFD00
0BFD00
0BFD00
0BFD00
0BFD00
0BFD00
0BFD00
0BFD00
0BFD00
0BFD00
0BFD00
0BFD00
0BFD00
0BFD00
0BFD00
0BFD00
0BFD00
0BFD00
0BFD00
0BFD00
0BFD00
0BFD00
ENDCHAR
STARTCHAR Idieresis
ENCODING 207
SWIDTH 270 0
DWIDTH 10 0
BBX 12 32 -1 0
BITMAP
050050
3F82F8
7FC3FD
7F83FC
2E01B4
000000
005500
02FF40
02FF40
02FF40
02FF40
02FF40
02FF40
02FF40
02FF40
02FF40
02FF40
02FF40
02FF40
02FF40
02FF40
02FF40
02FF40
02FF40
02FF40
02FF40
02FF40
02FF40
02FF40
02FF40
02FF40
02FF40
ENDCHAR
STARTCHAR Eth
ENCODING 208
SWIDTH 672 0
DWIDTH 24 0
BBX 24 26 0 0
BITMAP
015554000000
03FFFFF90000
03FFFFFF8000
03FFFFFFF400
03FFFFFFFD00
03FFFFFFFF40
03FF001FFFC0
03FF0002FFE0
03FF0000BFF4
03FF00003FF8
03FF40001FFC
FFFFFC000FFC
FFFFFC000FFC
FFFFFC000FFD
FFFFFC000FFC
ABFFA8000FFC
03FF00002FF8
03FF00003FF8
03FF0000BFF0
03FF0002FFE0
03FF006FFFC0
03FFFFFFFF40
03FFFFFFFD00
03FFFFFFF400
03FFFFFF8000
03FFFFE40000
ENDCHAR
STARTCHAR Ntilde
ENCODING 209
SWIDTH 689 0
DWIDTH 25 0
BBX 21 33 2 0
BITMAP
0006A06A0000
002FFC7F0000
007FFFBF4000
007FFFFF0000
007F5FFE0000
003F42F80000
001400000000
154000005500
BFF00002FF80
BFF80002FF80
BFFD0002FF80
BFFF0002FF80
BFFF4002FF80
BFFFC002FF80
BFFFE002FF80
BFFFF402FF80
BFFFF802FF80
BFDFFD02FF80
BFD7FF02FF80
BFD2FF82FF80
BFD1FFD2FF80
BFD0BFE2FF80
BFD03FF6FF80
BFD01FFEFF80
BFD00FFFFF80
BFD007FFFF80
BFD002FFFF80
BFD000FFFF80
BFD000BFFF80
BFD0003FFF80
BFD0001FFF80
BFD0000BFF80
BFD00007FF80
ENDCHAR
STARTCHAR Ograve
ENCODING 210
SWIDTH 777 0
DWIDTH 28 0
BBX 26 35 1 -1
BITMAP
00002400000000
0000BD00000000
0001FF40000000
0003FFE0000000
0000BFF8000000
00001BF4000000
000001D0000000
00000000000000
00000555000000
0001BFFFE40000
000BFFFFFE0000
007FFFFFFFD000
01FFFFFFFFF400
07FFFEABFFFD00
0FFFD0007FFF00
2FFE00000BFF80
3FF8000002FFC0
7FF0000000FFD0
BFE0000000BFE0
FFD00000007FF0
FFC00000003FF0
FFC00000003FF0
FFC00000003FF0
FFD00000007FF0
BFE0000000BFE0
7FF0000000FFD0
3FF8000002FFC0
2FFE00000BFF80
0FFFD0007FFF00
07FFFEABFFFD00
01FFFFFFFFF400
007FFFFFFFD000
000BFFFFFE4000
0001BFFFE40000
000005A5000000
ENDCHAR
STARTCHAR Oacute
ENCODING 211
SWIDTH 777 0
DWIDTH 28 0
BBX 26 35 1 -1
BITMAP
00000001C00000
00000007E00000
0000001FF80000
0000007FFC0000
000001FFE00000
000001FF400000
00000078000000
00000000000000
00000555000000
0001BFFFE40000
000BFFFFFE0000
007FFFFFFFD000
01FFFFFFFFF400
07FFFEABFFFD00
0FFFD0007FFF00
2FFE00000BFF80
3FF8000002FFC0
7FF0000000FFD0
BFE0000000BFE0
FFD00000007FF0
FFC00000003FF0
FFC00000003FF0
FFC00000003FF0
FFD00000007FF0
BFE0000000BFE0
7FF0000000FFD0
3FF8000002FFC0
2FFE00000BFF80
0FFFD0007FFF00
07FFFEABFFFD00
01FFFFFFFFF400
007FFFFFFFD000
000BFFFFFE4000
0001BFFFE40000
000005A5000000
ENDCHAR
STARTCHAR Ocircumflex
ENCODING 212
SWIDTH 777 0
DWIDTH 28 0
BBX 26 35 1 -1
BITMAP
000000A0000000
000002F8000000
00000BFE000000
00002FFF800000
0000BFAFE00000
00002E0BC00000
00000802400000
00000000000000
00000555000000
0001BFFFE40000
000BFFFFFE0000
007FFFFFFFD000
01FFFFFFFFF400
07FFFEABFFFD00
0FFFD0007FFF00
2FFE00000BFF80
3FF8000002FFC0
7FF0000000FFD0
BFE0000000BFE0
FFD00000007FF0
FFC00000003FF0
FFC00000003FF0
FFC00000003FF0
FFD00000007FF0
BFE0000000BFE0
7FF0000000FFD0
3FF8000002FFC0
2FFE00000BFF80
0FFFD0007FFF00
07FFFEABFFFD00
01FFFFFFFFF400
007FFFFFFFD000
000BFFFFFE4000
0001BFFFE40000
000005A5000000
ENDCHAR
STARTCHAR Otilde
ENCODING 213
SWIDTH 777 0
DWIDTH 28 0
BBX 26 34 1 -1
BITMAP
00002A41A40000
0000FFE2F80000
0002FFFBF80000
0002FFFFF80000
0002F87FF40000
0001FC1FD00000
00005000000000
00000555000000
0001BFFFE40000
000BFFFFFE0000
007FFFFFFFD000
01FFFFFFFFF400
07FFFEABFFFD00
0FFFD0007FFF00
2FFE00000BFF80
3FF8000002FFC0
7FF0000000FFD0
BFE0000000BFE0
FFD00000007FF0
FFC00000003FF0
FFC00000003FF0
FFC00000003FF0
FFD00000007FF0
BFE0000000BFE0
7FF0000000FFD0
3FF8000002FFC0
2FFE00000BFF80
0FFFD0007FFF00
07FFFEABFFFD00
01FFFFFFFFF400
007FFFFFFFD000
000BFFFFFE4000
0001BFFFE40000
000005A5000000
ENDCHAR
STARTCHAR Odieresis
ENCODING 214
SWIDTH 777 0
DWIDTH 28 0
BBX 26 33 1 -1
BITMAP
00001401400000
0000FE0BF00000
0001FF0FF40000
0001FF0BF40000
00007906D00000
00000000000000
00000555000000
0001BFFFE40000
000BFFFFFE0000
007FFFFFFFD000
01FFFFFFFFF400
07FFFEABFFFD00
0FFFD0007FFF00
2FFE00000BFF80
3FF8000002FFC0
7FF0000000FFD0
BFE0000000BFE0
FFD00000007FF0
FFC00000003FF0
FFC00000003FF0
FFC00000003FF0
FFD00000007FF0
BFE0000000BFE0
7FF0000000FFD0
3FF8000002FFC0
2FFE00000BFF80
0FFFD0007FFF00
07FFFEABFFFD00
01FFFFFFFFF400
007FFFFFFFD000
000BFFFFFE4000
0001BFFFE40000
000005A5000000
ENDCHAR
STARTCHAR multiply
ENCODING 215
SWIDTH 479 0
DWIDTH 17 0
BBX 14 14 2 6
BITMAP
05000400
1F403E00
7FD0FF80
FFF7FFD0
BFFFFF80
2FFFFE00
0BFFF800
03FFF400
0FFFFD00
3FFFFF40
FFFFFFD0
7FE2FF80
1F80BE00
06002800
ENDCHAR
STARTCHAR Oslash
ENCODING 216
SWIDTH 777 0
DWIDTH 28 0
BBX 26 27 1 -1
BITMAP
00000565005500
0001BFFFE6FF00
000BFFFFFFFD00
007FFFFFFFF800
01FFFFFFFFF400
07FFFEABFFFD00
0FFFD001FFFF00
2FFE0003FFFF40
3FF8000BFEFFC0
7FF0002FF4FFD0
BFE0007FE0BFE0
FFD000FF807FF0
FFC002FF003FF0
FFC007FD003FF0
FFC01FF8003FF0
FFD03FF0007FF0
BFE0BFD000BFE0
7FF1FF4000FFD0
3FFBFE0002FFC0
1FFFFC000BFF80
0FFFF4007FFF00
07FFFEABFFFD00
01FFFFFFFFF400
02FFFFFFFFD000
0BFFFFFFFE4000
1FF9BFFFE40000
000005A5000000
ENDCHAR
STARTCHAR Ugrave
ENCODING 217
SWIDTH 673 0
DWIDTH 24 0
BBX 21 34 2 0
BITMAP
000600000000
001F80000000
003FE0000000
00BFFC000000
001FFF000000
0002FE000000
00006C000000
000000000000
554000015500
FFC00002FF40
FFC00002FF40
FFC00002FF40
FFC00002FF40
FFC00002FF40
FFC00002FF40
FFC00002FF40
FFC00002FF40
FFC00002FF40
FFC00002FF40
FFC00002FF40
FFC00002FF40
FFC00002FF40
FFC00002FF40
FFC00002FF40
FFC00003FF00
BFD00003FF00
BFE0000BFF00
7FF8001FFE00
2FFE41BFFC00
1FFFFFFFF800
07FFFFFFE000
01FFFFFF8000
006FFFFD0000
0006FF900000
ENDCHAR
STARTCHAR Uacute
ENCODING 218
SWIDTH 673 0
DWIDTH 24 0
BBX 21 34 2 0
BITMAP
000000740000
000001FC0000
000007FE0000
00001FFF4000
00007FF80000
00003FD00000
00001E000000
000000000000
554000015500
FFC00002FF40
FFC00002FF40
FFC00002FF40
FFC00002FF40
FFC00002FF40
FFC00002FF40
FFC00002FF40
FFC00002FF40
FFC00002FF40
FFC00002FF40
FFC00002FF40
FFC00002FF40
FFC00002FF40
FFC00002FF40
FFC00002FF40
FFC00003FF00
BFD00003FF00
BFE0000BFF00
7FF8001FFE00
2FFE41BFFC00
1FFFFFFFF800
07FFFFFFE000
01FFFFFF8000
006FFFFD0000
0006FF900000
ENDCHAR
STARTCHAR Ucircumflex
ENCODING 219
SWIDTH 673 0
DWIDTH 24 0
BBX 21 33 2 0
BITMAP
000028000000
0000BE000000
0002FF800000
000BFFE00000
001FFBF80000
000B82F00000
000200900000
554000015500
FFC00002FF40
FFC00002FF40
FFC00002FF40
FFC00002FF40
FFC00002FF40
FFC00002FF40
FFC00002FF40
FFC00002FF40
FFC00002FF40
FFC00002FF40
FFC00002FF40
FFC00002FF40
FFC00002FF40
FFC00002FF40
FFC00002FF40
FFC00003FF00
BFD00003FF00
BFE0000BFF00
7FF8001FFE00
2FFE41BFFC00
1FFFFFFFF800
07FFFFFFE000
01FFFFFF8000
006FFFFD0000
0006FF900000
ENDCHAR
STARTCHAR Udieresis
ENCODING 220
SWIDTH 673 0
DWIDTH 24 0
BBX 21 31 2 0
BITMAP
000500500000
003F81FC0000
007FC2FD0000
003FC2FD0000
001F40B80000
554000015500
FFC00002FF40
FFC00002FF40
FFC00002FF40
FFC00002FF40
FFC00002FF40
FFC00002FF40
FFC00002FF40
FFC00002FF40
FFC00002FF40
FFC00002FF40
FFC00002FF40
FFC00002FF40
FFC00002FF40
FFC00002FF40
FFC00002FF40
FFC00003FF00
BFD00003FF00
BFE0000BFF00
7FF8001FFE00
2FFE41BFFC00
1FFFFFFFF800
07FFFFFFE000
01FFFFFF8000
006FFFFD0000
0006FF900000
ENDCHAR
STARTCHAR Yacute
ENCODING 221
SWIDTH 620 0
DWIDTH 22 0
BBX 21 34 1 0
BITMAP
000000700000
000001F80000
000007FE0000
00001FFF0000
00007FF80000
00003FD00000
00001E000000
000000000000
554000005500
FFC00002FF40
FFC00002FF40
FFC00002FF40
FFC00002FF40
FFC00002FF40
FFC00002FF40
FFC00002FF40
FFC00002FF40
FFD00003FF00
BFE00007FF00
7FF4000FFE00
3FFD007FFD00
1FFFEAFFF800
0BFFFFFFF000
03FFFFFFD000
00BFFFFF4000
001BFFE40000
0001FF800000
0001FF800000
0001FF800000
0001FF800000
0001FF800000
0001FF800000
0001FF800000
0001FF800000
ENDCHAR
STARTCHAR Thorn
ENCODING 222
SWIDTH 637 0
DWIDTH 23 0
BBX 21 28 2 -1
BITMAP
554000000000
BFD000000000
BFD000000000
BFD000000000
BFEAAA400000
BFFFFFF90000
BFFFFFFF8000
BFFFFFFFE000
BFFFFFFFF800
BFE555BFFD00
BFD0001FFE00
BFD0000BFF00
BFD00003FF40
BFD00002FF40
BFD00002FF40
BFD00002FF40
BFD00003FF40
BFD0000BFF00
BFD0002FFE00
BFEAAAFFFC00
BFFFFFFFF400
BFFFFFFFE000
BFFFFFFF4000
BFFFFFF80000
BFE555400000
BFD000000000
BFD000000000
BFD000000000
ENDCHAR
STARTCHAR germandbls
ENCODING 223
SWIDTH 813 0
DWIDTH 29 0
BBX 29 28 0 0
BITMAP
0000AFFFF9000000
0007FFFFFF800000
002FFFFFFFE00000
007FFFFFFFF40000
00FFFEAABFFC0000
01FFD0001FFC0000
02FF40000BFD0000
02FF00000BFD0000
03FF00001FFC0000
6BFF000ABFFC0000
7FFF007FFFF40000
7FFF01FFFFE00000
7FFF03FFFF800000
7FFF07FFF9000000
03FF0BFD00000000
03FF0BFC00000000
03FF0BFFAAAA4000
03FF07FFFFFFF800
03FF02FFFFFFFE00
03FF00BFFFFFFF40
03FF002FFFFFFF80
03FF00005555FFC0
03FF00000000FFC0
03FF01AAAAABFF80
03FF01FFFFFFFF40
03FF01FFFFFFFE00
03FF01FFFFFFF800
03FF01FFFFFF9000
ENDCHAR
STARTCHAR agrave
ENCODING 224
SWIDTH 607 0
DWIDTH 22 0
BBX 19 29 1 -1
BITMAP
0018000000
007F000000
00FFC00000
01FFF40000
007FFC0000
000BF80000
0000B00000
0000000000
0001650000
006FFFD018
01FFFFF87C
0BFFFFFFFC
1FFFFFFFFC
3FFE57FFFC
7FF400BFFC
BFD0002FFC
FFC0001FFC
FF80000FFC
FF80000BFC
FF80000FFC
FFC0001FFC
BFE0002FFC
7FF400BFFC
3FFF9BFFFC
1FFFFFFFFC
0BFFFFFEFC
01FFFFF87C
002FFF901C
0000540000
ENDCHAR
STARTCHAR aacute
ENCODING 225
SWIDTH 607 0
DWIDTH 22 0
BBX 19 29 1 -1
BITMAP
000001D000
000007F000
00001FF800
00007FFD00
0001FFE000
0000FF4000
0000780000
0000000000
0001650000
006FFFD018
01FFFFF87C
0BFFFFFFFC
1FFFFFFFFC
3FFE57FFFC
7FF400BFFC
BFD0002FFC
FFC0001FFC
FF80000FFC
FF80000BFC
FF80000FFC
FFC0001FFC
BFE0002FFC
7FF400BFFC
3FFF9BFFFC
1FFFFFFFFC
0BFFFFFEFC
01FFFFF87C
002FFF901C
0000540000
ENDCHAR
STARTCHAR acircumflex
ENCODING 226
SWIDTH 607 0
DWIDTH 22 0
BBX 19 28 1 -1
BITMAP
0000600000
0001FC0000
0007FF4000
001FFFD000
003FEFF000
001F47D000
0009018000
0001650000
006FFFD018
01FFFFF87C
0BFFFFFFFC
1FFFFFFFFC
3FFE57FFFC
7FF400BFFC
BFD0002FFC
FFC0001FFC
FF80000FFC
FF80000BFC
FF80000FFC
FFC0001FFC
BFE0002FFC
7FF400BFFC
3FFF9BFFFC
1FFFFFFFFC
0BFFFFFEFC
01FFFFF87C
002FFF901C
0000540000
ENDCHAR
STARTCHAR atilde
ENCODING 227
SWIDTH 607 0
DWIDTH 22 0
BBX 19 28 1 -1
BITMAP
001A80A800
00BFF1FC00
01FFFEFD00
01FFFFFC00
01FD7FF800
00FD0BE000
0050000000
0001650000
006FFFD018
01FFFFF87C
0BFFFFFFFC
1FFFFFFFFC
3FFE57FFFC
7FF400BFFC
BFD0002FFC
FFC0001FFC
FF80000FFC
FF80000BFC
FF80000FFC
FFC0001FFC
BFE0002FFC
7FF400BFFC
3FFF9BFFFC
1FFFFFFFFC
0BFFFFFEFC
01FFFFF87C
002FFF901C
0000540000
ENDCHAR
STARTCHAR adieresis
ENCODING 228
SWIDTH 607 0
DWIDTH 22 0
BBX 19 27 1 -1
BITMAP
0014005000
00BF03F400
00FF47F800
00BF47F800
002E02E000
0000000000
0001650000
006FFFD018
01FFFFF87C
0BFFFFFFFC
1FFFFFFFFC
3FFE57FFFC
7FF400BFFC
BFD0002FFC
FFC0001FFC
FF80000FFC
FF80000BFC
FF80000FFC
FFC0001FFC
BFE0002FFC
7FF400BFFC
3FFF9BFFFC
1FFFFFFFFC
0BFFFFFEFC
01FFFFF87C
002FFF901C
0000540000
ENDCHAR
STARTCHAR aring
ENCODING 229
SWIDTH 607 0
DWIDTH 22 0
BBX 19 29 1 -1
BITMAP
0000540000
0002FE0000
000BFF4000
000F4B8000
000F4B8000
000BFF8000
0002FE0000
0000540000
0001650000
006FFFD018
01FFFFF87C
0BFFFFFFFC
1FFFFFFFFC
3FFE57FFFC
7FF400BFFC
BFD0002FFC
FFC0001FFC
FF80000FFC
FF80000BFC
FF80000FFC
FFC0001FFC
BFE0002FFC
7FF400BFFC
3FFF9BFFFC
1FFFFFFFFC
0BFFFFFEFC
01FFFFF87C
002FFF901C
0000540000
ENDCHAR
STARTCHAR ae
ENCODING 230
SWIDTH 976 0
DWIDTH 35 0
BBX 34 21 1 -1
BITMAP
000165000001650000
006FFFD0182FFFE400
01FFFFF87DFFFFFE00
0BFFFFFFFFFFFFFF80
1FFFFFFFFFFFFFFFD0
3FFE57FFFFFF57FF80
7FF400BFFFF80BFF00
BFD0002FFFE02FFC00
FFC0001FFFD07FF400
FF80000FFFC0FFD000
FF80000BFFC2FF8000
FF80000FFFCBFE0000
FFC0001FFFEFFC0000
BFE0002FFFFFF41800
7FF400BFFFFFD07E00
3FFF9BFFFFFFDBFF80
1FFFFFFFFFFFFFFFD0
0BFFFFFEFFFFFFFF40
01FFFFF87DBFFFFD00
002FFF901C1BFFE000
000054000000550000
ENDCHAR
STARTCHAR ccedilla
ENCODING 231
SWIDTH 521 0
DWIDTH 19 0
BBX 18 28 0 -8
BITMAP
0000594000
000BFFF800
007FFFFF40
01FFFFFFD0
07FFFFFFF0
0BFF95FFE0
1FFD002F80
2FF8000A00
3FF0000000
3FE0000000
7FE0000000
3FE0000000
3FF0000000
2FF8000900
1FFD002F40
0FFFEAFFD0
07FFFFFFF0
01FFFFFFD0
007FFFFE00
0007FFE400
00007D0000
0000BD0000
0000FF8000
00006FC000
00061FD000
000BFFC000
000FFF8000
0006FE0000
ENDCHAR
STARTCHAR egrave
ENCODING 232
SWIDTH 524 0
DWIDTH 19 0
BBX 17 29 1 -1
BITMAP
0028000000
00BE000000
01FF800000
02FFE00000
00BFF80000
000BF40000
0001E00000
0000000000
0001650000
006FFFE000
01FFFFFD00
0BFFFFFF40
1FFFFFFFC0
3FFE5BFF80
7FF40FFE00
BFD02FF800
FFC07FF000
FF81FFD000
FF83FF4000
FF8BFE0000
FFEFF80000
BFFFE02800
7FFFC0BD00
3FFF9BFF40
1FFFFFFFC0
07FFFFFF40
01FFFFF900
002FFF9000
0000540000
ENDCHAR
STARTCHAR eacute
ENCODING 233
SWIDTH 524 0
DWIDTH 19 0
BBX 17 29 1 -1
BITMAP
000001C000
000007E000
00001FF800
00007FFD00
0001FFE000
0000FF4000
0000780000
0000000000
0001650000
006FFFE000
01FFFFFD00
0BFFFFFF40
1FFFFFFFC0
3FFE5BFF80
7FF40FFE00
BFD02FF800
FFC07FF000
FF81FFD000
FF83FF4000
FF8BFE0000
FFEFF80000
BFFFE02800
7FFFC0BD00
3FFF9BFF40
1FFFFFFFC0
07FFFFFF40
01FFFFF900
002FFF9000
0000540000
ENDCHAR
STARTCHAR ecircumflex
ENCODING 234
SWIDTH 524 0
DWIDTH 19 0
BBX 17 29 1 -1
BITMAP
0001900000
0007F40000
001FFD0000
007FFF4000
00FFBFC000
007D1F8000
0014060000
0000000000
0001650000
006FFFE000
01FFFFFD00
0BFFFFFF40
1FFFFFFFC0
3FFE5BFF80
7FF40FFE00
BFD02FF800
FFC07FF000
FF81FFD000
FF83FF4000
FF8BFE0000
FFEFF80000
BFFFE02800
7FFFC0BD00
3FFF9BFF40
1FFFFFFFC0
07FFFFFF40
01FFFFF900
002FFF9000
0000540000
ENDCHAR
STARTCHAR edieresis
ENCODING 235
SWIDTH 524 0
DWIDTH 19 0
BBX 17 27 1 -1
BITMAP
0054014000
01FD0FE000
02FE1FF000
02FD1FE000
00B8079000
0000000000
0001650000
006FFFE000
01FFFFFD00
0BFFFFFF40
1FFFFFFFC0
3FFE5BFF80
7FF40FFE00
BFD02FF800
FFC07FF000
FF81FFD000
FF83FF4000
FF8BFE0000
FFEFF80000
BFFFE02800
7FFFC0BD00
3FFF9BFF40
1FFFFFFFC0
07FFFFFF40
01FFFFF900
002FFF9000
0000540000
ENDCHAR
STARTCHAR igrave
ENCODING 236
SWIDTH 235 0
DWIDTH 8 0
BBX 9 28 -2 0
BITMAP
0A0000
1F8000
3FE000
BFF800
1FFF00
02FE00
006800
000000
000000
00AA80
01FF80
01FF80
01FF80
01FF80
01FF80
01FF80
01FF80
01FF80
01FF80
01FF80
01FF80
01FF80
01FF80
01FF80
01FF80
01FF80
01FF80
01FF80
ENDCHAR
STARTCHAR iacute
ENCODING 237
SWIDTH 235 0
DWIDTH 8 0
BBX 9 28 1 0
BITMAP
001C00
007E00
01FF80
07FFC0
1FFE00
1FF400
078000
000000
000000
2AA000
7FE000
7FE000
7FE000
7FE000
7FE000
7FE000
7FE000
7FE000
7FE000
7FE000
7FE000
7FE000
7FE000
7FE000
7FE000
7FE000
7FE000
7FE000
ENDCHAR
STARTCHAR icircumflex
ENCODING 238
SWIDTH 235 0
DWIDTH 8 0
BBX 10 27 -1 0
BITMAP
006000
01F800
07FF00
2FFFD0
7FEFF0
2F47D0
080140
000000
02AA00
07FE00
07FE00
07FE00
07FE00
07FE00
07FE00
07FE00
07FE00
07FE00
07FE00
07FE00
07FE00
07FE00
07FE00
07FE00
07FE00
07FE00
07FE00
ENDCHAR
STARTCHAR idieresis
ENCODING 239
SWIDTH 235 0
DWIDTH 8 0
BBX 11 25 -1 0
BITMAP
140050
BF07F4
FF4BF8
FF47F4
6D02E0
000000
02AA00
07FE00
07FE00
07FE00
07FE00
07FE00
07FE00
07FE00
07FE00
07FE00
07FE00
07FE00
07FE00
07FE00
07FE00
07FE00
07FE00
07FE00
07FE00
ENDCHAR
STARTCHAR eth
ENCODING 240
SWIDTH 581 0
DWIDTH 21 0
BBX 20 29 0 -1
BITMAP
0001554000
0001FFE000
0015BFF554
007FFFFFFD
007FFFFFFD
007FFFFFFD
006AABFFE9
000001FFC0
000015FFD0
000BFFFFE0
007FFFFFF0
01FFFFFFF8
07FFFFFFFC
0FFF95BFFC
1FFD001FFD
2FF4000BFE
3FF00003FF
3FE00003FF
7FE00003FF
3FE00003FF
3FF00007FE
2FF8000BFE
1FFE002FFC
0FFFE6FFF8
07FFFFFFF0
01FFFFFFD0
007FFFFF00
0007FFE400
0000150000
ENDCHAR
STARTCHAR ntilde
ENCODING 241
SWIDTH 562 0
DWIDTH 20 0
BBX 18 27 1 0
BITMAP
002A41A800
00FFE1FC00
01FFFBFC00
02FFFFFC00
01FC7FF400
01FC1BD000
0050000000
0000100000
241BFF8000
7DBFFFF400
7FFFFFFD00
7FFFFFFF40
7FFFAFFF80
7FFD02FFC0
7FF000BFD0
7FE0007FE0
7FE0003FE0
7FE0003FE0
7FE0003FE0
7FE0003FE0
7FE0003FE0
7FE0003FE0
7FE0003FE0
7FE0003FE0
7FE0003FE0
7FE0003FE0
7FE0003FE0
ENDCHAR
STARTCHAR ograve
ENCODING 242
SWIDTH 579 0
DWIDTH 21 0
BBX 20 29 0 -1
BITMAP
0006000000
001F800000
003FF00000
00BFFC0000
001FFF0000
0002FE0000
00006C0000
0000000000
0000594000
000BFFF800
007FFFFF40
02FFFFFFD0
07FFFFFFF4
0FFF95BFF8
1FFD001FFD
2FF4000BFE
3FF00003FF
3FE00003FF
7FE00003FF
3FE00003FF
3FF00007FE
2FF8000BFE
1FFE002FFD
0FFFE6FFF8
07FFFFFFF0
01FFFFFFD0
007FFFFE00
0007FFE400
0000150000
ENDCHAR
STARTCHAR oacute
ENCODING 243
SWIDTH 579 0
DWIDTH 21 0
BBX 20 29 0 -1
BITMAP
0000007000
000001F800
000007FE00
00001FFF40
00007FF800
00003FD000
00001E0000
0000000000
0000594000
000BFFF800
007FFFFF40
02FFFFFFD0
07FFFFFFF4
0FFF95BFF8
1FFD001FFD
2FF4000BFE
3FF00003FF
3FE00003FF
7FE00003FF
3FE00003FF
3FF00007FE
2FF8000BFE
1FFE002FFD
0FFFE6FFF8
07FFFFFFF0
01FFFFFFD0
007FFFFE00
0007FFE400
0000150000
ENDCHAR
STARTCHAR ocircumflex
ENCODING 244
SWIDTH 579 0
DWIDTH 21 0
BBX 20 29 0 -1
BITMAP
0000180000
00007F0000
0001FFD000
0007FFF400
001FFBFC00
0007D1F400
0002406000
0000000000
0000594000
000BFFF800
007FFFFF40
02FFFFFFD0
07FFFFFFF4
0FFF95BFF8
1FFD001FFD
2FF4000BFE
3FF00003FF
3FE00003FF
7FE00003FF
3FE00003FF
3FF00007FE
2FF8000BFE
1FFE002FFD
0FFFE6FFF8
07FFFFFFF0
01FFFFFFD0
007FFFFE00
0007FFE400
0000150000
ENDCHAR
STARTCHAR otilde
ENCODING 245
SWIDTH 579 0
DWIDTH 21 0
BBX 20 28 0 -1
BITMAP
0006A06A00
002FFC7F00
007FFFBF00
007FFFFF00
007F5FFE00
003F42F800
0014000000
0000594000
000BFFF800
007FFFFF40
02FFFFFFD0
07FFFFFFF4
0FFF95BFF8
1FFD001FFD
2FF4000BFE
3FF00003FF
3FE00003FF
7FE00003FF
3FE00003FF
3FF00007FE
2FF8000BFE
1FFE002FFD
0FFFE6FFF8
07FFFFFFF0
01FFFFFFD0
007FFFFE00
0007FFE400
0000150000
ENDCHAR
STARTCHAR odieresis
ENCODING 246
SWIDTH 579 0
DWIDTH 21 0
BBX 20 27 0 -1
BITMAP
0005001400
002FC1FD00
003FD2FE00
002FD1FE00
001B80B800
0000000000
0000594000
000BFFF800
007FFFFF40
02FFFFFFD0
07FFFFFFF4
0FFF95BFF8
1FFD001FFD
2FF4000BFE
3FF00003FF
3FE00003FF
7FE00003FF
3FE00003FF
3FF00007FE
2FF8000BFE
1FFE002FFD
0FFFE6FFF8
07FFFFFFF0
01FFFFFFD0
007FFFFE00
0007FFE400
0000150000
ENDCHAR
STARTCHAR divide
ENCODING 247
SWIDTH 494 0
DWIDTH 18 0
BBX 16 18 1 4
BITMAP
00014000
000FF000
002FF400
002FF400
000FF000
00014000
00000000
7FFFFFFD
7FFFFFFD
7FFFFFFD
7FFFFFFD
6AAAAAA9
00014000
000BE000
001FF400
002FF400
001FF000
00069000
ENDCHAR
STARTCHAR oslash
ENCODING 248
SWIDTH 579 0
DWIDTH 21 0
BBX 20 21 0 -1
BITMAP
0000594000
000BFFFBFE
007FFFFFFC
02FFFFFFF4
07FFFFFFF4
0FFF96FFF8
1FFD03FFFD
2FF40BFFFE
3FF01FFBFF
3FE07FE3FF
7FE0FFC3FF
3FE2FF43FF
3FFBFD07FE
2FFFF80BFE
1FFFF02FFD
0FFFE6FFF8
07FFFFFFF0
07FFFFFFD0
0FFFFFFE00
2FFBFFE400
0000150000
ENDCHAR
STARTCHAR ugrave
ENCODING 249
SWIDTH 562 0
DWIDTH 20 0
BBX 18 28 1 -1
BITMAP
0024000000
00BD000000
01FF800000
03FFE00000
00BFF80000
001BF40000
0001E00000
0000000000
6A90006A90
7FD0007FD0
7FD0007FD0
7FD0007FD0
7FD0007FD0
7FD0007FD0
7FD0007FD0
7FD0007FD0
7FD0007FD0
7FD0007FD0
7FD0007FD0
7FD000BFD0
7FE000FFD0
3FF402FFD0
2FFEAFFFD0
0FFFFFFFD0
07FFFFFFD0
01FFFFE2D0
002FFE40D0
0001500000
ENDCHAR
STARTCHAR uacute
ENCODING 250
SWIDTH 562 0
DWIDTH 20 0
BBX 18 28 1 -1
BITMAP
0000018000
000007E000
00002FF400
0000BFFC00
0002FFE000
0001FE4000
0000B40000
0000000000
6A90006A90
7FD0007FD0
7FD0007FD0
7FD0007FD0
7FD0007FD0
7FD0007FD0
7FD0007FD0
7FD0007FD0
7FD0007FD0
7FD0007FD0
7FD0007FD0
7FD000BFD0
7FE000FFD0
3FF402FFD0
2FFEAFFFD0
0FFFFFFFD0
07FFFFFFD0
01FFFFE2D0
002FFE40D0
0001500000
ENDCHAR
STARTCHAR ucircumflex
ENCODING 251
SWIDTH 562 0
DWIDTH 20 0
BBX 18 28 1 -1
BITMAP
0000A00000
0002F80000
000BFE0000
002FFF8000
00BFAFE000
002E0BC000
0008024000
0000000000
6A90006A90
7FD0007FD0
7FD0007FD0
7FD0007FD0
7FD0007FD0
7FD0007FD0
7FD0007FD0
7FD0007FD0
7FD0007FD0
7FD0007FD0
7FD0007FD0
7FD000BFD0
7FE000FFD0
3FF402FFD0
2FFEAFFFD0
0FFFFFFFD0
07FFFFFFD0
01FFFFE2D0
002FFE40D0
0001500000
ENDCHAR
STARTCHAR udieresis
ENCODING 252
SWIDTH 562 0
DWIDTH 20 0
BBX 18 26 1 -1
BITMAP
0014014000
00FE0BF000
01FF0FF400
01FF0BF400
007906D000
0000000000
6A90006A90
7FD0007FD0
7FD0007FD0
7FD0007FD0
7FD0007FD0
7FD0007FD0
7FD0007FD0
7FD0007FD0
7FD0007FD0
7FD0007FD0
7FD0007FD0
7FD000BFD0
7FE000FFD0
3FF402FFD0
2FFEAFFFD0
0FFFFFFFD0
07FFFFFFD0
01FFFFE2D0
002FFE40D0
0001500000
ENDCHAR
STARTCHAR yacute
ENCODING 253
SWIDTH 562 0
DWIDTH 20 0
BBX 18 35 1 -8
BITMAP
0000018000
00000BE000
00002FF400
0000BFF800
0002FFE000
0001FE0000
0000B40000
0000000000
6A90006A90
7FD0007FD0
7FD0007FD0
7FD0007FD0
7FD0007FD0
7FD0007FD0
7FD0007FD0
7FD0007FD0
7FD0007FD0
7FD0007FD0
7FD0007FD0
7FD000BFD0
7FE000FFD0
3FF402FFD0
2FFEAFFFD0
0FFFFFFFD0
07FFFFFFD0
01FFFFFFD0
002FFEFFD0
000151FFC0
000007FF80
001ABFFF00
002FFFFD00
002FFFF400
002FFFD000
002FF90000
0005000000
ENDCHAR
STARTCHAR thorn
ENCODING 254
SWIDTH 608 0
DWIDTH 22 0
BBX 20 35 1 -8
BITMAP
2AA0000000
7FF0000000
7FF0000000
7FF0000000
7FF0000000
7FF0000000
7FF0000000
7FF0554000
7FF6FFF800
7FFFFFFF40
7FFFFFFFE0
7FFFFFFFF4
7FFF95BFFC
7FFD001FFD
7FF4000BFE
7FF00003FF
7FE00002FF
7FE00002FF
7FE00003FF
7FF00003FF
7FF8000BFE
7FFE002FFD
7FFFE6FFFC
7FFFFFFFF4
7FFFFFFFD0
7FFFFFFF40
7FE6FFF800
7FE0154000
7FE0000000
7FE0000000
7FE0000000
7FE0000000
7FE0000000
7FE0000000
1540000000
ENDCHAR
STARTCHAR ydieresis
ENCODING 255
SWIDTH 562 0
DWIDTH 20 0
BBX 18 33 1 -8
BITMAP
0014014000
00FE0BF000
01FF0FF400
01FF0BF400
007906D000
0000000000
6A90006A90
7FD0007FD0
7FD0007FD0
7FD0007FD0
7FD0007FD0
7FD0007FD0
7FD0007FD0
7FD0007FD0
7FD0007FD0
7FD0007FD0
7FD0007FD0
7FD000BFD0
7FE000FFD0
3FF402FFD0
2FFEAFFFD0
0FFFFFFFD0
07FFFFFFD0
01FFFFFFD0
002FFEFFD0
000151FFC0
000007FF80
001ABFFF00
002FFFFD00
002FFFF400
002FFFD000
002FF90000
0005000000
ENDCHAR
STARTCHAR Amacron
ENCODING 256
SWIDTH 673 0
DWIDTH 24 0
BBX 21 30 2 0
BITMAP
001FFFF80000
001FFFF80000
001FFFF80000
001AAAA40000
000000000000
0006FFE40000
007FFFFE0000
02FFFFFF8000
0BFFFFFFE000
1FFFFFFFF800
3FFE007FFD00
7FF4001FFE00
BFE00007FF00
BFD00003FF00
FFC00003FF40
FFC00002FF40
FFC00002FF40
FFC00002FF40
FFC00002FF40
FFC00003FF40
FFFFFFFFFF40
FFFFFFFFFF40
FFFFFFFFFF40
FFFFFFFFFF40
FFFFFFFFFF40
FFC00002FF40
FFC00002FF40
FFC00002FF40
FFC00002FF40
FFC00002FF40
ENDCHAR
STARTCHAR amacron
ENCODING 257
SWIDTH 607 0
DWIDTH 22 0
BBX 19 26 1 -1
BITMAP
007FFFE000
007FFFE000
007FFFE000
006AAA9000
0000000000
0001650000
006FFFD018
01FFFFF87C
0BFFFFFFFC
1FFFFFFFFC
3FFE57FFFC
7FF400BFFC
BFD0002FFC
FFC0001FFC
FF80000FFC
FF80000BFC
FF80000FFC
FFC0001FFC
BFE0002FFC
7FF400BFFC
3FFF9BFFFC
1FFFFFFFFC
0BFFFFFEFC
01FFFFF87C
002FFF901C
0000540000
ENDCHAR
STARTCHAR Abreve
ENCODING 258
SWIDTH 673 0
DWIDTH 24 0
BBX 21 32 2 0
BITMAP
000541500000
000FC7E00000
000FEBE00000
000BFFE00000
0002FF800000
000069000000
000000000000
0006FFE40000
007FFFFE0000
02FFFFFF8000
0BFFFFFFE000
1FFFFFFFF800
3FFE007FFD00
7FF4001FFE00
BFE00007FF00
BFD00003FF00
FFC00003FF40
FFC00002FF40
FFC00002FF40
FFC00002FF40
FFC00002FF40
FFC00003FF40
FFFFFFFFFF40
FFFFFFFFFF40
FFFFFFFFFF40
FFFFFFFFFF40
FFFFFFFFFF40
FFC00002FF40
FFC00002FF40
FFC00002FF40
FFC00002FF40
FFC00002FF40
ENDCHAR
STARTCHAR abreve
ENCODING 259
SWIDTH 607 0
DWIDTH 22 0
BBX 19 28 1 -1
BITMAP
0015054000
003F4FC000
003FAFC000
002FFF8000
000BFF0000
0001A40000
0000000000
0001650000
006FFFD018
01FFFFF87C
0BFFFFFFFC
1FFFFFFFFC
3FFE57FFFC
7FF400BFFC
BFD0002FFC
FFC0001FFC
FF80000FFC
FF80000BFC
FF80000FFC
FFC0001FFC
BFE0002FFC
7FF400BFFC
3FFF9BFFFC
1FFFFFFFFC
0BFFFFFEFC
01FFFFF87C
002FFF901C
0000540000
ENDCHAR
STARTCHAR Aogonek
ENCODING 260
SWIDTH 673 0
DWIDTH 24 0
BBX 22 32 2 -7
BITMAP
0006FFE40000
007FFFFE0000
02FFFFFF8000
0BFFFFFFE000
1FFFFFFFF800
3FFE007FFD00
7FF4001FFE00
BFE00007FF00
BFD00003FF00
FFC00003FF40
FFC00002FF40
FFC00002FF40
FFC00002FF40
FFC00002FF40
FFC00003FF40
FFFFFFFFFF40
FFFFFFFFFF40
FFFFFFFFFF40
FFFFFFFFFF40
FFFFFFFFFF40
FFC00002FF40
FFC00002FF40
FFC00002FF40
FFC00002FF40
FFC00002FF40
00000002F400
00000007E000
0000000FD100
0000000FFF80
0000000BFFD0
00000002FF40
000000005400
ENDCHAR
STARTCHAR aogonek
ENCODING 261
SWIDTH 607 0
DWIDTH 22 0
BBX 22 27 1 -7
BITMAP
000165000000
006FFFD01800
01FFFFF87C00
0BFFFFFFFC00
1FFFFFFFFC00
3FFE57FFFC00
7FF400BFFC00
BFD0002FFC00
FFC0001FFC00
FF80000FFC00
FF80000BFC00
FF80000FFC00
FFC0001FFC00
BFE0002FFC00
7FF400BFFC00
3FFF9BFFFC00
1FFFFFFFFC00
0BFFFFFEFC00
01FFFFF87C00
002FFF907C00
00005401F800
00000003F000
0000000BE100
0000000BFF80
00000007FFE0
00000001FF80
000000001400
ENDCHAR
STARTCHAR Cacute
ENCODING 262
SWIDTH 640 0
DWIDTH 23 0
BBX 22 35 1 -1
BITMAP
000000070000
0000001F8000
0000007FE000
000001FFF400
000007FF8000
000003FD0000
000001E00000
000000000000
000005A50000
0001BFFFE400
000BFFFFFE00
007FFFFFFFD0
01FFFFFFFFC0
07FFFEABFF40
0FFFD0007E00
2FFE00000800
3FF800000000
7FF000000000
BFE000000000
FFD000000000
FFC000000000
FFC000000000
FFC000000000
FFD000000000
BFE000000000
7FF000000000
3FF800000000
2FFE00000800
0FFFD0007E00
07FFFEABFF40
01FFFFFFFFC0
007FFFFFFFD0
000BFFFFFE00
0001BFFFE400
000005A50000
ENDCHAR
STARTCHAR cacute
ENCODING 263
SWIDTH 521 0
DWIDTH 19 0
BBX 18 29 0 -1
BITMAP
000000A000
000002F800
00000BFD00
00002FFE00
0000BFF800
00007F8000
00002D0000
0000000000
0000594000
000BFFF800
007FFFFF40
01FFFFFFD0
07FFFFFFF0
0BFF95FFE0
1FFD002F80
2FF8000A00
3FF0000000
3FE0000000
7FE0000000
3FE0000000
3FF0000000
2FF8000900
1FFD002F40
0FFFEAFFD0
07FFFFFFF0
01FFFFFFD0
007FFFFE40
000BFFE400
0000150000
ENDCHAR
STARTCHAR Ccircumflex
ENCODING 264
SWIDTH 640 0
DWIDTH 23 0
BBX 22 35 1 -1
BITMAP
000001800000
000007E00000
00002FFC0000
0000BFFF0000
0001FFBF8000
0000BC1F4000
000020050000
000000000000
000005A50000
0001BFFFE400
000BFFFFFE00
007FFFFFFFD0
01FFFFFFFFC0
07FFFEABFF40
0FFFD0007E00
2FFE00000800
3FF800000000
7FF000000000
BFE000000000
FFD000000000
FFC000000000
FFC000000000
FFC000000000
FFD000000000
BFE000000000
7FF000000000
3FF800000000
2FFE00000800
0FFFD0007E00
07FFFEABFF40
01FFFFFFFFC0
007FFFFFFFD0
000BFFFFFE00
0001BFFFE400
000005A50000
ENDCHAR
STARTCHAR ccircumflex
ENCODING 265
SWIDTH 521 0
DWIDTH 19 0
BBX 18 29 0 -1
BITMAP
0000180000
00007E0000
0001FFC000
000BFFF400
001FFBFC00
000BD1F400
0002005000
0000000000
0000594000
000BFFF800
007FFFFF40
01FFFFFFD0
07FFFFFFF0
0BFF95FFE0
1FFD002F80
2FF8000A00
3FF0000000
3FE0000000
7FE0000000
3FE0000000
3FF0000000
2FF8000900
1FFD002F40
0FFFEAFFD0
07FFFFFFF0
01FFFFFFD0
007FFFFE40
000BFFE400
0000150000
ENDCHAR
STARTCHAR Cdotaccent
ENCODING 266
SWIDTH 640 0
DWIDTH 23 0
BBX 22 33 1 -1
BITMAP
000001A00000
000007F80000
000007FC0000
000007F80000
000001A00000
000000000000
000005A50000
0001BFFFE400
000BFFFFFE00
007FFFFFFFD0
01FFFFFFFFC0
07FFFEABFF40
0FFFD0007E00
2FFE00000800
3FF800000000
7FF000000000
BFE000000000
FFD000000000
FFC000000000
FFC000000000
FFC000000000
FFD000000000
BFE000000000
7FF000000000
3FF800000000
2FFE00000800
0FFFD0007E00
07FFFEABFF40
01FFFFFFFFC0
007FFFFFFFD0
000BFFFFFE00
0001BFFFE400
000005A50000
ENDCHAR
STARTCHAR cdotaccent
ENCODING 267
SWIDTH 521 0
DWIDTH 19 0
BBX 18 27 0 -1
BITMAP
0000290000
0000BF4000
0000BF8000
0000BF4000
0000190000
0000000000
0000594000
000BFFF800
007FFFFF40
01FFFFFFD0
07FFFFFFF0
0BFF95FFE0
1FFD002F80
2FF8000A00
3FF0000000
3FE0000000
7FE0000000
3FE0000000
3FF0000000
2FF8000900
1FFD002F40
0FFFEAFFD0
07FFFFFFF0
01FFFFFFD0
007FFFFE40
000BFFE400
0000150000
ENDCHAR
STARTCHAR Ccaron
ENCODING 268
SWIDTH 640 0
DWIDTH 23 0
BBX 22 34 1 -1
BITMAP
00002C074000
0000BF6FC000
0000BFFFD000
00001FFF4000
000007FC0000
000001F00000
000000400000
000005A50000
0001BFFFE400
000BFFFFFE00
007FFFFFFFD0
01FFFFFFFFC0
07FFFEABFF40
0FFFD0007E00
2FFE00000800
3FF800000000
7FF000000000
BFE000000000
FFD000000000
FFC000000000
FFC000000000
FFC000000000
FFD000000000
BFE000000000
7FF000000000
3FF800000000
2FFE00000800
0FFFD0007E00
07FFFEABFF40
01FFFFFFFFC0
007FFFFFFFD0
000BFFFFFE00
0001BFFFE400
000005A50000
ENDCHAR
STARTCHAR ccaron
ENCODING 269
SWIDTH 521 0
DWIDTH 19 0
BBX 18 29 0 -1
BITMAP
000780A000
000FE2F800
000FFFF800
0002FFE000
0000BF8000
00002E0000
0000040000
0000000000
0000594000
000BFFF800
007FFFFF40
01FFFFFFD0
07FFFFFFF0
0BFF95FFE0
1FFD002F80
2FF8000A00
3FF0000000
3FE0000000
7FE0000000
3FE0000000
3FF0000000
2FF8000900
1FFD002F40
0FFFEAFFD0
07FFFFFFF0
01FFFFFFD0
007FFFFE40
000BFFE400
0000150000
ENDCHAR
STARTCHAR Dcaron
ENCODING 270
SWIDTH 653 0
DWIDTH 24 0
BBX 21 33 2 0
BITMAP
000A01D00000
002FCBF00000
002FFFF40000
000BFFC00000
0001FF000000
00007C000000
000010000000
155500000000
BFFFFE400000
BFFFFFF40000
BFFFFFFE0000
BFFFFFFF8000
BFFFFFFFE000
BFD006FFF400
BFD0007FFC00
BFD0001FFE00
BFD0000BFF00
BFD00003FF40
BFD00002FF40
BFD00002FF40
BFD00002FF80
BFD00002FF40
BFD00003FF40
BFD00007FF00
BFD0000BFE00
BFD0002FFD00
BFD000BFFC00
BFD01BFFF400
BFFFFFFFE000
BFFFFFFF8000
BFFFFFFD0000
BFFFFFE00000
BFFFF9000000
ENDCHAR
STARTCHAR dcaron
ENCODING 271
SWIDTH 740 0
DWIDTH 27 0
BBX 27 28 0 -1
BITMAP
00000001550000
00000002FF0040
00000002FF07E0
00000002FF0FF4
00000002FF0FF8
00000002FF0BF4
00000002FF02F4
00005942FF02E0
000BFFF6FF02D0
007FFFFFFF0000
02FFFFFFFF0000
07FFFFFFFF0000
0FFF95FFFF0000
1FFD002FFF0000
2FF4000BFF0000
3FF00007FF0000
3FE00003FF0000
7FE00003FF0000
3FE00003FF0000
3FF00007FF0000
2FF8000BFF0000
1FFE002FFF0000
0FFFE6FFFF0000
07FFFFFFFF0000
01FFFFFFBF0000
007FFFFE1F0000
000BFFE40B0000
00001500000000
ENDCHAR
STARTCHAR Dcroat
ENCODING 272
SWIDTH 672 0
DWIDTH 24 0
BBX 24 26 0 0
BITMAP
015554000000
03FFFFF90000
03FFFFFF8000
03FFFFFFF400
03FFFFFFFD00
03FFFFFFFF40
03FF001FFFC0
03FF0002FFE0
03FF0000BFF4
03FF00003FF8
03FF40001FFC
FFFFFC000FFC
FFFFFC000FFC
FFFFFC000FFD
FFFFFC000FFC
ABFFA8000FFC
03FF00002FF8
03FF00003FF8
03FF0000BFF0
03FF0002FFE0
03FF006FFFC0
03FFFFFFFF40
03FFFFFFFD00
03FFFFFFF400
03FFFFFF8000
03FFFFE40000
ENDCHAR
STARTCHAR dcroat
ENCODING 273
SWIDTH 606 0
DWIDTH 22 0
BBX 22 28 0 -1
BITMAP
000000015500
00000017FF50
0000002FFFF0
0000002FFFF0
0000002FFFF0
0000002FFFF0
0000001BFF90
00005942FF00
000BFFF6FF00
007FFFFFFF00
02FFFFFFFF00
07FFFFFFFF00
0FFF95FFFF00
1FFD002FFF00
2FF4000BFF00
3FF00007FF00
3FE00003FF00
7FE00003FF00
3FE00003FF00
3FF00007FF00
2FF8000BFF00
1FFE002FFF00
0FFFE6FFFF00
07FFFFFFFF00
01FFFFFFBF00
007FFFFE1F00
000BFFE40B00
000015000000
ENDCHAR
STARTCHAR Emacron
ENCODING 274
SWIDTH 578 0
DWIDTH 21 0
BBX 18 30 2 0
BITMAP
003FFFF000
003FFFF000
003FFFF000
002AAAA000
1555555540
BFFFFFFFE0
BFFFFFFFE0
BFFFFFFFE0
BFFFFFFFE0
BFFFFFFFE0
BFD0000000
BFD0000000
BFD0000000
BFD0000000
BFD0000000
BFFFFFE000
BFFFFFE000
BFFFFFE000
BFFFFFE000
BFFFFFE000
BFD0000000
BFD0000000
BFD0000000
BFD0000000
BFD0000000
BFFFFFFFE0
BFFFFFFFE0
BFFFFFFFE0
BFFFFFFFE0
BFFFFFFFE0
ENDCHAR
STARTCHAR emacron
ENCODING 275
SWIDTH 524 0
DWIDTH 19 0
BBX 17 26 1 -1
BITMAP
007FFFE000
007FFFE000
007FFFE000
006AAA9000
0000000000
0001650000
006FFFE000
01FFFFFD00
0BFFFFFF40
1FFFFFFFC0
3FFE5BFF80
7FF40FFE00
BFD02FF800
FFC07FF000
FF81FFD000
FF83FF4000
FF8BFE0000
FFEFF80000
BFFFE02800
7FFFC0BD00
3FFF9BFF40
1FFFFFFFC0
07FFFFFF40
01FFFFF900
002FFF9000
0000540000
ENDCHAR
STARTCHAR Ebreve
ENCODING 276
SWIDTH 578 0
DWIDTH 21 0
BBX 18 32 2 0
BITMAP
0015054000
003F1F8000
003FAF8000
002FFF8000
000BFF0000
0001A40000
1555555540
BFFFFFFFE0
BFFFFFFFE0
BFFFFFFFE0
BFFFFFFFE0
BFFFFFFFE0
BFD0000000
BFD0000000
BFD0000000
BFD0000000
BFD0000000
BFFFFFE000
BFFFFFE000
BFFFFFE000
BFFFFFE000
BFFFFFE000
BFD0000000
BFD0000000
BFD0000000
BFD0000000
BFD0000000
BFFFFFFFE0
BFFFFFFFE0
BFFFFFFFE0
BFFFFFFFE0
BFFFFFFFE0
ENDCHAR
STARTCHAR ebreve
ENCODING 277
SWIDTH 524 0
DWIDTH 19 0
BBX 17 28 1 -1
BITMAP
0015054000
003F1F8000
003FAF8000
002FFF8000
000FFE0000
0001A40000
0000000000
0001650000
006FFFE000
01FFFFFD00
0BFFFFFF40
1FFFFFFFC0
3FFE5BFF80
7FF40FFE00
BFD02FF800
FFC07FF000
FF81FFD000
FF83FF4000
FF8BFE0000
FFEFF80000
BFFFE02800
7FFFC0BD00
3FFF9BFF40
1FFFFFFFC0
07FFFFFF40
01FFFFF900
002FFF9000
0000540000
ENDCHAR
STARTCHAR Edotaccent
ENCODING 278
SWIDTH 578 0
DWIDTH 21 0
BBX 18 31 2 0
BITMAP
0000A40000
0003FC0000
0003FD0000
0002FC0000
0000A40000
1555555540
BFFFFFFFE0
BFFFFFFFE0
BFFFFFFFE0
BFFFFFFFE0
BFFFFFFFE0
BFD0000000
BFD0000000
BFD0000000
BFD0000000
BFD0000000
BFFFFFE000
BFFFFFE000
BFFFFFE000
BFFFFFE000
BFFFFFE000
BFD0000000
BFD0000000
BFD0000000
BFD0000000
BFD0000000
BFFFFFFFE0
BFFFFFFFE0
BFFFFFFFE0
BFFFFFFFE0
BFFFFFFFE0
ENDCHAR
STARTCHAR edotaccent
ENCODING 279
SWIDTH 524 0
DWIDTH 19 0
BBX 17 27 1 -1
BITMAP
0000A40000
0002FD0000
0003FD0000
0002FC0000
0000A40000
0000000000
0001650000
006FFFE000
01FFFFFD00
0BFFFFFF40
1FFFFFFFC0
3FFE5BFF80
7FF40FFE00
BFD02FF800
FFC07FF000
FF81FFD000
FF83FF4000
FF8BFE0000
FFEFF80000
BFFFE02800
7FFFC0BD00
3FFF9BFF40
1FFFFFFFC0
07FFFFFF40
01FFFFF900
002FFF9000
0000540000
ENDCHAR
STARTCHAR Eogonek
ENCODING 280
SWIDTH 578 0
DWIDTH 21 0
BBX 18 33 2 -7
BITMAP
1555555540
BFFFFFFFE0
BFFFFFFFE0
BFFFFFFFE0
BFFFFFFFE0
BFFFFFFFE0
BFD0000000
BFD0000000
BFD0000000
BFD0000000
BFD0000000
BFFFFFE000
BFFFFFE000
BFFFFFE000
BFFFFFE000
BFFFFFE000
BFD0000000
BFD0000000
BFD0000000
BFD0000000
BFD0000000
BFFFFFFFE0
BFFFFFFFE0
BFFFFFFFE0
BFFFFFFFE0
BFFFFFFFE0
000002F400
000007E000
00000FD100
00000FFF80
00000BFFD0
000002FF40
0000005400
ENDCHAR
STARTCHAR eogonek
ENCODING 281
SWIDTH 524 0
DWIDTH 19 0
BBX 17 27 1 -7
BITMAP
0001650000
006FFFE000
01FFFFFD00
0BFFFFFF40
1FFFFFFFC0
3FFE5BFF80
7FF40FFE00
BFD02FF800
FFC07FF000
FF81FFD000
FF83FF4000
FF8BFE0000
FFEFF80000
BFFFE02800
7FFFC0BD00
3FFF9BFF40
1FFFFFFFC0
07FFFFFF40
01FFFFF900
002FFFE000
00005F8000
00003F4000
00007F1000
00007FFD00
00003FFF00
00001FF900
0000015000
ENDCHAR
STARTCHAR Ecaron
ENCODING 282
SWIDTH 578 0
DWIDTH 21 0
BBX 18 33 2 0
BITMAP
001D074000
007F5FD000
007FFFD000
001FFF4000
0003FD0000
0000F40000
0000100000
1555555540
BFFFFFFFE0
BFFFFFFFE0
BFFFFFFFE0
BFFFFFFFE0
BFFFFFFFE0
BFD0000000
BFD0000000
BFD0000000
BFD0000000
BFD0000000
BFFFFFE000
BFFFFFE000
BFFFFFE000
BFFFFFE000
BFFFFFE000
BFD0000000
BFD0000000
BFD0000000
BFD0000000
BFD0000000
BFFFFFFFE0
BFFFFFFFE0
BFFFFFFFE0
BFFFFFFFE0
BFFFFFFFE0
ENDCHAR
STARTCHAR ecaron
ENCODING 283
SWIDTH 524 0
DWIDTH 19 0
BBX 17 30 1 -1
BITMAP
0004000000
001D078000
007F5FD000
007FFFE000
001FFF4000
0003FD0000
0000B40000
0000100000
0000000000
0001650000
006FFFE000
01FFFFFD00
0BFFFFFF40
1FFFFFFFC0
3FFE5BFF80
7FF40FFE00
BFD02FF800
FFC07FF000
FF81FFD000
FF83FF4000
FF8BFE0000
FFEFF80000
BFFFE02800
7FFFC0BD00
3FFF9BFF40
1FFFFFFFC0
07FFFFFF40
01FFFFF900
002FFF9000
0000540000
ENDCHAR
STARTCHAR Gcircumflex
ENCODING 284
SWIDTH 665 0
DWIDTH 24 0
BBX 22 34 1 -1
BITMAP
000001800000
000007F00000
00001FFD0000
00007FFF4000
0001FFBFC000
00007D1F4000
000024060000
000005550000
0001BFFFE400
000BFFFFFE00
007FFFFFFFC0
01FFFFFFFFC0
07FFFEABFF40
0FFFD0007E00
2FFE00000800
3FF800000000
7FF000000000
BFE000000000
FFD000000000
FFC000000000
FFC000006A90
FFC000007FD0
FFD000007FD0
BFE000007FD0
7FF000007FD0
3FF800007FD0
2FFE00007FD0
0FFFD000BFD0
07FFFEABFFD0
01FFFFFFFFD0
007FFFFFFFD0
001BFFFFFE00
0001BFFFE400
000005A50000
ENDCHAR
STARTCHAR gcircumflex
ENCODING 285
SWIDTH 607 0
DWIDTH 22 0
BBX 19 36 1 -8
BITMAP
0000600000
0001F80000
0007FF0000
002FFFD000
007FEFF000
002F47D000
0008014000
0000000000
0001650000
002FFFD018
01FFFFF87C
07FFFFFFFC
1FFFFFFFFC
3FFE57FFFC
7FF400BFFC
BFD0002FFC
FFC0001FFC
FF80000FFC
FF80000BFC
FF80000FFC
FFC0001FFC
BFE0002FFC
7FF400BFFC
3FFF9BFFFC
1FFFFFFFFC
0BFFFFFFFC
01FFFFFFFC
002FFFEFFC
0000542FF8
000000BFF4
0002ABFFE0
0003FFFFC0
0003FFFF40
0003FFF800
0003FF9000
0001500000
ENDCHAR
STARTCHAR Gbreve
ENCODING 286
SWIDTH 665 0
DWIDTH 24 0
BBX 22 34 1 -1
BITMAP
000015150000
00007E2F4000
00007FBF4000
00003FFF4000
00001FFE0000
000001A40000
000000000000
000005550000
0001BFFFE400
000BFFFFFE00
007FFFFFFFC0
01FFFFFFFFC0
07FFFEABFF40
0FFFD0007E00
2FFE00000800
3FF800000000
7FF000000000
BFE000000000
FFD000000000
FFC000000000
FFC000006A90
FFC000007FD0
FFD000007FD0
BFE000007FD0
7FF000007FD0
3FF800007FD0
2FFE00007FD0
0FFFD000BFD0
07FFFEABFFD0
01FFFFFFFFD0
007FFFFFFFD0
001BFFFFFE00
0001BFFFE400
000005A50000
ENDCHAR
STARTCHAR gbreve
ENCODING 287
SWIDTH 607 0
DWIDTH 22 0
BBX 19 35 1 -8
BITMAP
0015454000
002F8FC000
002FEFD000
001FFFC000
000BFF4000
0001640000
0000000000
0001650000
002FFFD018
01FFFFF87C
07FFFFFFFC
1FFFFFFFFC
3FFE57FFFC
7FF400BFFC
BFD0002FFC
FFC0001FFC
FF80000FFC
FF80000BFC
FF80000FFC
FFC0001FFC
BFE0002FFC
7FF400BFFC
3FFF9BFFFC
1FFFFFFFFC
0BFFFFFFFC
01FFFFFFFC
002FFFEFFC
0000542FF8
000000BFF4
0002ABFFE0
0003FFFFC0
0003FFFF40
0003FFF800
0003FF9000
0001500000
ENDCHAR
STARTCHAR Gdotaccent
ENCODING 288
SWIDTH 665 0
DWIDTH 24 0
BBX 22 33 1 -1
BITMAP
000002900000
00000BF40000
00000BF80000
00000BF40000
000001900000
000000000000
000005550000
0001BFFFE400
000BFFFFFE00
007FFFFFFFC0
01FFFFFFFFC0
07FFFEABFF40
0FFFD0007E00
2FFE00000800
3FF800000000
7FF000000000
BFE000000000
FFD000000000
FFC000000000
FFC000006A90
FFC000007FD0
FFD000007FD0
BFE000007FD0
7FF000007FD0
3FF800007FD0
2FFE00007FD0
0FFFD000BFD0
07FFFEABFFD0
01FFFFFFFFD0
007FFFFFFFD0
001BFFFFFE00
0001BFFFE400
000005A50000
ENDCHAR
STARTCHAR gdotaccent
ENCODING 289
SWIDTH 607 0
DWIDTH 22 0
BBX 19 34 1 -8
BITMAP
0000A40000
0002FD0000
0003FD0000
0002FD0000
0000A40000
0000000000
0001650000
002FFFD018
01FFFFF87C
07FFFFFFFC
1FFFFFFFFC
3FFE57FFFC
7FF400BFFC
BFD0002FFC
FFC0001FFC
FF80000FFC
FF80000BFC
FF80000FFC
FFC0001FFC
BFE0002FFC
7FF400BFFC
3FFF9BFFFC
1FFFFFFFFC
0BFFFFFFFC
01FFFFFFFC
002FFFEFFC
0000542FF8
000000BFF4
0002ABFFE0
0003FFFFC0
0003FFFF40
0003FFF800
0003FF9000
0001500000
ENDCHAR
STARTCHAR Gcommaaccent
ENCODING 290
SWIDTH 665 0
DWIDTH 24 0
BBX 22 35 1 -9
BITMAP
000005550000
0001BFFFE400
000BFFFFFE00
007FFFFFFFC0
01FFFFFFFFC0
07FFFEABFF40
0FFFD0007E00
2FFE00000800
3FF800000000
7FF000000000
BFE000000000
FFD000000000
FFC000000000
FFC000006A90
FFC000007FD0
FFD000007FD0
BFE000007FD0
7FF000007FD0
3FF800007FD0
2FFE00007FD0
0FFFD000BFD0
07FFFEABFFD0
01FFFFFFFFD0
007FFFFFFFD0
001BFFFFFE00
0001BFFFE400
000005A50000
000000400000
000007F00000
00000FF80000
00000FF80000
00000BF80000
000001F40000
000001F00000
000001D00000
ENDCHAR
STARTCHAR gcommaaccent
ENCODING 291
SWIDTH 607 0
DWIDTH 22 0
BBX 19 37 1 -8
BITMAP
0000500000
0000F40000
0002E00000
0003F80000
0003FD0000
0003FE0000
0003FD0000
0000A40000
0000000000
0001650000
002FFFD018
01FFFFF87C
07FFFFFFFC
1FFFFFFFFC
3FFE57FFFC
7FF400BFFC
BFD0002FFC
FFC0001FFC
FF80000FFC
FF80000BFC
FF80000FFC
FFC0001FFC
BFE0002FFC
7FF400BFFC
3FFF9BFFFC
1FFFFFFFFC
0BFFFFFFFC
01FFFFFFFC
002FFFEFFC
0000542FF8
000000BFF4
0002ABFFE0
0003FFFFC0
0003FFFF40
0003FFF800
0003FF9000
0001500000
ENDCHAR
STARTCHAR Hcircumflex
ENCODING 292
SWIDTH 689 0
DWIDTH 25 0
BBX 21 33 2 0
BITMAP
000018000000
00007F000000
0001FFD00000
0007FFF40000
001FFBFC0000
0007D1F40000
000240600000
154000005500
BFD00002FF80
BFD00002FF80
BFD00002FF80
BFD00002FF80
BFD00002FF80
BFD00002FF80
BFD00002FF80
BFD00002FF80
BFD00002FF80
BFD00002FF80
BFFFFFFFFF80
BFFFFFFFFF80
BFFFFFFFFF80
BFFFFFFFFF80
BFFFFFFFFF80
BFD00002FF80
BFD00002FF80
BFD00002FF80
BFD00002FF80
BFD00002FF80
BFD00002FF80
BFD00002FF80
BFD00002FF80
BFD00002FF80
BFD00002FF80
ENDCHAR
STARTCHAR hcircumflex
ENCODING 293
SWIDTH 562 0
DWIDTH 20 0
BBX 18 27 1 0
BITMAP
1550060000
7FE01F8000
7FE0BFF000
7FE2FFFC00
7FE7FEFE00
7FE2F07D00
7FE0801400
7FE0100000
7FEBFF8000
7FFFFFF400
7FFFFFFD00
7FFFFFFF40
7FFFAFFF80
7FFD02FFC0
7FF000BFD0
7FE0007FE0
7FE0007FE0
7FE0007FE0
7FE0007FE0
7FE0007FE0
7FE0007FE0
7FE0007FE0
7FE0007FE0
7FE0007FE0
7FE0007FE0
7FE0007FE0
7FE0007FE0
ENDCHAR
STARTCHAR Hbar
ENCODING 294
SWIDTH 689 0
DWIDTH 25 0
BBX 25 26 0 0
BITMAP
01540000055000
0BFD00002FF800
0BFD00002FF800
0BFD00002FF800
7FFFFFFFFFFF40
7FFFFFFFFFFF40
7FFFFFFFFFFF40
7FFFFFFFFFFF40
6FFEAAAABFFE40
0BFD00002FF800
0BFD00002FF800
0BFFFFFFFFF800
0BFFFFFFFFF800
0BFFFFFFFFF800
0BFFFFFFFFF800
0BFFFFFFFFF800
0BFD00002FF800
0BFD00002FF800
0BFD00002FF800
0BFD00002FF800
0BFD00002FF800
0BFD00002FF800
0BFD00002FF800
0BFD00002FF800
0BFD00002FF800
0BFD00002FF800
ENDCHAR
STARTCHAR hbar
ENCODING 295
SWIDTH 562 0
DWIDTH 20 0
BBX 19 27 0 0
BITMAP
0554000000
5FF9000000
FFFF400000
FFFF400000
FFFF400000
FFFF400000
5FF9000000
1FF8040000
1FFAFFE000
1FFFFFFD00
1FFFFFFF40
1FFFFFFFD0
1FFFEBFFE0
1FFF40BFF0
1FFC002FF4
1FF8001FF8
1FF8001FF8
1FF8001FF8
1FF8001FF8
1FF8001FF8
1FF8001FF8
1FF8001FF8
1FF8001FF8
1FF8001FF8
1FF8001FF8
1FF8001FF8
1FF8001FF8
ENDCHAR
STARTCHAR Itilde
ENCODING 296
SWIDTH 270 0
DWIDTH 10 0
BBX 12 33 -1 0
BITMAP
1A9069
7FF4BE
BFFEFE
FFFFFE
FE2FFC
BE07F4
140000
005500
02FF40
02FF40
02FF40
02FF40
02FF40
02FF40
02FF40
02FF40
02FF40
02FF40
02FF40
02FF40
02FF40
02FF40
02FF40
02FF40
02FF40
02FF40
02FF40
02FF40
02FF40
02FF40
02FF40
02FF40
02FF40
ENDCHAR
STARTCHAR itilde
ENCODING 297
SWIDTH 235 0
DWIDTH 8 0
BBX 12 26 -2 0
BITMAP
0A906A
2FF87F
7FFEFF
BFFFFF
7F1FFD
7F06F8
140000
00AA80
01FF80
01FF80
01FF80
01FF80
01FF80
01FF80
01FF80
01FF80
01FF80
01FF80
01FF80
01FF80
01FF80
01FF80
01FF80
01FF80
01FF80
01FF80
ENDCHAR
STARTCHAR Imacron
ENCODING 298
SWIDTH 270 0
DWIDTH 10 0
BBX 10 30 0 0
BITMAP
BFFFD0
BFFFD0
BFFFD0
6AAA90
015400
0BFD00
0BFD00
0BFD00
0BFD00
0BFD00
0BFD00
0BFD00
0BFD00
0BFD00
0BFD00
0BFD00
0BFD00
0BFD00
0BFD00
0BFD00
0BFD00
0BFD00
0BFD00
0BFD00
0BFD00
0BFD00
0BFD00
0BFD00
0BFD00
0BFD00
ENDCHAR
STARTCHAR imacron
ENCODING 299
SWIDTH 235 0
DWIDTH 8 0
BBX 9 24 0 0
BITMAP
FFFF80
FFFF80
FFFF80
AAAA80
000000
0AA800
1FF800
1FF800
1FF800
1FF800
1FF800
1FF800
1FF800
1FF800
1FF800
1FF800
1FF800
1FF800
1FF800
1FF800
1FF800
1FF800
1FF800
1FF800
ENDCHAR
STARTCHAR Ibreve
ENCODING 300
SWIDTH 270 0
DWIDTH 10 0
BBX 8 32 1 0
BITMAP
5415
FD7E
FEBF
BFFE
2FFC
0690
0550
2FF4
2FF4
2FF4
2FF4
2FF4
2FF4
2FF4
2FF4
2FF4
2FF4
2FF4
2FF4
2FF4
2FF4
2FF4
2FF4
2FF4
2FF4
2FF4
2FF4
2FF4
2FF4
2FF4
2FF4
2FF4
ENDCHAR
STARTCHAR ibreve
ENCODING 301
SWIDTH 235 0
DWIDTH 8 0
BBX 8 26 0 0
BITMAP
5515
BD3F
BFBF
7FFF
2FFD
0590
0000
0AA8
1FF8
1FF8
1FF8
1FF8
1FF8
1FF8
1FF8
1FF8
1FF8
1FF8
1FF8
1FF8
1FF8
1FF8
1FF8
1FF8
1FF8
1FF8
ENDCHAR
STARTCHAR Iogonek
ENCODING 302
SWIDTH 270 0
DWIDTH 10 0
BBX 8 33 1 -7
BITMAP
0550
2FF4
2FF4
2FF4
2FF4
2FF4
2FF4
2FF4
2FF4
2FF4
2FF4
2FF4
2FF4
2FF4
2FF4
2FF4
2FF4
2FF4
2FF4
2FF4
2FF4
2FF4
2FF4
2FF4
2FF4
2FF4
1F40
7E00
BE10
BFF8
7FFE
2FF8
0540
ENDCHAR
STARTCHAR iogonek
ENCODING 303
SWIDTH 235 0
DWIDTH 8 0
BBX 8 34 0 -7
BITMAP
0BE4
1FFC
3FFD
3FFD
2FFC
0BF4
0040
0000
0AA8
1FF8
1FF8
1FF8
1FF8
1FF8
1FF8
1FF8
1FF8
1FF8
1FF8
1FF8
1FF8
1FF8
1FF8
1FF8
1FF8
1FF8
1FF8
0BC0
2F40
3F54
7FFD
3FFF
0FFD
0150
ENDCHAR
STARTCHAR Idotaccent
ENCODING 304
SWIDTH 270 0
DWIDTH 10 0
BBX 6 31 2 0
BITMAP
1A00
3F80
7FC0
3F80
1A00
1540
BFD0
BFD0
BFD0
BFD0
BFD0
BFD0
BFD0
BFD0
BFD0
BFD0
BFD0
BFD0
BFD0
BFD0
BFD0
BFD0
BFD0
BFD0
BFD0
BFD0
BFD0
BFD0
BFD0
BFD0
BFD0
ENDCHAR
STARTCHAR dotlessi
ENCODING 305
SWIDTH 235 0
DWIDTH 8 0
BBX 6 19 1 0
BITMAP
2AA0
7FE0
7FE0
7FE0
7FE0
7FE0
7FE0
7FE0
7FE0
7FE0
7FE0
7FE0
7FE0
7FE0
7FE0
7FE0
7FE0
7FE0
7FE0
ENDCHAR
STARTCHAR IJ
ENCODING 306
SWIDTH 687 0
DWIDTH 25 0
BBX 21 26 2 0
BITMAP
154000005500
BFD00001FF80
BFD00001FF80
BFD00001FF80
BFD00001FF80
BFD00001FF80
BFD00001FF80
BFD00001FF80
BFD00001FF80
BFD00001FF80
BFD00001FF80
BFD00001FF80
BFD00001FF80
BFD00001FF80
BFD00001FF80
BFD00001FF80
BFD00001FF80
BFD00002FF80
BFD00003FF40
BFD0000BFF00
BFD0507FFE00
BFD0FFFFFC00
BFD0FFFFF400
BFD0FFFFD000
BFD0FFFE0000
BFD0BFA40000
ENDCHAR
STARTCHAR ij
ENCODING 307
SWIDTH 474 0
DWIDTH 17 0
BBX 15 35 1 -8
BITMAP
2F900BE0
7FF03FF8
FFF47FFC
FFF47FFC
BFF03FF8
2FD01FE0
01000100
00000000
2AA02AA4
7FE02FF4
7FE02FF4
7FE02FF4
7FE02FF4
7FE02FF4
7FE02FF4
7FE02FF4
7FE02FF4
7FE02FF4
7FE02FF4
7FE02FF4
7FE02FF4
7FE02FF4
7FE02FF4
7FE02FF4
7FE02FF4
7FE02FF0
7FE03FF0
0000BFE0
0002FFD0
0AAFFF80
0FFFFF40
0FFFFD00
0FFFE000
0FFE4000
01000000
ENDCHAR
STARTCHAR Jcircumflex
ENCODING 308
SWIDTH 416 0
DWIDTH 15 0
BBX 15 33 0 0
BITMAP
00001800
00007F00
0001FFC0
0007FFF4
001FFBFC
000BD1F4
00024050
00005540
0000FFC0
0000FFC0
0000FFC0
0000FFC0
0000FFC0
0000FFC0
0000FFC0
0000FFC0
0000FFC0
0000FFC0
0000FFC0
0000FFC0
0000FFC0
0000FFC0
0000FFC0
0000FFC0
0001FF80
0002FF80
000BFF40
506FFE00
BFFFFD00
BFFFF400
BFFFD000
BFFE4000
7FE40000
ENDCHAR
STARTCHAR jcircumflex
ENCODING 309
SWIDTH 237 0
DWIDTH 9 0
BBX 15 35 -6 -8
BITMAP
00001800
00007E00
0001FFC0
000BFFF4
001FFBFC
000BD1F4
00020050
00000000
0000AA80
0000FF80
0000FF80
0000FF80
0000FF80
0000FF80
0000FF80
0000FF80
0000FF80
0000FF80
0000FF80
0000FF80
0000FF80
0000FF80
0000FF80
0000FF80
0000FF80
0001FF80
0002FF80
0007FF40
001FFF00
6ABFFD00
7FFFF800
7FFFE000
7FFF4000
7FF80000
14000000
ENDCHAR
STARTCHAR Kcommaaccent
ENCODING 310
SWIDTH 625 0
DWIDTH 23 0
BBX 21 35 2 -9
BITMAP
154000015500
BFD0000BFF00
BFD0002FFD00
BFD0007FF400
BFD000FFE000
BFD002FFC000
BFD007FF4000
BFD01FFD0000
BFD03FF80000
BFD0BFF00000
BFD1FFD00000
BFD7FF800000
BFDFFFC00000
BFFFFFE00000
BFFFFFF40000
BFFFFFF80000
BFFF9FFD0000
BFFF0FFF0000
BFFD07FF4000
BFF402FFC000
BFE001FFD000
BFD000BFF000
BFD0003FF800
BFD0002FFC00
BFD0000FFE00
BFD0000BFF40
000000000000
000010000000
0001F8000000
0003FD000000
0003FE000000
0002FD000000
0000BD000000
0000B8000000
0000B4000000
ENDCHAR
STARTCHAR kcommaaccent
ENCODING 311
SWIDTH 539 0
DWIDTH 19 0
BBX 18 36 1 -9
BITMAP
1550000000
7FE0000000
7FE0000000
7FE0000000
7FE0000000
7FE0000000
7FE0000000
7FE0000000
7FE0006AA0
7FE001FFD0
7FE003FF80
7FE00BFE00
7FE02FFC00
7FE07FF400
7FE1FFD000
7FE3FF8000
7FEBFF4000
7FFFFFC000
7FFFFFD000
7FFFFFF000
7FFFAFF800
7FFF1FFD00
7FFD0BFE00
7FF403FF40
7FE002FFC0
7FE000FFD0
7FE0007FF0
0000000000
0000400000
0003F40000
000BFC0000
000BFC0000
0007FC0000
0001F80000
0001F40000
0001E00000
ENDCHAR
STARTCHAR kgreenlandic
ENCODING 312
SWIDTH 539 0
DWIDTH 19 0
BBX 18 19 1 0
BITMAP
3FE0006AA0
7FE001FFD0
7FE003FF80
7FE00BFE00
7FE02FFC00
7FE07FF400
7FE1FFD000
7FE3FF8000
7FEBFF4000
7FFFFFC000
7FFFFFD000
7FFFFFF000
7FFFAFF800
7FFF1FFD00
7FFD0BFE00
7FF403FF40
7FE002FFC0
7FE000FFD0
7FE0007FF0
ENDCHAR
STARTCHAR Lacute
ENCODING 313
SWIDTH 562 0
DWIDTH 20 0
BBX 18 32 2 0
BITMAP
00000D0000
00003F0000
0001FF8000
0007FFD000
001FFE4000
000BF40000
1543800000
BFD0000000
BFD0000000
BFD0000000
BFD0000000
BFD0000000
BFD0000000
BFD0000000
BFD0000000
BFD0000000
BFD0000000
BFD0000000
BFD0000000
BFD0000000
BFD0000000
BFD0000000
BFD0000000
BFD0000000
BFD0000000
BFD0000000
BFD0000000
BFFFFFFFF0
BFFFFFFFF0
BFFFFFFFF0
BFFFFFFFF0
BFFFFFFFF0
ENDCHAR
STARTCHAR lacute
ENCODING 314
SWIDTH 235 0
DWIDTH 8 0
BBX 11 35 1 0
BITMAP
000740
001FC0
007FE0
01FFF4
07FF80
03FD00
01E000
000000
155000
7FE000
7FE000
7FE000
7FE000
7FE000
7FE000
7FE000
7FE000
7FE000
7FE000
7FE000
7FE000
7FE000
7FE000
7FE000
7FE000
7FE000
7FE000
7FE000
7FE000
7FE000
7FE000
7FE000
7FE000
7FE000
7FE000
ENDCHAR
STARTCHAR Lcommaaccent
ENCODING 315
SWIDTH 562 0
DWIDTH 20 0
BBX 18 35 2 -9
BITMAP
1540000000
BFD0000000
BFD0000000
BFD0000000
BFD0000000
BFD0000000
BFD0000000
BFD0000000
BFD0000000
BFD0000000
BFD0000000
BFD0000000
BFD0000000
BFD0000000
BFD0000000
BFD0000000
BFD0000000
BFD0000000
BFD0000000
BFD0000000
BFD0000000
BFFFFFFFF0
BFFFFFFFF0
BFFFFFFFF0
BFFFFFFFF0
BFFFFFFFF0
0000000000
0000400000
000BE00000
000FF40000
001FF40000
000BF40000
0002F00000
0002E00000
0002C00000
ENDCHAR
STARTCHAR lcommaaccent
ENCODING 316
SWIDTH 235 0
DWIDTH 8 0
BBX 6 36 1 -9
BITMAP
1550
7FE0
7FE0
7FE0
7FE0
7FE0
7FE0
7FE0
7FE0
7FE0
7FE0
7FE0
7FE0
7FE0
7FE0
7FE0
7FE0
7FE0
7FE0
7FE0
7FE0
7FE0
7FE0
7FE0
7FE0
7FE0
7FE0
0000
0100
1F80
3FE0
3FE0
2FD0
0BD0
0B80
0B40
ENDCHAR
STARTCHAR Lcaron
ENCODING 317
SWIDTH 562 0
DWIDTH 20 0
BBX 18 26 2 0
BITMAP
1540000000
BFD0BE0000
BFD1FF4000
BFD1FF4000
BFD0FF4000
BFD02F0000
BFD03E0000
BFD0280000
BFD0000000
BFD0000000
BFD0000000
BFD0000000
BFD0000000
BFD0000000
BFD0000000
BFD0000000
BFD0000000
BFD0000000
BFD0000000
BFD0000000
BFD0000000
BFFFFFFFF0
BFFFFFFFF0
BFFFFFFFF0
BFFFFFFFF0
BFFFFFFFF0
ENDCHAR
STARTCHAR lcaron
ENCODING 318
SWIDTH 369 0
DWIDTH 13 0
BBX 13 27 1 0
BITMAP
15500000
7FE00000
7FE0BD00
7FE1FF00
7FE1FF40
7FE0FF00
7FE02F00
7FE03D00
7FE03800
7FE00000
7FE00000
7FE00000
7FE00000
7FE00000
7FE00000
7FE00000
7FE00000
7FE00000
7FE00000
7FE00000
7FE00000
7FE00000
7FE00000
7FE00000
7FE00000
7FE00000
7FE00000
ENDCHAR
STARTCHAR Ldot
ENCODING 319
SWIDTH 745 0
DWIDTH 27 0
BBX 23 26 2 0
BITMAP
154000000000
BFD000000000
BFD000000000
BFD000000000
BFD000000000
BFD000000000
BFD000000000
BFD000000000
BFD000000000
BFD000000000
BFD000000190
BFD000001FF4
BFD000002FFC
BFD000003FFC
BFD000002FFC
BFD000000FF4
BFD000000140
BFD000000000
BFD000000000
BFD000000000
BFD000000000
BFFFFFFFF000
BFFFFFFFF000
BFFFFFFFF000
BFFFFFFFF000
BFFFFFFFF000
ENDCHAR
STARTCHAR ldotaccent
ENCODING 320
SWIDTH 463 0
DWIDTH 17 0
BBX 14 27 1 0
BITMAP
15500000
7FE00000
7FE00000
7FE00000
7FE00000
7FE00000
7FE00000
7FE00000
7FE00000
7FE00000
7FE00000
7FE00500
7FE07FD0
7FE0BFE0
7FE0FFF0
7FE0BFE0
7FE07FD0
7FE00500
7FE00000
7FE00000
7FE00000
7FE00000
7FE00000
7FE00000
7FE00000
7FE00000
7FE00000
ENDCHAR
STARTCHAR Lslash
ENCODING 321
SWIDTH 585 0
DWIDTH 21 0
BBX 21 26 0 0
BITMAP
015500000000
02FF40000000
02FF40000000
02FF40000000
02FF40000000
02FF40000000
02FF40000000
02FF40000000
02FF48000000
02FFBC000000
02FFFC000000
02FFFC000000
07FFFC000000
7FFFE0000000
BFFF40000000
BFFF40000000
BFFF40000000
B7FF40000000
42FF40000000
02FF40000000
02FF40000000
02FFFFFFFF80
02FFFFFFFF80
02FFFFFFFF80
02FFFFFFFF80
02FFFFFFFF80
ENDCHAR
STARTCHAR lslash
ENCODING 322
SWIDTH 319 0
DWIDTH 12 0
BBX 11 27 0 0
BITMAP
015500
02FF00
02FF00
02FF00
02FF00
02FF00
02FF00
02FF00
02FF00
02FF08
02FFBC
02FFFC
02FFFC
07FFFC
6FFFE0
BFFF40
BFFF00
BFFF00
B6FF00
42FF00
02FF00
02FF00
02FF00
02FF00
02FF00
02FF00
02FF00
ENDCHAR
STARTCHAR Nacute
ENCODING 323
SWIDTH 689 0
DWIDTH 25 0
BBX 21 33 2 0
BITMAP
000000700000
000001F80000
000007FE0000
00001FFF4000
00007FF80000
00003FD00000
00001E000000
154000005500
BFF00002FF80
BFF80002FF80
BFFD0002FF80
BFFF0002FF80
BFFF4002FF80
BFFFC002FF80
BFFFE002FF80
BFFFF402FF80
BFFFF802FF80
BFDFFD02FF80
BFD7FF02FF80
BFD2FF82FF80
BFD1FFD2FF80
BFD0BFE2FF80
BFD03FF6FF80
BFD01FFEFF80
BFD00FFFFF80
BFD007FFFF80
BFD002FFFF80
BFD000FFFF80
BFD000BFFF80
BFD0003FFF80
BFD0001FFF80
BFD0000BFF80
BFD00007FF80
ENDCHAR
STARTCHAR nacute
ENCODING 324
SWIDTH 562 0
DWIDTH 20 0
BBX 18 28 1 0
BITMAP
000000A000
000002F400
00000BFD00
00002FFE00
0000BFF400
00007F8000
00002D0000
0000000000
0000100000
241BFF8000
7DBFFFF400
7FFFFFFD00
7FFFFFFF40
7FFFAFFF80
7FFD02FFC0
7FF000BFD0
7FE0007FE0
7FE0003FE0
7FE0003FE0
7FE0003FE0
7FE0003FE0
7FE0003FE0
7FE0003FE0
7FE0003FE0
7FE0003FE0
7FE0003FE0
7FE0003FE0
7FE0003FE0
ENDCHAR
STARTCHAR Ncommaaccent
ENCODING 325
SWIDTH 689 0
DWIDTH 25 0
BBX 21 35 2 -9
BITMAP
154000005500
BFF00002FF80
BFF80002FF80
BFFD0002FF80
BFFF0002FF80
BFFF4002FF80
BFFFC002FF80
BFFFE002FF80
BFFFF402FF80
BFFFF802FF80
BFDFFD02FF80
BFD7FF02FF80
BFD2FF82FF80
BFD1FFD2FF80
BFD0BFE2FF80
BFD03FF6FF80
BFD01FFEFF80
BFD00FFFFF80
BFD007FFFF80
BFD002FFFF80
BFD000FFFF80
BFD000BFFF80
BFD0003FFF80
BFD0001FFF80
BFD0000BFF80
BFD00007FF80
000000000000
000004000000
00007F400000
0000FF800000
0000FF800000
00007F800000
00001F400000
00001F000000
00001D000000
ENDCHAR
STARTCHAR ncommaaccent
ENCODING 326
SWIDTH 562 0
DWIDTH 20 0
BBX 18 29 1 -9
BITMAP
0000100000
241BFF8000
7DBFFFF400
7FFFFFFD00
7FFFFFFF40
7FFFAFFF80
7FFD02FFC0
7FF000BFD0
7FE0007FE0
7FE0003FE0
7FE0003FE0
7FE0003FE0
7FE0003FE0
7FE0003FE0
7FE0003FE0
7FE0003FE0
7FE0003FE0
7FE0003FE0
7FE0003FE0
7FE0003FE0
0000000000
0000100000
0002F80000
0003FD0000
0007FD0000
0002FD0000
0000BC0000
0000B80000
0000B00000
ENDCHAR
STARTCHAR Ncaron
ENCODING 327
SWIDTH 689 0
DWIDTH 25 0
BBX 21 33 2 0
BITMAP
000780A00000
000FE2F80000
000FFFF80000
0002FFE00000
0000BF800000
00002E000000
000004000000
154000005500
BFF00002FF80
BFF80002FF80
BFFD0002FF80
BFFF0002FF80
BFFF4002FF80
BFFFC002FF80
BFFFE002FF80
BFFFF402FF80
BFFFF802FF80
BFDFFD02FF80
BFD7FF02FF80
BFD2FF82FF80
BFD1FFD2FF80
BFD0BFE2FF80
BFD03FF6FF80
BFD01FFEFF80
BFD00FFFFF80
BFD007FFFF80
BFD002FFFF80
BFD000FFFF80
BFD000BFFF80
BFD0003FFF80
BFD0001FFF80
BFD0000BFF80
BFD00007FF80
ENDCHAR
STARTCHAR ncaron
ENCODING 328
SWIDTH 562 0
DWIDTH 20 0
BBX 18 27 1 0
BITMAP
001D074000
007F5FD000
007FFFD000
001FFF4000
0003FD0000
0000F40000
0000100000
0000100000
241BFF8000
7DBFFFF400
7FFFFFFD00
7FFFFFFF40
7FFFAFFF80
7FFD02FFC0
7FF000BFD0
7FE0007FE0
7FE0003FE0
7FE0003FE0
7FE0003FE0
7FE0003FE0
7FE0003FE0
7FE0003FE0
7FE0003FE0
7FE0003FE0
7FE0003FE0
7FE0003FE0
7FE0003FE0
ENDCHAR
STARTCHAR napostrophe
ENCODING 329
SWIDTH 694 0
DWIDTH 25 0
BBX 24 26 0 0
BITMAP
040000000000
7F0000000000
FF8000000000
FF8000000000
BF8000000000
1F4000000000
1F0000000000
1D0601BFE400
0007DBFFFF00
0007FFFFFFD0
0007FFFFFFF0
0007FFFAFFF8
0007FF802FFC
0007FF000FFD
0007FE0007FD
0007FD0007FD
0007FD0007FD
0007FD0007FD
0007FD0007FD
0007FD0007FD
0007FD0007FD
0007FD0007FD
0007FD0007FD
0007FD0007FD
0007FD0007FD
0007FD0007FD
ENDCHAR
STARTCHAR Eng
ENCODING 330
SWIDTH 689 0
DWIDTH 25 0
BBX 21 34 2 -8
BITMAP
154000005500
BFF00002FF80
BFF80002FF80
BFFD0002FF80
BFFF0002FF80
BFFF4002FF80
BFFFC002FF80
BFFFE002FF80
BFFFF402FF80
BFFFF802FF80
BFDFFD02FF80
BFD7FF02FF80
BFD2FF82FF80
BFD1FFD2FF80
BFD0BFE2FF80
BFD03FF6FF80
BFD01FFEFF80
BFD00FFFFF80
BFD007FFFF80
BFD002FFFF80
BFD000FFFF80
BFD000BFFF80
BFD0003FFF80
BFD0001FFF40
BFD0000BFF40
BFD00007FF40
0000000FFF00
0000407FFD00
0000FFFFFC00
0000FFFFF400
0000FFFFD000
0000FFFE4000
0000FFE40000
000004000000
ENDCHAR
STARTCHAR eng
ENCODING 331
SWIDTH 562 0
DWIDTH 20 0
BBX 18 28 1 -8
BITMAP
0000100000
241BFF8000
7DBFFFF400
7FFFFFFD00
7FFFFFFF40
7FFFAFFF80
7FFD02FFC0
7FF000BFD0
7FE0007FE0
7FE0003FE0
7FE0003FE0
7FE0003FE0
7FE0003FE0
7FE0003FE0
7FE0007FE0
7FE0007FE0
7FE0007FE0
7FE0007FE0
7FE0007FE0
7FE000BFD0
000001FFC0
000007FF80
001ABFFF40
001FFFFE00
001FFFF800
001FFFD000
001FF90000
0005000000
ENDCHAR
STARTCHAR Omacron
ENCODING 332
SWIDTH 777 0
DWIDTH 28 0
BBX 26 32 1 -1
BITMAP
00007FFFD00000
00007FFFD00000
00007FFFD00000
00006AAA900000
00000000000000
00000555000000
0001BFFFE40000
000BFFFFFE0000
007FFFFFFFD000
01FFFFFFFFF400
07FFFEABFFFD00
0FFFD0007FFF00
2FFE00000BFF80
3FF8000002FFC0
7FF0000000FFD0
BFE0000000BFE0
FFD00000007FF0
FFC00000003FF0
FFC00000003FF0
FFC00000003FF0
FFD00000007FF0
BFE0000000BFE0
7FF0000000FFD0
3FF8000002FFC0
2FFE00000BFF80
0FFFD0007FFF00
07FFFEABFFFD00
01FFFFFFFFF400
007FFFFFFFD000
000BFFFFFE4000
0001BFFFE40000
000005A5000000
ENDCHAR
STARTCHAR omacron
ENCODING 333
SWIDTH 579 0
DWIDTH 21 0
BBX 20 26 0 -1
BITMAP
000FFFFC00
000FFFFC00
000FFFFC00
000AAAA800
0000000000
0000594000
000BFFF800
007FFFFF40
02FFFFFFD0
07FFFFFFF4
0FFF95BFF8
1FFD001FFD
2FF4000BFE
3FF00003FF
3FE00003FF
7FE00003FF
3FE00003FF
3FF00007FE
2FF8000BFE
1FFE002FFD
0FFFE6FFF8
07FFFFFFF0
01FFFFFFD0
007FFFFE00
0007FFE400
0000150000
ENDCHAR
STARTCHAR Obreve
ENCODING 334
SWIDTH 777 0
DWIDTH 28 0
BBX 26 34 1 -1
BITMAP
00001505400000
00003F4FC00000
00002FAFC00000
00001FFF800000
00000BFF000000
000001A4000000
00000000000000
00000555000000
0001BFFFE40000
000BFFFFFE0000
007FFFFFFFD000
01FFFFFFFFF400
07FFFEABFFFD00
0FFFD0007FFF00
2FFE00000BFF80
3FF8000002FFC0
7FF0000000FFD0
BFE0000000BFE0
FFD00000007FF0
FFC00000003FF0
FFC00000003FF0
FFC00000003FF0
FFD00000007FF0
BFE0000000BFE0
7FF0000000FFD0
3FF8000002FFC0
2FFE00000BFF80
0FFFD0007FFF00
07FFFEABFFFD00
01FFFFFFFFF400
007FFFFFFFD000
000BFFFFFE4000
0001BFFFE40000
000005A5000000
ENDCHAR
STARTCHAR obreve
ENCODING 335
SWIDTH 579 0
DWIDTH 21 0
BBX 20 28 0 -1
BITMAP
0001515000
0007E2F400
0007F7F400
0003FFF400
0001FFD000
00001A4000
0000000000
0000594000
000BFFF800
007FFFFF40
02FFFFFFD0
07FFFFFFF4
0FFF95BFF8
1FFD001FFD
2FF4000BFE
3FF00003FF
3FE00003FF
7FE00003FF
3FE00003FF
3FF00007FE
2FF8000BFE
1FFE002FFD
0FFFE6FFF8
07FFFFFFF0
01FFFFFFD0
007FFFFE00
0007FFE400
0000150000
ENDCHAR
STARTCHAR Ohungarumlaut
ENCODING 336
SWIDTH 777 0
DWIDTH 28 0
BBX 26 36 1 -1
BITMAP
00000180000000
000003E0180000
00000BF87F0000
00002FFDFFC000
00007FF2FFD000
0000FF87FE0000
00007E0FF80000
00001807E00000
00000001400000
00000555000000
0001BFFFE40000
000BFFFFFE0000
007FFFFFFFD000
01FFFFFFFFF400
07FFFEABFFFD00
0FFFD0007FFF00
2FFE00000BFF80
3FF8000002FFC0
7FF0000000FFD0
BFE0000000BFE0
FFD00000007FF0
FFC00000003FF0
FFC00000003FF0
FFC00000003FF0
FFD00000007FF0
BFE0000000BFE0
7FF0000000FFD0
3FF8000002FFC0
2FFE00000BFF80
0FFFD0007FFF00
07FFFEABFFFD00
01FFFFFFFFF400
007FFFFFFFD000
000BFFFFFE4000
0001BFFFE40000
000005A5000000
ENDCHAR
STARTCHAR ohungarumlaut
ENCODING 337
SWIDTH 579 0
DWIDTH 21 0
BBX 20 29 0 -1
BITMAP
0000240000
0000BD0240
0001FF4BE0
0003FF9FF8
000BFE7FF8
001FF4FFD0
000BD1FF40
000240BD00
0000596000
000BFFF800
007FFFFF40
02FFFFFFD0
07FFFFFFF4
0FFF95BFF8
1FFD001FFD
2FF4000BFE
3FF00003FF
3FE00003FF
7FE00003FF
3FE00003FF
3FF00007FE
2FF8000BFE
1FFE002FFD
0FFFE6FFF8
07FFFFFFF0
01FFFFFFD0
007FFFFE00
0007FFE400
0000150000
ENDCHAR
STARTCHAR OE
ENCODING 338
SWIDTH 1125 0
DWIDTH 41 0
BBX 39 27 1 -1
BITMAP
00000555001555555550
0001BFFFE43FFFFFFFF4
000BFFFFFE3FFFFFFFF4
007FFFFFFFFFFFFFFFF4
01FFFFFFFFFFFFFFFFF4
07FFFEABFFFFFFFFFFF4
0FFFD0007FFFF0000000
2FFE00000BFFF0000000
3FF8000002FFF0000000
7FF0000000FFF0000000
BFE0000000BFF4000000
FFD00000007FFFFFF400
FFC00000003FFFFFF400
FFC00000003FFFFFF400
FFC00000003FFFFFF400
FFD00000007FFFFFF400
BFE0000000BFF0000000
7FF0000000FFF0000000
3FF8000002FFF0000000
2FFE00000BFFF0000000
0FFFD0007FFFF0000000
07FFFEABFFFFFFFFFFF4
01FFFFFFFFFFFFFFFFF4
007FFFFFFFFFFFFFFFF4
000BFFFFFE3FFFFFFFF4
0001BFFFE43FFFFFFFF4
000005A5000000000000
ENDCHAR
STARTCHAR oe
ENCODING 339
SWIDTH 924 0
DWIDTH 33 0
BBX 33 21 0 -1
BITMAP
000059400005A40000
000BFFF800BFFF9000
007FFFFF47FFFFF800
02FFFFFFEFFFFFFE00
07FFFFFFFFFFFFFF80
0FFF95BFFFFE5FFF00
1FFD001FFFE02FFC00
2FF4000BFFC07FF400
3FF00003FF40FFD000
3FE00003FF42FF8000
7FE00003FF0BFE0000
3FE00003FF5FFC0000
3FF00007FFBFF40000
2FF8000BFFFFD06000
1FFE002FFFFF41F800
0FFFE6FFFFFF6BFE00
07FFFFFFFFFFFFFF40
01FFFFFFDFFFFFFE00
007FFFFE42FFFFF400
0007FFE4006FFF8000
000015000001540000
ENDCHAR
STARTCHAR Racute
ENCODING 340
SWIDTH 651 0
DWIDTH 23 0
BBX 21 34 2 0
BITMAP
000000D00000
000007F00000
00001FF80000
00007FFD0000
0001FFE40000
0000FF400000
000078000000
000000000000
155554000000
BFFFFFE40000
BFFFFFFE4000
BFFFFFFFD000
BFFFFFFFF400
BFFFFFFFFC00
BFD0007FFD00
BFD0000BFF00
BFD00007FF40
BFD00002FF40
BFD00002FF40
BFD00002FF40
BFD00003FF40
BFD00007FF00
BFD0001FFE00
BFD001BFFD00
BFFFFFFFF800
BFFFFFFFF000
BFFFFFFF8000
BFFFFFFF0000
BFFFFFFF4000
BFD002FF8000
BFD001FFC000
BFD000FFE000
BFD0007FF000
BFD0003FF400
ENDCHAR
STARTCHAR racute
ENCODING 341
SWIDTH 414 0
DWIDTH 15 0
BBX 14 28 1 0
BITMAP
00002800
0000BD00
0002FF40
000BFF80
002FFD00
001FE000
000B4000
00000000
00000000
2406AA90
7C7FFFE0
7FFFFFE0
7FFFFFE0
7FFFFFD0
7FFD0000
7FF40000
7FE00000
7FE00000
7FE00000
7FE00000
7FE00000
7FE00000
7FE00000
7FE00000
7FE00000
7FE00000
7FE00000
7FE00000
ENDCHAR
STARTCHAR Rcommaaccent
ENCODING 342
SWIDTH 651 0
DWIDTH 23 0
BBX 21 35 2 -9
BITMAP
155554000000
BFFFFFE40000
BFFFFFFE4000
BFFFFFFFD000
BFFFFFFFF400
BFFFFFFFFC00
BFD0007FFD00
BFD0000BFF00
BFD00007FF40
BFD00002FF40
BFD00002FF40
BFD00002FF40
BFD00003FF40
BFD00007FF00
BFD0001FFE00
BFD001BFFD00
BFFFFFFFF800
BFFFFFFFF000
BFFFFFFF8000
BFFFFFFF0000
BFFFFFFF4000
BFD002FF8000
BFD001FFC000
BFD000FFE000
BFD0007FF000
BFD0003FF400
000000000000
000010000000
0000FD000000
0002FF000000
0002FF000000
0001FF000000
00003E000000
00003D000000
000078000000
ENDCHAR
STARTCHAR rcommaaccent
ENCODING 343
SWIDTH 414 0
DWIDTH 15 0
BBX 14 28 1 -9
BITMAP
2406AA90
7C7FFFE0
7FFFFFE0
7FFFFFE0
7FFFFFD0
7FFD0000
7FF40000
7FE00000
7FE00000
7FE00000
7FE00000
7FE00000
7FE00000
7FE00000
7FE00000
7FE00000
7FE00000
7FE00000
7FE00000
00000000
01000000
2F800000
3FD00000
7FE00000
2FD00000
0BC00000
0B800000
0B000000
ENDCHAR
STARTCHAR Rcaron
ENCODING 344
SWIDTH 651 0
DWIDTH 23 0
BBX 21 33 2 0
BITMAP
000A02C00000
002FCBF00000
002FFFF00000
000BFFC00000
0001FF000000
00007C000000
000010000000
155554000000
BFFFFFE40000
BFFFFFFE4000
BFFFFFFFD000
BFFFFFFFF400
BFFFFFFFFC00
BFD0007FFD00
BFD0000BFF00
BFD00007FF40
BFD00002FF40
BFD00002FF40
BFD00002FF40
BFD00003FF40
BFD00007FF00
BFD0001FFE00
BFD001BFFD00
BFFFFFFFF800
BFFFFFFFF000
BFFFFFFF8000
BFFFFFFF0000
BFFFFFFF4000
BFD002FF8000
BFD001FFC000
BFD000FFE000
BFD0007FF000
BFD0003FF400
ENDCHAR
STARTCHAR rcaron
ENCODING 345
SWIDTH 414 0
DWIDTH 15 0
BBX 14 27 1 0
BITMAP
0380A000
0FE2F800
0BFFF800
02FFE000
00BF8000
002E0000
00040000
00000000
2406AA90
7C7FFFE0
7FFFFFE0
7FFFFFE0
7FFFFFD0
7FFD0000
7FF40000
7FE00000
7FE00000
7FE00000
7FE00000
7FE00000
7FE00000
7FE00000
7FE00000
7FE00000
7FE00000
7FE00000
7FE00000
ENDCHAR
STARTCHAR Sacute
ENCODING 346
SWIDTH 610 0
DWIDTH 22 0
BBX 20 34 1 0
BITMAP
0000003400
000001FC00
000007FE00
00001FFF40
00007FF900
00003FD000
00001E0000
0000000000
0001555554
00BFFFFFFC
07FFFFFFFC
1FFFFFFFFC
3FFFFFFFFC
BFFFFFFFF8
FFE0000000
FFC0000000
FFC0000000
FFD0000000
BFF4000000
7FFFFFF900
3FFFFFFFD0
0FFFFFFFF4
02FFFFFFFC
006FFFFFFD
0000001FFE
00000007FF
00000003FF
00000007FF
0000001FFE
2FFFFFFFFD
2FFFFFFFF8
2FFFFFFFF0
2FFFFFFF80
2FFFFFF900
ENDCHAR
STARTCHAR sacute
ENCODING 347
SWIDTH 523 0
DWIDTH 19 0
BBX 17 28 1 0
BITMAP
0000018000
000007E000
00002FF400
0000BFFC00
0002FFE000
0001FE4000
0000B40000
0000000000
0000000000
00AAAAAA00
0BFFFFFF00
2FFFFFFF00
3FFFFFFF00
BFFFFFFF00
BFD0000000
BFC0000000
BFEAAA4000
7FFFFFF800
2FFFFFFE00
0FFFFFFF40
02FFFFFFC0
000555FFC0
000000BFC0
AAAAABFFC0
BFFFFFFF80
BFFFFFFF00
BFFFFFFD00
BFFFFF9000
ENDCHAR
STARTCHAR Scircumflex
ENCODING 348
SWIDTH 610 0
DWIDTH 22 0
BBX 20 33 1 0
BITMAP
0000280000
0000BE0000
0002FF8000
000BFFE000
002FEBF800
000B82F000
0002009000
0001555554
00BFFFFFFC
07FFFFFFFC
1FFFFFFFFC
3FFFFFFFFC
BFFFFFFFF8
FFE0000000
FFC0000000
FFC0000000
FFD0000000
BFF4000000
7FFFFFF900
3FFFFFFFD0
0FFFFFFFF4
02FFFFFFFC
006FFFFFFD
0000001FFE
00000007FF
00000003FF
00000007FF
0000001FFE
2FFFFFFFFD
2FFFFFFFF8
2FFFFFFFF0
2FFFFFFF80
2FFFFFF900
ENDCHAR
STARTCHAR scircumflex
ENCODING 349
SWIDTH 523 0
DWIDTH 19 0
BBX 17 27 1 0
BITMAP
0001800000
0007F00000
001FFD0000
007FFF4000
00FFBFC000
007D1F4000
0024060000
0000000000
00AAAAAA00
0BFFFFFF00
2FFFFFFF00
3FFFFFFF00
BFFFFFFF00
BFD0000000
BFC0000000
BFEAAA4000
7FFFFFF800
2FFFFFFE00
0FFFFFFF40
02FFFFFFC0
000555FFC0
000000BFC0
AAAAABFFC0
BFFFFFFF80
BFFFFFFF00
BFFFFFFD00
BFFFFF9000
ENDCHAR
STARTCHAR Scedilla
ENCODING 350
SWIDTH 610 0
DWIDTH 22 0
BBX 20 34 1 -8
BITMAP
0001555554
00BFFFFFFC
07FFFFFFFC
1FFFFFFFFC
3FFFFFFFFC
BFFFFFFFF8
FFE0000000
FFC0000000
FFC0000000
FFD0000000
BFF4000000
7FFFFFF900
3FFFFFFFD0
0FFFFFFFF4
02FFFFFFFC
006FFFFFFD
0000001FFE
00000007FF
00000003FF
00000007FF
0000001FFE
2FFFFFFFFD
2FFFFFFFF8
2FFFFFFFF0
2FFFFFFF80
2FFFFFF900
00002D0000
00003E0000
0000BFC000
00005FE000
00024FE000
0007FFE000
000BFFC000
0001FE4000
ENDCHAR
STARTCHAR scedilla
ENCODING 351
SWIDTH 523 0
DWIDTH 19 0
BBX 17 27 1 -8
BITMAP
00AAAAAA00
0BFFFFFF00
2FFFFFFF00
3FFFFFFF00
BFFFFFFF00
BFD0000000
BFC0000000
BFEAAA4000
7FFFFFF800
2FFFFFFE00
0FFFFFFF40
02FFFFFFC0
000555FFC0
000000BFC0
AAAAABFFC0
BFFFFFFF80
BFFFFFFF00
BFFFFFFD00
BFFFFF9000
0001E00000
0002E40000
0003FD0000
0001BF0000
00147F0000
003FFF0000
003FFE0000
001BF40000
ENDCHAR
STARTCHAR Scaron
ENCODING 352
SWIDTH 610 0
DWIDTH 22 0
BBX 20 33 1 0
BITMAP
000B41D000
001FD7F400
001FFFF400
0007FFD000
0001FF4000
00007D0000
0000040000
0001555554
00BFFFFFFC
07FFFFFFFC
1FFFFFFFFC
3FFFFFFFFC
BFFFFFFFF8
FFE0000000
FFC0000000
FFC0000000
FFD0000000
BFF4000000
7FFFFFF900
3FFFFFFFD0
0FFFFFFFF4
02FFFFFFFC
006FFFFFFD
0000001FFE
00000007FF
00000003FF
00000007FF
0000001FFE
2FFFFFFFFD
2FFFFFFFF8
2FFFFFFFF0
2FFFFFFF80
2FFFFFF900
ENDCHAR
STARTCHAR scaron
ENCODING 353
SWIDTH 523 0
DWIDTH 19 0
BBX 17 27 1 0
BITMAP
002C074000
007F5FD000
007FFFD000
001FFF4000
0007FD0000
0001F40000
0000400000
0000000000
00AAAAAA00
0BFFFFFF00
2FFFFFFF00
3FFFFFFF00
BFFFFFFF00
BFD0000000
BFC0000000
BFEAAA4000
7FFFFFF800
2FFFFFFE00
0FFFFFFF40
02FFFFFFC0
000555FFC0
000000BFC0
AAAAABFFC0
BFFFFFFF80
BFFFFFFF00
BFFFFFFD00
BFFFFF9000
ENDCHAR
STARTCHAR Tcommaaccent
ENCODING 354
SWIDTH 578 0
DWIDTH 21 0
BBX 21 35 0 -9
BITMAP
155555555500
BFFFFFFFFF40
BFFFFFFFFF40
BFFFFFFFFF40
BFFFFFFFFF40
BFFFFFFFFF40
0000FFC00000
0000FFC00000
0000FFC00000
0000FFC00000
0000FFC00000
0000FFC00000
0000FFC00000
0000FFC00000
0000FFC00000
0000FFC00000
0000FFC00000
0000FFC00000
0000FFC00000
0000FFC00000
0000FFC00000
0000FFC00000
0000FFC00000
0000FFC00000
0000FFC00000
0000FFC00000
000000000000
000004000000
00007F000000
0000FF800000
0000FF800000
0000BF800000
00001F400000
00001F000000
00001D000000
ENDCHAR
STARTCHAR tcommaaccent
ENCODING 355
SWIDTH 437 0
DWIDTH 16 0
BBX 15 36 0 -9
BITMAP
01550000
03FE0000
03FE0000
03FE0000
03FE0000
03FE0000
03FE0000
03FE0000
6BFFAAA8
7FFFFFFC
7FFFFFFC
7FFFFFFC
7FFFFFFC
03FE0000
03FE0000
03FE0000
03FE0000
03FE0000
03FE0000
03FE0000
03FF4000
02FFD000
00FFFEA8
00BFFFFC
002FFFFC
0007FFFC
0000AFFC
00000000
00010000
000BE000
001FF000
001FF400
000FF000
0002F000
0003D000
00028000
ENDCHAR
STARTCHAR Tcaron
ENCODING 356
SWIDTH 578 0
DWIDTH 21 0
BBX 21 34 0 0
BITMAP
000100000000
000780A00000
000FE2F80000
000FFFF80000
0002FFE00000
0000BF800000
00002E000000
000004000000
155555555500
BFFFFFFFFF40
BFFFFFFFFF40
BFFFFFFFFF40
BFFFFFFFFF40
BFFFFFFFFF40
0000FFC00000
0000FFC00000
0000FFC00000
0000FFC00000
0000FFC00000
0000FFC00000
0000FFC00000
0000FFC00000
0000FFC00000
0000FFC00000
0000FFC00000
0000FFC00000
0000FFC00000
0000FFC00000
0000FFC00000
0000FFC00000
0000FFC00000
0000FFC00000
0000FFC00000
0000FFC00000
ENDCHAR
STARTCHAR tcaron
ENCODING 357
SWIDTH 570 0
DWIDTH 21 0
BBX 21 27 0 0
BITMAP
015500000000
03FE00000400
03FE00007E00
03FE0000FF40
03FE0001FF80
03FE0000BF40
03FE00002F00
03FE00002E00
6BFFAAA82C00
7FFFFFFC0000
7FFFFFFC0000
7FFFFFFC0000
7FFFFFFC0000
03FE00000000
03FE00000000
03FE00000000
03FE00000000
03FE00000000
03FE00000000
03FE00000000
03FF40000000
02FFD0000000
00FFFEA80000
00BFFFFC0000
002FFFFC0000
0007FFFC0000
0000AFFC0000
ENDCHAR
STARTCHAR Tbar
ENCODING 358
SWIDTH 578 0
DWIDTH 21 0
BBX 21 26 0 0
BITMAP
155555555500
BFFFFFFFFF40
BFFFFFFFFF40
BFFFFFFFFF40
BFFFFFFFFF40
BFFFFFFFFF40
0000FFC00000
0000FFC00000
0000FFC00000
0000FFC00000
0000FFC00000
0000FFC00000
0001FFC00000
003FFFFE0000
003FFFFE0000
003FFFFE0000
003FFFFE0000
002AFFEA0000
0000FFC00000
0000FFC00000
0000FFC00000
0000FFC00000
0000FFC00000
0000FFC00000
0000FFC00000
0000FFC00000
ENDCHAR
STARTCHAR tbar
ENCODING 359
SWIDTH 437 0
DWIDTH 16 0
BBX 15 27 0 0
BITMAP
01550000
03FE0000
03FE0000
03FE0000
03FE0000
03FE0000
03FE0000
03FE0000
6BFFAAA8
7FFFFFFC
7FFFFFFC
7FFFFFFC
7FFFFFFC
03FE0000
07FE0000
7FFFFD00
7FFFFD00
7FFFFD00
7FFFFD00
57FF5400
03FF4000
02FFD000
01FFFEA8
00BFFFFC
002FFFFC
0007FFFC
0000AFFC
ENDCHAR
STARTCHAR Utilde
ENCODING 360
SWIDTH 673 0
DWIDTH 24 0
BBX 21 33 2 0
BITMAP
000A906A0000
003FF8BE0000
007FFEFF0000
00BFFFFE0000
00BF1FFD0000
007F07F40000
001400000000
554000015500
FFC00002FF40
FFC00002FF40
FFC00002FF40
FFC00002FF40
FFC00002FF40
FFC00002FF40
FFC00002FF40
FFC00002FF40
FFC00002FF40
FFC00002FF40
FFC00002FF40
FFC00002FF40
FFC00002FF40
FFC00002FF40
FFC00002FF40
FFC00003FF00
BFD00003FF00
BFE0000BFF00
7FF8001FFE00
2FFE41BFFC00
1FFFFFFFF800
07FFFFFFE000
01FFFFFF8000
006FFFFD0000
0006FF900000
ENDCHAR
STARTCHAR utilde
ENCODING 361
SWIDTH 562 0
DWIDTH 20 0
BBX 18 27 1 -1
BITMAP
002A41A800
00FFE2F800
01FFFBFC00
02FFFFF800
02FC7FF400
01FC1FD000
0050000000
6A90006A90
7FD0007FD0
7FD0007FD0
7FD0007FD0
7FD0007FD0
7FD0007FD0
7FD0007FD0
7FD0007FD0
7FD0007FD0
7FD0007FD0
7FD0007FD0
7FD000BFD0
7FE000FFD0
3FF402FFD0
2FFEAFFFD0
0FFFFFFFD0
07FFFFFFD0
01FFFFE2D0
002FFE40D0
0001500000
ENDCHAR
STARTCHAR Umacron
ENCODING 362
SWIDTH 673 0
DWIDTH 24 0
BBX 21 30 2 0
BITMAP
001FFFF80000
001FFFF80000
001FFFF80000
001AAAA40000
554000015500
FFC00002FF40
FFC00002FF40
FFC00002FF40
FFC00002FF40
FFC00002FF40
FFC00002FF40
FFC00002FF40
FFC00002FF40
FFC00002FF40
FFC00002FF40
FFC00002FF40
FFC00002FF40
FFC00002FF40
FFC00002FF40
FFC00002FF40
FFC00003FF00
BFD00003FF00
BFE0000BFF00
7FF8001FFE00
2FFE41BFFC00
1FFFFFFFF800
07FFFFFFE000
01FFFFFF8000
006FFFFD0000
0006FF900000
ENDCHAR
STARTCHAR umacron
ENCODING 363
SWIDTH 562 0
DWIDTH 20 0
BBX 18 25 1 -1
BITMAP
007FFFE000
007FFFE000
007FFFE000
006AAA9000
0000000000
6A90006A90
7FD0007FD0
7FD0007FD0
7FD0007FD0
7FD0007FD0
7FD0007FD0
7FD0007FD0
7FD0007FD0
7FD0007FD0
7FD0007FD0
7FD0007FD0
7FD000BFD0
7FE000FFD0
3FF402FFD0
2FFEAFFFD0
0FFFFFFFD0
07FFFFFFD0
01FFFFE2D0
002FFE40D0
0001500000
ENDCHAR
STARTCHAR Ubreve
ENCODING 364
SWIDTH 673 0
DWIDTH 24 0
BBX 21 32 2 0
BITMAP
000551500000
000BD3F00000
000BFBF00000
0007FFF00000
0002FFD00000
000059000000
554000015500
FFC00002FF40
FFC00002FF40
FFC00002FF40
FFC00002FF40
FFC00002FF40
FFC00002FF40
FFC00002FF40
FFC00002FF40
FFC00002FF40
FFC00002FF40
FFC00002FF40
FFC00002FF40
FFC00002FF40
FFC00002FF40
FFC00002FF40
FFC00003FF00
BFD00003FF00
BFE0000BFF00
7FF8001FFE00
2FFE41BFFC00
1FFFFFFFF800
07FFFFFFE000
01FFFFFF8000
006FFFFD0000
0006FF900000
ENDCHAR
STARTCHAR ubreve
ENCODING 365
SWIDTH 562 0
DWIDTH 20 0
BBX 18 27 1 -1
BITMAP
0015054000
003F4FC000
003FAFC000
002FFF8000
000BFF0000
0001A40000
0000000000
6A90006A90
7FD0007FD0
7FD0007FD0
7FD0007FD0
7FD0007FD0
7FD0007FD0
7FD0007FD0
7FD0007FD0
7FD0007FD0
7FD0007FD0
7FD0007FD0
7FD000BFD0
7FE000FFD0
3FF402FFD0
2FFEAFFFD0
0FFFFFFFD0
07FFFFFFD0
01FFFFE2D0
002FFE40D0
0001500000
ENDCHAR
STARTCHAR Uring
ENCODING 366
SWIDTH 673 0
DWIDTH 24 0
BBX 21 34 2 0
BITMAP
000014000000
0001FF400000
0003FFD00000
0007D3E00000
0007C3E00000
0003FFD00000
0001FF400000
000015000000
554000015500
FFC00002FF40
FFC00002FF40
FFC00002FF40
FFC00002FF40
FFC00002FF40
FFC00002FF40
FFC00002FF40
FFC00002FF40
FFC00002FF40
FFC00002FF40
FFC00002FF40
FFC00002FF40
FFC00002FF40
FFC00002FF40
FFC00002FF40
FFC00003FF00
BFD00003FF00
BFE0000BFF00
7FF8001FFE00
2FFE41BFFC00
1FFFFFFFF800
07FFFFFFE000
01FFFFFF8000
006FFFFD0000
0006FF900000
ENDCHAR
STARTCHAR uring
ENCODING 367
SWIDTH 562 0
DWIDTH 20 0
BBX 18 28 1 -1
BITMAP
0000500000
0007FD0000
000FFF0000
001F0F4000
001F0F8000
000FFF4000
0007FD0000
0000500000
6A90006A90
7FD0007FD0
7FD0007FD0
7FD0007FD0
7FD0007FD0
7FD0007FD0
7FD0007FD0
7FD0007FD0
7FD0007FD0
7FD0007FD0
7FD0007FD0
7FD000BFD0
7FE000FFD0
3FF402FFD0
2FFEAFFFD0
0FFFFFFFD0
07FFFFFFD0
01FFFFE2D0
002FFE40D0
0001500000
ENDCHAR
STARTCHAR Uhungarumlaut
ENCODING 368
SWIDTH 673 0
DWIDTH 24 0
BBX 21 35 2 0
BITMAP
000020000000
0000BC034000
0002FF4FD000
0007FF6FF400
000FFD7FF400
002FF5FFD000
001FC2FF0000
000600F80000
000000200000
554000015500
FFC00002FF40
FFC00002FF40
FFC00002FF40
FFC00002FF40
FFC00002FF40
FFC00002FF40
FFC00002FF40
FFC00002FF40
FFC00002FF40
FFC00002FF40
FFC00002FF40
FFC00002FF40
FFC00002FF40
FFC00002FF40
FFC00002FF40
FFC00003FF00
BFD00003FF00
BFE0000BFF00
7FF8001FFE00
2FFE41BFFC00
1FFFFFFFF800
07FFFFFFE000
01FFFFFF8000
006FFFFD0000
0006FF900000
ENDCHAR
STARTCHAR uhungarumlaut
ENCODING 369
SWIDTH 562 0
DWIDTH 20 0
BBX 18 29 1 -1
BITMAP
0000800000
0002F01D00
000BFD3F40
001FFDBFD0
003FF5FFD0
00BFD7FF40
007E0BFC00
001803E000
0000008000
6A90006A90
7FD0007FD0
7FD0007FD0
7FD0007FD0
7FD0007FD0
7FD0007FD0
7FD0007FD0
7FD0007FD0
7FD0007FD0
7FD0007FD0
7FD0007FD0
7FD000BFD0
7FE000FFD0
3FF402FFD0
2FFEAFFFD0
0FFFFFFFD0
07FFFFFFD0
01FFFFE2D0
002FFE40D0
0001500000
ENDCHAR
STARTCHAR Uogonek
ENCODING 370
SWIDTH 673 0
DWIDTH 24 0
BBX 21 33 2 -7
BITMAP
554000015500
FFC00002FF40
FFC00002FF40
FFC00002FF40
FFC00002FF40
FFC00002FF40
FFC00002FF40
FFC00002FF40
FFC00002FF40
FFC00002FF40
FFC00002FF40
FFC00002FF40
FFC00002FF40
FFC00002FF40
FFC00002FF40
FFC00002FF40
FFC00003FF40
BFD00003FF00
BFE0000BFF00
7FF8001FFE00
2FFE41BFFC00
1FFFFFFFF800
07FFFFFFE000
02FFFFFF8000
007FFFFD0000
0006FF900000
0002F4000000
0007E0000000
000BE1000000
000BFF800000
000BFFE00000
0002FF800000
000054000000
ENDCHAR
STARTCHAR uogonek
ENCODING 371
SWIDTH 562 0
DWIDTH 20 0
BBX 20 26 1 -7
BITMAP
6A90006A90
7FD0007FD0
7FD0007FD0
7FD0007FD0
7FD0007FD0
7FD0007FD0
7FD0007FD0
7FD0007FD0
7FD0007FD0
7FD0007FD0
7FD0007FD0
7FD000BFD0
7FE000FFD0
3FF402FFD0
2FFEAFFFD0
0FFFFFFFD0
07FFFFFFD0
01FFFFE2D0
002FFE42D0
0001500BC0
0000002F40
0000003F54
0000007FFD
0000003FFF
0000001FFD
0000000150
ENDCHAR
STARTCHAR Wcircumflex
ENCODING 372
SWIDTH 819 0
DWIDTH 30 0
BBX 26 34 2 -1
BITMAP
00000090000000
000003F4000000
00000FFD000000
00007FFF800000
0000BFBFD00000
00007E0F800000
00001402000000
55400154001540
FFD00BFD00BFD0
FFD00BFD00BFD0
FFD00BFD00BFD0
FFD00BFD00BFD0
FFD00BFD00BFD0
FFD00BFD00BFD0
FFD00BFD00BFD0
FFD00BFD00BFD0
FFD00BFD00BFD0
FFD00BFD00BFD0
FFD00BFD00BFD0
FFD00BFD00BFD0
FFD00BFD00BFD0
FFD00BFD00BFD0
FFD00BFD00BFD0
FFD00BFD00BFD0
FFD00BFD00BFD0
FFD00BFD00BFD0
BFD00FFD00BFD0
BFF02FFF01FFC0
7FFEFFFFEBFF80
2FFFFFFFFFFF40
1FFFFFFFFFFE00
07FFFFBFFFF800
00BFF90BFF9000
00054000540000
ENDCHAR
STARTCHAR wcircumflex
ENCODING 373
SWIDTH 756 0
DWIDTH 27 0
BBX 25 28 1 -1
BITMAP
00000090000000
000007F4000000
00001FFD000000
00007FFF400000
0000FFBFD00000
00007D1F800000
00001402000000
00000000000000
6A900AA800AA40
7FD00BFC01FF80
7FD00BFC01FF80
7FD00BFC01FF80
7FD00BFC01FF80
7FD00BFC01FF80
7FD00BFC01FF80
7FD00BFC01FF80
7FD00BFC01FF80
7FD00BFC01FF80
7FD00BFC01FF80
7FD00BFC01FF80
7FE00BFC01FF80
7FF01FFD02FF40
3FFEBFFF9BFF40
2FFFFFFFFFFE00
0BFFFFFFFFFD00
02FFFFBFFFF400
00BFF91BFF8000
00054000540000
ENDCHAR
STARTCHAR Ycircumflex
ENCODING 374
SWIDTH 620 0
DWIDTH 22 0
BBX 21 33 1 0
BITMAP
000028000000
0000BE000000
0002FF800000
000BFFE00000
001FFBF80000
000B82F00000
000200900000
554000005500
FFC00002FF40
FFC00002FF40
FFC00002FF40
FFC00002FF40
FFC00002FF40
FFC00002FF40
FFC00002FF40
FFC00002FF40
FFD00003FF00
BFE00007FF00
7FF4000FFE00
3FFD007FFD00
1FFFEAFFF800
0BFFFFFFF000
03FFFFFFD000
00BFFFFF4000
001BFFE40000
0001FF800000
0001FF800000
0001FF800000
0001FF800000
0001FF800000
0001FF800000
0001FF800000
0001FF800000
ENDCHAR
STARTCHAR ycircumflex
ENCODING 375
SWIDTH 562 0
DWIDTH 20 0
BBX 18 35 1 -8
BITMAP
0000A00000
0002F80000
000BFE0000
002FFF8000
007FEFE000
002E0BC000
0008024000
0000000000
6A90006A90
7FD0007FD0
7FD0007FD0
7FD0007FD0
7FD0007FD0
7FD0007FD0
7FD0007FD0
7FD0007FD0
7FD0007FD0
7FD0007FD0
7FD0007FD0
7FD000BFD0
7FE000FFD0
3FF402FFD0
2FFEAFFFD0
0FFFFFFFD0
07FFFFFFD0
01FFFFFFD0
002FFEFFD0
000151FFC0
000007FF80
001ABFFF00
002FFFFD00
002FFFF400
002FFFD000
002FF90000
0005000000
ENDCHAR
STARTCHAR Ydieresis
ENCODING 376
SWIDTH 620 0
DWIDTH 22 0
BBX 21 32 1 0
BITMAP
000500500000
002F81FC0000
007FD2FD0000
003FC2FD0000
001F40B80000
000000000000
554000005500
FFC00002FF40
FFC00002FF40
FFC00002FF40
FFC00002FF40
FFC00002FF40
FFC00002FF40
FFC00002FF40
FFC00002FF40
FFD00003FF00
BFE00007FF00
7FF4000FFE00
3FFD007FFD00
1FFFEAFFF800
0BFFFFFFF000
03FFFFFFD000
00BFFFFF4000
001BFFE40000
0001FF800000
0001FF800000
0001FF800000
0001FF800000
0001FF800000
0001FF800000
0001FF800000
0001FF800000
ENDCHAR
STARTCHAR Zacute
ENCODING 377
SWIDTH 586 0
DWIDTH 21 0
BBX 21 34 0 0
BITMAP
000000180000
0000007E0000
000002FF4000
00000BFFC000
00002FFE0000
00001FE40000
00000B400000
000000000000
155555555500
7FFFFFFFFF00
7FFFFFFFFD00
7FFFFFFFFC00
7FFFFFFFF400
3FFFFFFFE000
000002FFD000
000007FF8000
00000BFF4000
00001FFE0000
00003FFD0000
00007FF80000
0000FFF00000
0002FFE00000
0003FFC00000
000BFF800000
000FFF000000
002FFD000000
007FFC000000
00BFF4000000
01FFF0000000
02FFFFFFFF40
07FFFFFFFF40
0BFFFFFFFF40
1FFFFFFFFF40
3FFFFFFFFF40
ENDCHAR
STARTCHAR zacute
ENCODING 378
SWIDTH 481 0
DWIDTH 17 0
BBX 17 28 0 0
BITMAP
000001C000
000007E000
00001FF800
0000BFFC00
0002FFE000
0001FF4000
0000740000
0000000000
0000000000
2AAAAAAA40
7FFFFFFE00
7FFFFFFD00
7FFFFFF800
7FFFFFF000
0000BFE000
0000FFC000
0002FF4000
0007FE0000
000BFD0000
001FF80000
003FF00000
00BFE00000
00FFC00000
02FFEAAA40
07FFFFFF80
0BFFFFFF80
1FFFFFFF80
3FFFFFFF80
ENDCHAR
STARTCHAR Zdotaccent
ENCODING 379
SWIDTH 586 0
DWIDTH 21 0
BBX 21 31 0 0
BITMAP
00001A000000
00007F800000
0000BF800000
00007F400000
000019000000
155555555500
7FFFFFFFFF00
7FFFFFFFFD00
7FFFFFFFFC00
7FFFFFFFF400
3FFFFFFFE000
000002FFD000
000007FF8000
00000BFF4000
00001FFE0000
00003FFD0000
00007FF80000
0000FFF00000
0002FFE00000
0003FFC00000
000BFF800000
000FFF000000
002FFD000000
007FFC000000
00BFF4000000
01FFF0000000
02FFFFFFFF40
07FFFFFFFF40
0BFFFFFFFF40
1FFFFFFFFF40
3FFFFFFFFF40
ENDCHAR
STARTCHAR zdotaccent
ENCODING 380
SWIDTH 481 0
DWIDTH 17 0
BBX 17 25 0 0
BITMAP
0001A00000
0007F80000
000BFC0000
0007F80000
0001900000
0000000000
2AAAAAAA40
7FFFFFFE00
7FFFFFFD00
7FFFFFF800
7FFFFFF000
0000BFE000
0000FFC000
0002FF4000
0007FE0000
000BFD0000
001FF80000
003FF00000
00BFE00000
00FFC00000
02FFEAAA40
07FFFFFF80
0BFFFFFF80
1FFFFFFF80
3FFFFFFF80
ENDCHAR
STARTCHAR Zcaron
ENCODING 381
SWIDTH 586 0
DWIDTH 21 0
BBX 21 33 0 0
BITMAP
000380B00000
000BE2F80000
000BFFF80000
0002FFE00000
0000BF800000
00001E000000
000004000000
155555555500
7FFFFFFFFF00
7FFFFFFFFD00
7FFFFFFFFC00
7FFFFFFFF400
3FFFFFFFE000
000002FFD000
000007FF8000
00000BFF4000
00001FFE0000
00003FFD0000
00007FF80000
0000FFF00000
0002FFE00000
0003FFC00000
000BFF800000
000FFF000000
002FFD000000
007FFC000000
00BFF4000000
01FFF0000000
02FFFFFFFF40
07FFFFFFFF40
0BFFFFFFFF40
1FFFFFFFFF40
3FFFFFFFFF40
ENDCHAR
STARTCHAR zcaron
ENCODING 382
SWIDTH 481 0
DWIDTH 17 0
BBX 17 27 0 0
BITMAP
00380B0000
00BF2FC000
00BFFFC000
002FFF0000
000BF80000
0001E00000
0000400000
0000000000
2AAAAAAA40
7FFFFFFE00
7FFFFFFD00
7FFFFFF800
7FFFFFF000
0000BFE000
0000FFC000
0002FF4000
0007FE0000
000BFD0000
001FF80000
003FF00000
00BFE00000
00FFC00000
02FFEAAA40
07FFFFFF80
0BFFFFFF80
1FFFFFFF80
3FFFFFFF80
ENDCHAR
STARTCHAR AEacute
ENCODING 508
SWIDTH 988 0
DWIDTH 36 0
BBX 33 34 2 0
BITMAP
000000000090000000
0000000002F4000000
000000000BFC000000
000000003FFE000000
00000000FFF4000000
00000000BF80000000
000000003900000000
000000000000000000
000005555555555500
0006FFFFFFFFFFFF40
007FFFFFFFFFFFFF40
02FFFFFFFFFFFFFF40
0BFFFFFFFFFFFFFF40
1FFFFFFFFFFFFFFF40
3FFE0003FF40000000
7FF40003FF40000000
BFE00003FF40000000
BFD00003FF40000000
FFC00003FF40000000
FFC00003FFFFFF4000
FFC00003FFFFFF4000
FFC00003FFFFFF4000
FFC00003FFFFFF4000
FFC00003FFFFFF4000
FFFFFFFFFF40000000
FFFFFFFFFF40000000
FFFFFFFFFF40000000
FFFFFFFFFF40000000
FFFFFFFFFF40000000
FFC00003FFFFFFFF40
FFC00003FFFFFFFF40
FFC00003FFFFFFFF40
FFC00003FFFFFFFF40
FFC00003FFFFFFFF40
ENDCHAR
STARTCHAR aeacute
ENCODING 509
SWIDTH 976 0
DWIDTH 35 0
BBX 34 29 1 -1
BITMAP
000000000060000000
0000000001F8000000
000000000BFD000000
000000002FFF000000
00000000BFF8000000
000000007F90000000
000000002D00000000
000000000000000000
000165000001650000
006FFFD0182FFFE400
01FFFFF87DFFFFFE00
0BFFFFFFFFFFFFFF80
1FFFFFFFFFFFFFFFD0
3FFE57FFFFFF57FF80
7FF400BFFFF80BFF00
BFD0002FFFE02FFC00
FFC0001FFFD07FF400
FF80000FFFC0FFD000
FF80000BFFC2FF8000
FF80000FFFCBFE0000
FFC0001FFFEFFC0000
BFE0002FFFFFF41800
7FF400BFFFFFD07E00
3FFF9BFFFFFFDBFF80
1FFFFFFFFFFFFFFFD0
0BFFFFFEFFFFFFFF40
01FFFFF87DBFFFFD00
002FFF901C1BFFE000
000054000000550000
ENDCHAR
STARTCHAR Oslashacute
ENCODING 510
SWIDTH 777 0
DWIDTH 28 0
BBX 26 35 1 -1
BITMAP
00000001800000
00000007E00000
0000002FF40000
000000BFFC0000
000002FFE00000
000001FE400000
000000B4000000
00000000000000
00000565005500
0001BFFFE6FF00
000BFFFFFFFD00
007FFFFFFFF800
01FFFFFFFFF400
07FFFEABFFFD00
0FFFD001FFFF00
2FFE0003FFFF40
3FF8000BFEFFC0
7FF0002FF4FFD0
BFE0007FE0BFE0
FFD000FF807FF0
FFC002FF003FF0
FFC007FD003FF0
FFC01FF8003FF0
FFD03FF0007FF0
BFE0BFD000BFE0
7FF1FF4000FFD0
3FFBFE0002FFC0
1FFFFC000BFF80
0FFFF4007FFF00
07FFFEABFFFD00
01FFFFFFFFF400
02FFFFFFFFD000
0BFFFFFFFE4000
1FF9BFFFE40000
000005A5000000
ENDCHAR
STARTCHAR oslashacute
ENCODING 511
SWIDTH 579 0
DWIDTH 21 0
BBX 20 29 0 -1
BITMAP
0000002800
000000BD00
000002FF40
00000BFF80
00002FFD00
00002FE000
00000B4000
0000000000
0000594000
000BFFFBFE
007FFFFFFC
02FFFFFFF4
07FFFFFFF4
0FFF96FFF8
1FFD03FFFD
2FF40BFFFE
3FF01FFBFF
3FE07FE3FF
7FE0FFC3FF
3FE2FF43FF
3FFBFD07FE
2FFFF80BFE
1FFFF02FFD
0FFFE6FFF8
07FFFFFFF0
07FFFFFFD0
0FFFFFFE00
2FFBFFE400
0000150000
ENDCHAR
STARTCHAR dotlessj
ENCODING 567
SWIDTH 237 0
DWIDTH 9 0
BBX 13 27 -6 -8
BITMAP
0000AA80
0000FF80
0000FF80
0000FF80
0000FF80
0000FF80
0000FF80
0000FF80
0000FF80
0000FF80
0000FF80
0000FF80
0000FF80
0000FF80
0000FF80
0000FF80
0000FF80
0001FF80
0002FF80
0007FF40
001FFF00
6ABFFD00
7FFFF800
7FFFE000
7FFF4000
7FF80000
14000000
ENDCHAR
STARTCHAR circumflex
ENCODING 710
SWIDTH 267 0
DWIDTH 10 0
BBX 10 7 0 18
BITMAP
009000
02F400
0FFE00
3FFF80
BFBFD0
3E0B80
180200
ENDCHAR
STARTCHAR caron
ENCODING 711
SWIDTH 267 0
DWIDTH 10 0
BBX 10 7 0 18
BITMAP
2C0740
BF5FC0
BFFFD0
1FFF40
07FD00
01F000
004000
ENDCHAR
STARTCHAR breve
ENCODING 728
SWIDTH 220 0
DWIDTH 8 0
BBX 8 6 0 19
BITMAP
5415
FD3E
FEBF
BFFE
2FFC
0690
ENDCHAR
STARTCHAR dotaccent
ENCODING 729
SWIDTH 125 0
DWIDTH 5 0
BBX 5 5 0 19
BITMAP
2900
BF40
FF40
BF40
2900
ENDCHAR
STARTCHAR ring
ENCODING 730
SWIDTH 192 0
DWIDTH 7 0
BBX 7 8 0 18
BITMAP
0540
2FE0
BFF8
F8BC
F8BC
BFF8
2FE0
0540
ENDCHAR
STARTCHAR ogonek
ENCODING 731
SWIDTH 212 0
DWIDTH 8 0
BBX 8 8 0 -7
BITMAP
0BC0
2F40
7E00
FD10
FFF8
BFFD
2FF4
0540
ENDCHAR
STARTCHAR tilde
ENCODING 732
SWIDTH 321 0
DWIDTH 12 0
BBX 12 7 0 18
BITMAP
1A90A9
7FF4FE
BFFEFE
FFFFFD
FE2FFC
BE07E4
140000
ENDCHAR
STARTCHAR hungarumlaut
ENCODING 733
SWIDTH 384 0
DWIDTH 14 0
BBX 14 9 0 18
BITMAP
00800000
02F00D00
0BFD3F40
1FFDBFD0
3FF5FFD0
BFD7FF40
7F0BFC00
1802E000
00008000
ENDCHAR
STARTCHAR uni0312
ENCODING 786
SWIDTH 192 0
DWIDTH 7 0
BBX 5 8 1 19
BITMAP
0400
2E00
7C00
BE00
FF80
FF80
BF80
2A00
ENDCHAR
STARTCHAR uni0315
ENCODING 789
SWIDTH 132 0
DWIDTH 5 0
BBX 5 8 0 18
BITMAP
0400
7F00
FF80
FF80
BF80
1F40
1F00
1D00
ENDCHAR
STARTCHAR uni0326
ENCODING 806
SWIDTH 193 0
DWIDTH 7 0
BBX 5 8 1 -9
BITMAP
0400
7F40
BF80
FFC0
7F80
1F40
1F00
1D00
ENDCHAR
STARTCHAR pi
ENCODING 960
SWIDTH 555 0
DWIDTH 20 0
BBX 20 19 0 0
BITMAP
6AAAAAAAA9
7FFFFFFFFD
7FFFFFFFFD
7FFFFFFFFD
7FFFFFFFFD
01FF41FF40
01FF41FF40
01FF41FF40
01FF41FF40
01FF41FF40
01FF41FF40
01FF41FF40
01FF41FF40
01FF41FF40
01FF41FF40
01FF41FF40
01FF41FF40
01FF41FF40
01FF41FF40
ENDCHAR
STARTCHAR Wgrave
ENCODING 7808
SWIDTH 819 0
DWIDTH 30 0
BBX 26 35 2 -1
BITMAP
0000A000000000
0001F800000000
0007FE00000000
000BFF80000000
0001FFE0000000
00002FD0000000
00000780000000
00000000000000
55400154001540
FFD00BFD00BFD0
FFD00BFD00BFD0
FFD00BFD00BFD0
FFD00BFD00BFD0
FFD00BFD00BFD0
FFD00BFD00BFD0
FFD00BFD00BFD0
FFD00BFD00BFD0
FFD00BFD00BFD0
FFD00BFD00BFD0
FFD00BFD00BFD0
FFD00BFD00BFD0
FFD00BFD00BFD0
FFD00BFD00BFD0
FFD00BFD00BFD0
FFD00BFD00BFD0
FFD00BFD00BFD0
FFD00BFD00BFD0
BFD00FFD00BFD0
BFF02FFF01FFC0
7FFEFFFFEBFF80
2FFFFFFFFFFF40
1FFFFFFFFFFE00
07FFFFBFFFF800
00BFF90BFF9000
00054000540000
ENDCHAR
STARTCHAR wgrave
ENCODING 7809
SWIDTH 756 0
DWIDTH 27 0
BBX 25 29 1 -1
BITMAP
0001D000000000
0003F400000000
000BFD00000000
001FFF40000000
0002FFD0000000
00007FC0000000
00000B40000000
00000000000000
00000000000000
6A900AA800AA40
7FD00BFC01FF80
7FD00BFC01FF80
7FD00BFC01FF80
7FD00BFC01FF80
7FD00BFC01FF80
7FD00BFC01FF80
7FD00BFC01FF80
7FD00BFC01FF80
7FD00BFC01FF80
7FD00BFC01FF80
7FD00BFC01FF80
7FE00BFC01FF80
7FF01FFD02FF40
3FFEBFFF9BFF40
2FFFFFFFFFFE00
0BFFFFFFFFFD00
02FFFFBFFFF400
00BFF91BFF8000
00054000540000
ENDCHAR
STARTCHAR Wacute
ENCODING 7810
SWIDTH 819 0
DWIDTH 30 0
BBX 26 35 2 -1
BITMAP
00000001C00000
00000007E00000
0000001FF80000
0000007FFC0000
000001FFE00000
000001FF400000
00000078000000
00000000000000
55400154001540
FFD00BFD00BFD0
FFD00BFD00BFD0
FFD00BFD00BFD0
FFD00BFD00BFD0
FFD00BFD00BFD0
FFD00BFD00BFD0
FFD00BFD00BFD0
FFD00BFD00BFD0
FFD00BFD00BFD0
FFD00BFD00BFD0
FFD00BFD00BFD0
FFD00BFD00BFD0
FFD00BFD00BFD0
FFD00BFD00BFD0
FFD00BFD00BFD0
FFD00BFD00BFD0
FFD00BFD00BFD0
FFD00BFD00BFD0
BFD00FFD00BFD0
BFF02FFF01FFC0
7FFEFFFFEBFF80
2FFFFFFFFFFF40
1FFFFFFFFFFE00
07FFFFBFFFF800
00BFF90BFF9000
00054000540000
ENDCHAR
STARTCHAR wacute
ENCODING 7811
SWIDTH 756 0
DWIDTH 27 0
BBX 25 29 1 -1
BITMAP
00000000D00000
00000007F00000
0000001FF80000
0000007FFD0000
000001FFE40000
000000FF400000
00000078000000
00000000000000
00000000000000
6A900AA800AA40
7FD00BFC01FF80
7FD00BFC01FF80
7FD00BFC01FF80
7FD00BFC01FF80
7FD00BFC01FF80
7FD00BFC01FF80
7FD00BFC01FF80
7FD00BFC01FF80
7FD00BFC01FF80
7FD00BFC01FF80
7FD00BFC01FF80
7FE00BFC01FF80
7FF01FFD02FF40
3FFEBFFF9BFF40
2FFFFFFFFFFE00
0BFFFFFFFFFD00
02FFFFBFFFF400
00BFF91BFF8000
00054000540000
ENDCHAR
STARTCHAR Wdieresis
ENCODING 7812
SWIDTH 819 0
DWIDTH 30 0
BBX 26 33 2 -1
BITMAP
00005401400000
0001FD0BE00000
0002FE1FF00000
0001FE0FF00000
0000B807D00000
00000000000000
55400154001540
FFD00BFD00BFD0
FFD00BFD00BFD0
FFD00BFD00BFD0
FFD00BFD00BFD0
FFD00BFD00BFD0
FFD00BFD00BFD0
FFD00BFD00BFD0
FFD00BFD00BFD0
FFD00BFD00BFD0
FFD00BFD00BFD0
FFD00BFD00BFD0
FFD00BFD00BFD0
FFD00BFD00BFD0
FFD00BFD00BFD0
FFD00BFD00BFD0
FFD00BFD00BFD0
FFD00BFD00BFD0
FFD00BFD00BFD0
BFD00FFD00BFD0
BFF02FFF01FFC0
7FFEFFFFEBFF80
2FFFFFFFFFFF40
1FFFFFFFFFFE00
07FFFFBFFFF800
00BFF90BFF9000
00054000540000
ENDCHAR
STARTCHAR wdieresis
ENCODING 7813
SWIDTH 756 0
DWIDTH 27 0
BBX 25 26 1 -1
BITMAP
00005401400000
0001FD0FE00000
0002FE1FF00000
0002FE0FF00000
0000B807900000
00000000000000
6A900AA800AA40
7FD00BFC01FF80
7FD00BFC01FF80
7FD00BFC01FF80
7FD00BFC01FF80
7FD00BFC01FF80
7FD00BFC01FF80
7FD00BFC01FF80
7FD00BFC01FF80
7FD00BFC01FF80
7FD00BFC01FF80
7FD00BFC01FF80
7FE00BFC01FF80
7FF01FFD02FF40
3FFEBFFF9BFF40
2FFFFFFFFFFE00
0BFFFFFFFFFD00
02FFFFBFFFF400
00BFF91BFF8000
00054000540000
ENDCHAR
STARTCHAR Ygrave
ENCODING 7922
SWIDTH 620 0
DWIDTH 22 0
BBX 21 34 1 0
BITMAP
003400000000
00BD00000000
02FF40000000
03FFD0000000
00BFF4000000
001FF4000000
0001D0000000
000000000000
554000005500
FFC00002FF40
FFC00002FF40
FFC00002FF40
FFC00002FF40
FFC00002FF40
FFC00002FF40
FFC00002FF40
FFC00002FF40
FFD00003FF00
BFE00007FF00
7FF4000FFE00
3FFD007FFD00
1FFFEAFFF800
0BFFFFFFF000
03FFFFFFD000
00BFFFFF4000
001BFFE40000
0001FF800000
0001FF800000
0001FF800000
0001FF800000
0001FF800000
0001FF800000
0001FF800000
0001FF800000
ENDCHAR
STARTCHAR ygrave
ENCODING 7923
SWIDTH 562 0
DWIDTH 20 0
BBX 18 36 1 -8
BITMAP
00D0000000
03F4000000
0BFD000000
1FFF400000
02FFD00000
007FC00000
000B400000
0000000000
0000000000
6A90006A90
7FD0007FD0
7FD0007FD0
7FD0007FD0
7FD0007FD0
7FD0007FD0
7FD0007FD0
7FD0007FD0
7FD0007FD0
7FD0007FD0
7FD0007FD0
7FD000BFD0
7FE000FFD0
3FF402FFD0
2FFEAFFFD0
0FFFFFFFD0
07FFFFFFD0
01FFFFFFD0
002FFEFFD0
000151FFC0
000007FF80
001ABFFF00
002FFFFD00
002FFFF400
002FFFD000
002FF90000
0005000000
ENDCHAR
STARTCHAR endash
ENCODING 8211
SWIDTH 418 0
DWIDTH 15 0
BBX 11 5 2 10
BITMAP
FFFFFC
FFFFFC
FFFFFC
FFFFFC
AAAAA8
ENDCHAR
STARTCHAR emdash
ENCODING 8212
SWIDTH 719 0
DWIDTH 26 0
BBX 22 5 2 10
BITMAP
FFFFFFFFFFE0
FFFFFFFFFFE0
FFFFFFFFFFE0
FFFFFFFFFFE0
AAAAAAAAAAA0
ENDCHAR
STARTCHAR quoteleft
ENCODING 8216
SWIDTH 246 0
DWIDTH 9 0
BBX 7 9 1 16
BITMAP
0740
1F80
2F40
3F80
7FF0
7FF4
7FF4
3FF0
1FD0
ENDCHAR
STARTCHAR quoteright
ENCODING 8217
SWIDTH 245 0
DWIDTH 9 0
BBX 7 10 1 16
BITMAP
0100
2FD0
7FF0
BFF4
BFF4
3FF0
0BF0
07E0
0FC0
0740
ENDCHAR
STARTCHAR quotesinglbase
ENCODING 8218
SWIDTH 264 0
DWIDTH 10 0
BBX 7 10 1 -5
BITMAP
0690
2FF0
3FF8
7FF8
3FF8
1FF4
03F0
07E0
0BC0
0140
ENDCHAR
STARTCHAR quotedblleft
ENCODING 8220
SWIDTH 445 0
DWIDTH 16 0
BBX 14 9 1 16
BITMAP
07401E00
1F803F00
2F40BE00
3F80FE40
7FF0FFD0
7FF5FFE0
7FF5FFE0
3FF0FFD0
1FD07F80
ENDCHAR
STARTCHAR quotedblright
ENCODING 8221
SWIDTH 444 0
DWIDTH 16 0
BBX 14 10 1 16
BITMAP
01000400
2FD07F40
7FF0FFD0
BFF5FFD0
BFF5FFD0
3FF0FFD0
0BF02FC0
07E01F80
0FC02F40
07401D00
ENDCHAR
STARTCHAR quotedblbase
ENCODING 8222
SWIDTH 463 0
DWIDTH 17 0
BBX 14 10 1 -5
BITMAP
06901A40
2FF07FD0
3FF8FFE0
7FF8FFF0
3FF8BFE0
1FF42FE0
03F00BD0
07E01FC0
0BC01F40
01400100
ENDCHAR
STARTCHAR dagger
ENCODING 8224
SWIDTH 434 0
DWIDTH 16 0
BBX 14 33 1 -4
BITMAP
00AA9000
00BFD000
00BFD000
00BFD000
00BFD000
00BFD000
55BFE540
FFFFFFD0
FFFFFFD0
FFFFFFD0
FFFFFFD0
55FFE550
00BFD000
00BFD000
00BFD000
00BFD000
00BFD000
00BFD000
00BFD000
00BFD000
00BFD000
00BFD000
00BFD000
00BFD000
00BFD000
00BFD000
00BFD000
00BFD000
00BFD000
00BFD000
00BFD000
00BFD000
006A9000
ENDCHAR
STARTCHAR daggerdbl
ENCODING 8225
SWIDTH 452 0
DWIDTH 16 0
BBX 14 33 1 -4
BITMAP
006AA000
007FE000
007FE000
007FE000
007FE000
007FE000
55BFE550
BFFFFFE0
BFFFFFE0
BFFFFFE0
BFFFFFE0
55BFF550
007FE000
007FE000
007FE000
007FE000
007FE000
007FE000
007FE000
007FE000
007FE000
7FFFFFE0
BFFFFFE0
BFFFFFE0
BFFFFFE0
7FFFFFE0
007FE000
007FE000
007FE000
007FE000
007FE000
007FE000
006A9000
ENDCHAR
STARTCHAR bullet
ENCODING 8226
SWIDTH 354 0
DWIDTH 13 0
BBX 8 8 2 9
BITMAP
06A0
1FFD
3FFE
7FFF
7FFF
3FFE
1FFD
06A0
ENDCHAR
STARTCHAR ellipsis
ENCODING 8230
SWIDTH 789 0
DWIDTH 28 0
BBX 26 7 1 -2
BITMAP
069001A4001A00
2FF007FE00BFC0
3FF80BFF01FFE0
7FF80BFF01FFE0
3FF407FF00FFD0
1FE002FD007F80
01000010000400
ENDCHAR
STARTCHAR perthousand
ENCODING 8240
SWIDTH 998 0
DWIDTH 36 0
BBX 34 27 1 -1
BITMAP
01A900001500000000
0BFF8000FF00000000
2FFFE001FD00000000
3FEFF003FC00000000
7F47F40BF400000000
BF03F40FE000000000
BE02F82FD000000000
BF03F47F8000000000
7F03F4BF0000000000
7F9BF5FE0000000000
3FFFE2FC0000000000
1FFFD7F40000000000
06FE4FF00000000000
00001FD05400015000
00003F8BFF401FFE00
0000BF6FFFD07FFF80
0000FE3FFFE0BFFFC0
0002FD7F4BF0FE1FD0
0007F8BF03F5FC0BE0
000BF0BE03F5FC0BE0
001FE0BE03F5FC0BE0
003FC0BF03F5FC0BE0
007F407F4BF0FE1FD0
00FF003FFFE0BFFFC0
02FD001FFFD07FFF80
03F80007FF401FFE00
000000005400015000
ENDCHAR
STARTCHAR guilsinglleft
ENCODING 8249
SWIDTH 403 0
DWIDTH 15 0
BBX 12 18 1 0
BITMAP
0000E0
0002F8
000BFE
002FFD
00BFF4
02FFD0
0BFF40
2FFD00
BFF400
BFF800
2FFE00
0BFF80
01FFF0
007FFD
001FFE
0007FC
0001F4
000050
ENDCHAR
STARTCHAR guilsinglright
ENCODING 8250
SWIDTH 402 0
DWIDTH 15 0
BBX 13 18 1 0
BITMAP
07400000
1FD00000
7FF40000
2FFD0000
0BFF4000
02FFD000
00BFF400
002FFD00
000BFF40
001FFF40
007FFD00
01FFF000
07FFC000
2FFE0000
7FF80000
2FE00000
0B800000
01000000
ENDCHAR
STARTCHAR fraction
ENCODING 8260
SWIDTH 477 0
DWIDTH 17 0
BBX 17 26 0 0
BITMAP
0000000540
0000002FC0
0000007F40
000000FF00
000001FD00
000003F800
00000BF400
00000FE000
00002FD000
00007F8000
0000BF0000
0001FE0000
0002FC0000
0007F40000
000FF00000
001FD00000
003F800000
00BF400000
00FE000000
02FC000000
07F8000000
0BF0000000
1FD0000000
3FC0000000
7F40000000
FE00000000
ENDCHAR
STARTCHAR Euro
ENCODING 8364
SWIDTH 806 0
DWIDTH 29 0
BBX 27 27 1 -1
BITMAP
00000001694000
0000006FFFF900
000006FFFFFF90
00001FFFFFFFF4
00007FFFFFFFF0
0001FFFFAAFFD0
0003FFF4001F80
000BFF80000200
06AFFFAA800000
0BFFFFFFC00000
0FFFFFFF800000
1FFFFFFF800000
1ABFFAAA400000
003FF000000000
2ABFFAA9000000
3FFFFFFE000000
7FFFFFFD000000
BFFFFFFD000000
AAAFFFE8000000
000BFF80000200
0003FFF4001F80
0001FFFFAAFFD0
00007FFFFFFFF0
00001FFFFFFFF4
000002FFFFFF80
0000006FFFF900
00000001694000
ENDCHAR
STARTCHAR trademark
ENCODING 8482
SWIDTH 606 0
DWIDTH 22 0
BBX 18 10 2 16
BITMAP
5554050500
FFFD2FFF80
ABE97AFAD0
0780B4F1E0
0780B4F1E0
0780B4F1E0
0780B4F1E0
0780B4F1E0
0780B4F1E0
028064A190
ENDCHAR
STARTCHAR partialdiff
ENCODING 8706
SWIDTH 609 0
DWIDTH 22 0
BBX 20 29 1 -1
BITMAP
0001554000
0002FFD000
0000FFE000
00007FF400
00002FFC00
00000FFD00
00000BFF00
000003FF40
000056FF80
001BFFFFD0
00BFFFFFE0
03FFFFFFF0
0BFFFFFFF4
1FFF96FFF8
3FF8003FFC
7FF0001FFC
BFD0000BFD
BFD00007FD
BFC00007FD
BFD00007FD
BFE0000BFD
7FF0001FFC
3FFD007FF8
1FFFAAFFF0
0BFFFFFFD0
02FFFFFF80
00BFFFFD00
001BFFE000
0000550000
ENDCHAR
STARTCHAR product
ENCODING 8719
SWIDTH 632 0
DWIDTH 23 0
BBX 21 26 1 0
BITMAP
155555555500
BFFFFFFFFF80
BFFFFFFFFF80
BFFFFFFFFF80
BFFFFFFFFF80
BFFFFFFFFF40
01FF80BFD000
01FF80BFD000
01FF80BFD000
01FF80BFD000
01FF80BFD000
01FF80BFD000
01FF80BFD000
01FF80BFD000
01FF80BFD000
01FF80BFD000
01FF80BFD000
01FF80BFD000
01FF80BFD000
01FF80BFD000
01FF80BFD000
01FF80BFD000
01FF80BFD000
01FF80BFD000
01FF80BFD000
01FF80BFD000
ENDCHAR
STARTCHAR minus
ENCODING 8722
SWIDTH 543 0
DWIDTH 20 0
BBX 16 5 2 10
BITMAP
BFFFFFFD
BFFFFFFD
BFFFFFFD
BFFFFFFD
6AAAAAA8
ENDCHAR
STARTCHAR infinity
ENCODING 8734
SWIDTH 771 0
DWIDTH 28 0
BBX 26 16 1 4
BITMAP
006FE401BE4000
02FFFE0BFFF400
0BFFFFAFFFFD00
1FFFFFFFFFFF00
2FFFFFFFFFFF80
3FF47FFF46FFC0
7FE01FFD00FFC0
7FD00BFC00BFD0
7FD007FD007FD0
7FE007FE00BFC0
3FF41FFF81FFC0
2FFFFFFFFFFF80
1FFFFFFFFFFF00
0BFFFFBFFFFD00
02FFFE0BFFF400
006FE401FF9000
ENDCHAR
STARTCHAR approxequal
ENCODING 8776
SWIDTH 476 0
DWIDTH 17 0
BBX 13 15 2 5
BITMAP
06901A80
3FFC2F80
BFFF7FC0
BFFFFFC0
BFAFFF80
BF07FF00
7E41A800
00000000
1BE42F80
3FFD2FC0
BFFFBFC0
BFFFFF80
BF5FFF40
BF07FE00
2A405400
ENDCHAR
STARTCHAR notequal
ENCODING 8800
SWIDTH 512 0
DWIDTH 18 0
BBX 16 23 1 1
BITMAP
00000554
00001FF4
00002FF0
00003FE0
00007FC0
2AAAFFE9
7FFFFFFE
7FFFFFFE
7FFFFFFE
7FFFFFFE
000BFC00
000FF800
2AAFFAA9
7FFFFFFE
7FFFFFFE
7FFFFFFE
7FFFFFFE
15FF5554
02FF0000
03FD0000
07FC0000
0BF80000
0AA40000
ENDCHAR
STARTCHAR fi
ENCODING 64257
SWIDTH 650 0
DWIDTH 23 0
BBX 23 28 0 0
BITMAP
0000AFFC0000
0007FFFC2F90
002FFFFCBFF0
007FFFFCFFF4
00FFFEA8FFF4
01FFD000BFF0
02FF40002FD0
02FF00000100
03FF00000000
6BFFAAAAAAA0
7FFFFFFFFFE0
7FFFFFFFFFE0
7FFFFFFFFFE0
7FFFFFFFFFE0
03FF00007FE0
03FF00007FE0
03FF00007FE0
03FF00007FE0
03FF00007FE0
03FF00007FE0
03FF00007FE0
03FF00007FE0
03FF00007FE0
03FF00007FE0
03FF00007FE0
03FF00007FE0
03FF00007FE0
03FF00007FE0
ENDCHAR
STARTCHAR fl
ENCODING 64258
SWIDTH 631 0
DWIDTH 23 0
BBX 21 28 0 0
BITMAP
0000AFFFFFC0
0007FFFFFFC0
002FFFFFFFC0
007FFFFFFFC0
00FFFEAAFFC0
01FFD000FFC0
02FF4000FFC0
02FF0000FFC0
03FF0000FFC0
6BFFAAA0FFC0
7FFFFFE0FFC0
7FFFFFE0FFC0
7FFFFFE0FFC0
7FFFFFE0FFC0
03FF0000FFC0
03FF0000FFC0
03FF0000FFC0
03FF0000FFC0
03FF0000FFC0
03FF0000FFC0
03FF0000FFC0
03FF0000FFC0
03FF0000FFC0
03FF0000FFC0
03FF0000FFC0
03FF0000FFC0
03FF0000FFC0
03FF0000FFC0
ENDCHAR
STARTCHAR .notdef
ENCODING -1
SWIDTH 279 0
DWIDTH 10 0
BBX 1 1 0 0
BITMAP
00
ENDCHAR
STARTCHAR .null
ENCODING -1
SWIDTH 0 0
DWIDTH 0 0
BBX 1 1 0 0
BITMAP
00
ENDCHAR
STARTCHAR nonmarkingreturn
ENCODING -1
SWIDTH 279 0
DWIDTH 10 0
BBX 1 1 0 0
BITMAP
00
ENDCHAR
ENDFONT
